<?xml version="1.0" standalone="no"?>
<!DOCTYPE svg PUBLIC "-//W3C//DTD SVG 1.1//EN" "http://www.w3.org/Graphics/SVG/1.1/DTD/svg11.dtd" >
<svg xmlns="http://www.w3.org/2000/svg" xmlns:xlink="http://www.w3.org/1999/xlink" version="1.1">
<metadata>
Created by FontForge 20161013 at Tue May  3 13:01:55 2016
 By ,,,
Copyright (C)2016 Commercial Type.
</metadata>
<defs>
<font id="Canela-ThinItalic" horiz-adv-x="188" >
  <font-face 
    font-family="Canela Thin"
    font-weight="100"
    font-style="italic"
    font-stretch="normal"
    units-per-em="1000"
    panose-1="0 0 0 0 0 0 0 0 0 0"
    ascent="775"
    descent="-225"
    x-height="475"
    cap-height="732"
    bbox="-117 -260 993 1150"
    underline-thickness="20"
    underline-position="-140"
    slope="-9"
    unicode-range="U+0020-FB04"
  />
<missing-glyph horiz-adv-x="161" 
 />
    <glyph glyph-name="f_b" unicode="fb" horiz-adv-x="702" 
d="M54 -165h-50l133 622h-56l4 18h55l20 92q45 212 181 212q52 0 78 -30l60 30l-105 -482q83 193 202 193q106 0 106 -149q0 -140 -75 -248t-179 -108q-67 0 -107.5 48.5t-18.5 150.5l91 422q12 64 -3.5 108t-64.5 44q-40 0 -65 -36t-47 -139l-23 -108h99l-4 -18h-99zM434 3
q56 0 101 54t67 129.5t22 151.5q0 118 -70 118q-43 0 -93 -52.5t-101 -177.5l-11 -51q-19 -90 8.5 -131t76.5 -41z" />
    <glyph glyph-name="f_f_b" unicode="ffb" horiz-adv-x="922" 
d="M4 -165l133 622h-56l4 18h56l15 72q23 109 69 160.5t106 51.5q18 0 49 -12l7 -85l-4 -1q-21 39 -39 58t-40 19q-28 0 -50.5 -37.5t-44.5 -137.5l-19 -88h170l20 92q45 212 181 212q52 0 78 -30l60 30l-105 -482q83 193 202 193q106 0 106 -149q0 -140 -75 -248t-179 -108
q-67 0 -107.5 48.5t-18.5 150.5l91 422q12 64 -3.5 108t-64.5 44q-40 0 -65 -36t-47 -139l-23 -108h99l-4 -18h-99l-132 -622h-50l133 622h-171l-132 -622h-50zM654 3q56 0 101 54t67 129.5t22 151.5q0 118 -70 118q-43 0 -93 -52.5t-101 -177.5l-11 -51q-19 -90 8.5 -131
t76.5 -41z" />
    <glyph glyph-name="f_f_h" unicode="ffh" horiz-adv-x="924" 
d="M224 -165l133 622h-171l-132 -622h-50l133 622h-56l4 18h56l15 72q23 109 69 160.5t106 51.5q18 0 49 -12l7 -85l-4 -1q-21 39 -39 58t-40 19q-28 0 -50.5 -37.5t-44.5 -137.5l-19 -88h170l20 92q45 212 181 212q52 0 78 -30l60 30l-121 -551q51 118 113.5 190t123.5 72
q42 0 58.5 -36t2.5 -99l-51 -240q-14 -56 -6.5 -79.5t46.5 -27.5v-2l-115 -15l78 367q9 40 -0.5 66.5t-38.5 26.5q-42 0 -100 -70t-123 -217l-8 -41q-15 -79 -3 -121v-2h-88v2q5 7 8.5 13.5t7.5 15.5t6.5 14.5t5.5 17t4.5 16.5t5 19.5t4.5 19.5l4.5 22.5l4.5 22.5l94 442
q12 65 -3 109t-64 44q-40 0 -65 -36t-47 -139l-23 -108h99l-4 -18h-99l-132 -622h-50z" />
    <glyph glyph-name="f_f_j" unicode="ffj" horiz-adv-x="645" 
d="M521 -52q-13 -69 -44.5 -112t-71.5 -51l-2 5q44 33 63 128l85 423q14 73 -16 116h-129l-132 -622h-50l133 622h-171l-132 -622h-50l133 622h-56l4 18h56l15 72q23 109 69 160.5t106 51.5q18 0 49 -12l7 -85l-4 -1q-21 39 -39 58t-40 19q-28 0 -50.5 -37.5t-44.5 -137.5
l-19 -88h170l20 92q23 108 68.5 160t102.5 52q40 0 73 -24l9 -114l-4 -1q-27 68 -48 93t-48 25q-31 0 -54.5 -37t-45.5 -138l-23 -108h120q47 0 99 20z" />
    <glyph glyph-name="f_f_k" unicode="ffk" horiz-adv-x="854" 
d="M732 0l-131 248l142 143q52 54 28 82v2h120v-2q-40 -14 -63 -31t-73 -67l-107 -106l95 -177q21 -40 37 -58.5t42 -31.5v-2h-90zM4 -165l133 622h-56l4 18h56l15 72q23 109 69 160.5t106 51.5q18 0 49 -12l7 -85l-4 -1q-21 39 -39 58t-40 19q-28 0 -50.5 -37.5
t-44.5 -137.5l-19 -88h170l20 92q45 212 181 212q52 0 78 -30l59 30l-130 -614q-15 -70 -17.5 -101.5t5.5 -61.5v-2h-88v2q5 7 8.5 13.5t7.5 15.5t6.5 14.5t5.5 17t4.5 16.5t5 19.5t4.5 19.5l4.5 22.5l4.5 22.5l93 442q12 65 -3 109t-64 44q-40 0 -65 -36t-47 -139l-23 -108
h99l-4 -18h-99l-132 -622h-50l133 622h-171l-132 -622h-50z" />
    <glyph glyph-name="f_h" unicode="fh" horiz-adv-x="704" 
d="M285 457h-99l-132 -622h-50l133 622h-56l4 18h55l20 92q45 212 181 212q52 0 78 -30l60 30l-121 -551q51 118 113.5 190t123.5 72q42 0 58.5 -36t2.5 -99l-51 -240q-14 -56 -6.5 -79.5t46.5 -27.5v-2l-115 -15l78 367q9 40 -0.5 66.5t-38.5 26.5q-42 0 -100 -70
t-123 -217l-8 -41q-15 -79 -3 -121v-2h-88v2q5 7 8.5 13.5t7.5 15.5t6.5 14.5t5.5 17t4.5 16.5t5 19.5t4.5 19.5l4.5 22.5l4.5 22.5l94 442q12 65 -3 109t-64 44q-40 0 -65 -36t-47 -139l-23 -108h99z" />
    <glyph glyph-name="f_j" unicode="fj" horiz-adv-x="425" 
d="M301 -52q-13 -69 -44.5 -112t-71.5 -51l-2 5q44 33 63 128l85 423q14 73 -16 116h-129l-132 -622h-50l133 622h-56l4 18h55l20 92q23 108 68.5 160t102.5 52q40 0 73 -24l9 -114l-4 -1q-27 68 -48 93t-48 25q-31 0 -54.5 -37t-45.5 -138l-23 -108h120q47 0 99 20z" />
    <glyph glyph-name="f_k" unicode="fk" horiz-adv-x="634" 
d="M54 -165h-50l133 622h-56l4 18h55l20 92q45 212 181 212q52 0 78 -30l59 30l-130 -614q-15 -70 -17.5 -101.5t5.5 -61.5v-2h-88v2q5 7 8.5 13.5t7.5 15.5t6.5 14.5t5.5 17t4.5 16.5t5 19.5t4.5 19.5l4.5 22.5l4.5 22.5l93 442q12 65 -3 109t-64 44q-40 0 -65 -36
t-47 -139l-23 -108h99l-4 -18h-99zM512 0l-131 248l142 143q52 54 28 82v2h120v-2q-40 -14 -63 -31t-73 -67l-107 -106l95 -177q21 -40 37 -58.5t42 -31.5v-2h-90z" />
    <glyph glyph-name="f_t" unicode="ft" horiz-adv-x="487" 
d="M4 -165l133 622h-56l4 18h55l20 92q23 109 69 160.5t105 51.5q28 0 60 -17l7 -91l-4 -1q-27 46 -46.5 67t-43.5 21q-27 0 -49.5 -37.5t-44.5 -137.5l-23 -108h124l99 74h2l-16 -74h118l-4 -18h-118l-81 -377q-12 -54 22 -54q22 0 47.5 25t44.5 53l9 -6
q-61 -113 -125 -113q-28 0 -42.5 22.5t-4.5 70.5l82 379h-161l-132 -622h-50z" />
    <glyph glyph-name="f_f_t" unicode="fft" horiz-adv-x="707" 
d="M4 -165l133 622h-56l4 18h56l15 72q23 109 69 160.5t106 51.5q18 0 49 -12l7 -85l-4 -1q-21 39 -39 58t-40 19q-28 0 -50.5 -37.5t-44.5 -137.5l-19 -88h170l20 92q23 109 69 160.5t105 51.5q28 0 60 -17l7 -91l-4 -1q-27 46 -46.5 67t-43.5 21q-27 0 -49.5 -37.5
t-44.5 -137.5l-23 -108h124l99 74h2l-16 -74h118l-4 -18h-118l-81 -377q-12 -54 22 -54q22 0 47.5 25t44.5 53l9 -6q-61 -113 -125 -113q-28 0 -42.5 22.5t-4.5 70.5l82 379h-161l-132 -622h-50l133 622h-171l-132 -622h-50z" />
    <glyph glyph-name="f_f" unicode="ff" horiz-adv-x="477" 
d="M4 -165l133 622h-56l4 18h56l15 72q23 109 69 160.5t106 51.5q18 0 49 -12l7 -85l-4 -1q-21 39 -39 58t-40 19q-28 0 -50.5 -37.5t-44.5 -137.5l-19 -88h170l20 92q23 109 69 160.5t105 51.5q28 0 60 -17l7 -91l-4 -1q-27 46 -46.5 67t-43.5 21q-27 0 -49.5 -37.5
t-44.5 -137.5l-23 -108h99l-4 -18h-99l-132 -622h-50l133 622h-171l-132 -622h-50z" />
    <glyph glyph-name="f_i" unicode="fi" horiz-adv-x="426" 
d="M54 -165h-50l133 622h-56l4 18h55l20 92q23 108 68.5 160t102.5 52q40 0 73 -24l9 -114l-4 -1q-27 68 -48 93t-48 25q-31 0 -54.5 -37t-45.5 -138l-23 -108h120q47 0 99 20l-73 -372q-15 -79 -3 -121v-2h-88v2q28 40 51 161l35 178q14 73 -16 116h-129z" />
    <glyph glyph-name="f_l" unicode="fl" horiz-adv-x="429" 
d="M54 -165h-50l133 622h-56l4 18h55l20 92q45 212 181 212q52 0 78 -30l59 30l-130 -614q-15 -70 -17.5 -101.5t5.5 -61.5v-2h-88v2q5 7 8.5 13.5t7.5 15.5t6.5 14.5t5.5 17t4.5 16.5t5 19.5t4.5 19.5l4.5 22.5l4.5 22.5l93 442q12 65 -3 109t-64 44q-40 0 -65 -36
t-47 -139l-23 -108h99l-4 -18h-99z" />
    <glyph glyph-name="f_f_i" unicode="ffi" horiz-adv-x="646" 
d="M54 -165h-50l133 622h-56l4 18h56l15 72q23 109 69 160.5t106 51.5q18 0 49 -12l7 -85l-4 -1q-21 39 -39 58t-40 19q-28 0 -50.5 -37.5t-44.5 -137.5l-19 -88h170l20 92q23 108 68.5 160t102.5 52q40 0 73 -24l9 -114l-4 -1q-27 68 -48 93t-48 25q-31 0 -54.5 -37
t-45.5 -138l-23 -108h120q47 0 99 20l-73 -372q-15 -79 -3 -121v-2h-88v2q28 40 51 161l35 178q14 73 -16 116h-129l-132 -622h-50l133 622h-171z" />
    <glyph glyph-name="f_f_l" unicode="ffl" horiz-adv-x="649" 
d="M4 -165l133 622h-56l4 18h56l15 72q23 109 69 160.5t106 51.5q18 0 49 -12l7 -85l-4 -1q-21 39 -39 58t-40 19q-28 0 -50.5 -37.5t-44.5 -137.5l-19 -88h170l20 92q45 212 181 212q52 0 78 -30l59 30l-130 -614q-15 -70 -17.5 -101.5t5.5 -61.5v-2h-88v2q5 7 8.5 13.5
t7.5 15.5t6.5 14.5t5.5 17t4.5 16.5t5 19.5t4.5 19.5l4.5 22.5l4.5 22.5l93 442q12 65 -3 109t-64 44q-40 0 -65 -36t-47 -139l-23 -108h99l-4 -18h-99l-132 -622h-50l133 622h-171l-132 -622h-50z" />
    <glyph glyph-name="f_b.alt" unicode="&#xe4c5;b" horiz-adv-x="702" 
d="M428 -15q-67 0 -107.5 48.5t-18.5 150.5l91 422q12 64 -3.5 108t-64.5 44q-40 0 -65.5 -36t-46.5 -139l-23 -108h99l-4 -18h-99l-61 -291q-15 -70 -17.5 -102t5.5 -62v-2h-90v2q27 46 51 161l63 294h-56l4 18h55l20 92q45 212 181 212q52 0 78 -30l60 30l-105 -482
q83 193 202 193q106 0 106 -149q0 -140 -75 -248t-179 -108zM434 3q56 0 101 54t67 129.5t22 151.5q0 118 -70 118q-43 0 -93 -52.5t-101 -177.5l-11 -51q-19 -90 8.5 -131t76.5 -41z" />
    <glyph glyph-name="f_f.alt" unicode="&#xe4c5;&#xe4c5;" horiz-adv-x="476" 
d="M23 0v2q27 46 51 161l63 294h-56l4 18h56l15 72q23 109 69 160.5t106 51.5q18 0 49 -12l7 -85l-4 -1q-21 39 -39 58t-40 19q-28 0 -51 -37.5t-44 -137.5l-19 -88h170l22 100q22 104 67 154t104 50q28 0 60 -17l7 -91l-4 -1q-27 46 -46.5 67t-43.5 21q-27 0 -49.5 -36
t-42.5 -131l-25 -116h100l-4 -18h-99l-62 -291q-15 -70 -17.5 -102t5.5 -62v-2h-90v2q12 21 22 48.5t14 45t15 67.5l64 294h-170l-62 -291q-15 -70 -17.5 -102t5.5 -62v-2h-90z" />
    <glyph glyph-name="f_f_b.alt" unicode="&#xe4c5;&#xe4c5;b" horiz-adv-x="922" 
d="M648 -15q-67 0 -107.5 48.5t-18.5 150.5l91 422q12 64 -3.5 108t-64.5 44q-40 0 -65.5 -36t-46.5 -139l-23 -108h99l-4 -18h-99l-61 -291q-15 -70 -17.5 -102t5.5 -62v-2h-90v2q27 46 51 161l63 294h-170l-62 -291q-15 -70 -17.5 -102t5.5 -62v-2h-90v2q27 46 51 161
l63 294h-56l4 18h56l15 72q23 109 69 160.5t106 51.5q18 0 49 -12l7 -85l-4 -1q-21 39 -39 58t-40 19q-28 0 -51 -37.5t-44 -137.5l-19 -88h170l20 92q45 212 181 212q52 0 78 -30l60 30l-105 -482q83 193 202 193q106 0 106 -149q0 -140 -75 -248t-179 -108zM654 3
q56 0 101 54t67 129.5t22 151.5q0 118 -70 118q-43 0 -93 -52.5t-101 -177.5l-11 -51q-19 -90 8.5 -131t76.5 -41z" />
    <glyph glyph-name="f_f_h.alt" unicode="&#xe4c5;&#xe4c5;h" horiz-adv-x="924" 
d="M750 -9l78 367q9 40 -0.5 66.5t-38.5 26.5q-42 0 -100 -70t-123 -217l-8 -41q-15 -79 -3 -121v-2h-88v2q5 7 8.5 13.5t7.5 15.5t6.5 14.5t5.5 17t4.5 16.5t5 19.5t4.5 19.5l4.5 22.5l4.5 22.5l94 442q12 65 -3 109t-64 44q-40 0 -65.5 -36t-46.5 -139l-23 -108h99l-4 -18
h-99l-61 -291q-15 -70 -17.5 -102t5.5 -62v-2h-90v2q27 46 51 161l63 294h-170l-62 -291q-15 -70 -17.5 -102t5.5 -62v-2h-90v2q27 46 51 161l63 294h-56l4 18h56l15 72q23 109 69 160.5t106 51.5q18 0 49 -12l7 -85l-4 -1q-21 39 -39 58t-40 19q-28 0 -51 -37.5t-44 -137.5
l-19 -88h170l20 92q45 212 181 212q52 0 78 -30l60 30l-121 -551q51 118 113.5 190t123.5 72q42 0 58.5 -36t2.5 -99l-51 -240q-14 -56 -6.5 -79.5t46.5 -27.5v-2z" />
    <glyph glyph-name="f_f_i.alt" unicode="&#xe4c5;&#xe4c5;i" horiz-adv-x="647" 
d="M113 0h-90v2q27 46 51 161l63 294h-56l4 18h56l15 72q23 109 69 160.5t106 51.5q18 0 49 -12l7 -85l-4 -1q-21 39 -39 58t-40 19q-28 0 -51 -37.5t-44 -137.5l-19 -88h171l20 92q24 108 69 160t101 52q40 0 73 -24l9 -114l-4 -1q-27 68 -48 93t-48 25q-31 0 -54 -37
t-45 -138l-23 -108h120q47 0 99 20l-73 -372q-15 -79 -3 -121v-2h-88v2q28 40 51 161l35 178q14 73 -16 116h-129l-62 -291q-15 -70 -17.5 -102t5.5 -62v-2h-90v2q12 21 22 48.5t14 45t15 67.5l63 294h-170l-62 -291q-15 -70 -17.5 -102t5.5 -62v-2z" />
    <glyph glyph-name="f_f_j.alt" unicode="&#xe4c5;&#xe4c5;j" horiz-adv-x="645" 
d="M522 -52q-13 -69 -44.5 -112t-71.5 -51l-2 5q44 33 63 128l85 423q14 73 -16 116h-129l-62 -291q-15 -70 -17.5 -102t5.5 -62v-2h-90v2q12 21 22 48.5t14 45t15 67.5l63 294h-170l-62 -291q-15 -70 -17.5 -102t5.5 -62v-2h-90v2q27 46 51 161l63 294h-56l4 18h56l15 72
q23 109 69 160.5t106 51.5q18 0 49 -12l7 -85l-4 -1q-21 39 -39 58t-40 19q-28 0 -51 -37.5t-44 -137.5l-19 -88h171l20 92q24 108 69 160t101 52q40 0 73 -24l9 -114l-4 -1q-27 68 -48 93t-48 25q-31 0 -54 -37t-45 -138l-23 -108h120q47 0 99 20z" />
    <glyph glyph-name="f_f_k.alt" unicode="&#xe4c5;&#xe4c5;k" horiz-adv-x="854" 
d="M732 0l-131 248l142 143q52 54 28 82v2h120v-2q-40 -14 -63 -31t-73 -67l-107 -106l95 -177q21 -40 37 -58.5t42 -31.5v-2h-90zM23 0v2q27 46 51 161l63 294h-56l4 18h56l15 72q23 109 69 160.5t106 51.5q18 0 49 -12l7 -85l-4 -1q-21 39 -39 58t-40 19q-28 0 -51 -37.5
t-44 -137.5l-19 -88h170l20 92q45 212 181 212q52 0 78 -30l59 30l-130 -614q-15 -70 -17.5 -101.5t5.5 -61.5v-2h-88v2q5 7 8.5 13.5t7.5 15.5t6.5 14.5t5.5 17t4.5 16.5t5 19.5t4.5 19.5l4.5 22.5l4.5 22.5l93 442q12 65 -3 109t-64 44q-40 0 -65.5 -36t-46.5 -139
l-23 -108h99l-4 -18h-99l-61 -291q-15 -70 -17.5 -102t5.5 -62v-2h-90v2q27 46 51 161l63 294h-170l-62 -291q-15 -70 -17.5 -102t5.5 -62v-2h-90z" />
    <glyph glyph-name="f_f_l.alt" unicode="&#xe4c5;&#xe4c5;l" horiz-adv-x="649" 
d="M23 0v2q27 46 51 161l63 294h-56l4 18h56l15 72q23 109 69 160.5t106 51.5q18 0 49 -12l7 -85l-4 -1q-21 39 -39 58t-40 19q-28 0 -51 -37.5t-44 -137.5l-19 -88h170l20 92q45 212 181 212q52 0 78 -30l59 30l-130 -614q-15 -70 -17.5 -101.5t5.5 -61.5v-2h-88v2
q5 7 8.5 13.5t7.5 15.5t6.5 14.5t5.5 17t4.5 16.5t5 19.5t4.5 19.5l4.5 22.5l4.5 22.5l93 442q12 65 -3 109t-64 44q-40 0 -65.5 -36t-46.5 -139l-23 -108h99l-4 -18h-99l-61 -291q-15 -70 -17.5 -102t5.5 -62v-2h-90v2q27 46 51 161l63 294h-170l-62 -291
q-15 -70 -17.5 -102t5.5 -62v-2h-90z" />
    <glyph glyph-name="f_f_t.alt" unicode="&#xe4c5;&#xe4c5;t" horiz-adv-x="708" 
d="M658 98q-61 -113 -125 -113q-28 0 -42.5 22.5t-4.5 70.5l82 379h-160l-62 -291q-15 -70 -17.5 -102t5.5 -62v-2h-90v2q12 21 22 48.5t14 45t15 67.5l64 294h-172l-62 -291q-15 -70 -17.5 -102t5.5 -62v-2h-90v2q27 46 51 161l63 294h-56l4 18h56l15 72q23 109 69 160.5
t106 51.5q18 0 49 -12l7 -85l-4 -1q-21 39 -39 58t-40 19q-28 0 -51 -37.5t-44 -137.5l-19 -88h172l22 100q22 104 67 154t104 50q28 0 60 -17l7 -91l-4 -1q-27 46 -46.5 67t-43.5 21q-27 0 -49.5 -36t-42.5 -131l-25 -116h124l99 74h2l-16 -74h118l-4 -18h-118l-81 -377
q-12 -54 22 -54q22 0 47.5 25t44.5 53z" />
    <glyph glyph-name="f_h.alt" unicode="&#xe4c5;h" horiz-adv-x="704" 
d="M530 -9l78 367q9 40 -0.5 66.5t-38.5 26.5q-42 0 -100 -70t-123 -217l-8 -41q-15 -79 -3 -121v-2h-88v2q5 7 8.5 13.5t7.5 15.5t6.5 14.5t5.5 17t4.5 16.5t5 19.5t4.5 19.5l4.5 22.5l4.5 22.5l94 442q12 65 -3 109t-64 44q-40 0 -65.5 -36t-46.5 -139l-23 -108h99l-4 -18
h-99l-61 -291q-15 -70 -17.5 -102t5.5 -62v-2h-90v2q27 46 51 161l63 294h-56l4 18h55l20 92q45 212 181 212q52 0 78 -30l60 30l-120 -548q51 117 113 188t123 71q42 0 58.5 -36t2.5 -99l-51 -240q-14 -56 -6.5 -79.5t46.5 -27.5v-2z" />
    <glyph glyph-name="f_i.alt" unicode="&#xe4c5;i" horiz-adv-x="427" 
d="M113 0h-90v2q12 21 22 48.5t14 45t15 67.5l63 294h-55l4 18h55l20 92q24 108 69 160t101 52q40 0 73 -24l9 -114l-4 -1q-27 68 -48 93t-48 25q-31 0 -54 -37t-45 -138l-23 -108h120q47 0 99 20l-73 -372q-15 -79 -3 -121v-2h-88v2q28 40 51 161l35 178q14 73 -16 116
h-129l-62 -291q-15 -70 -17.5 -102t5.5 -62v-2z" />
    <glyph glyph-name="f_j.alt" unicode="&#xe4c5;j" horiz-adv-x="426" 
d="M302 -52q-13 -69 -44.5 -112t-71.5 -51l-2 5q44 33 63 128l85 423q14 73 -16 116h-129l-62 -291q-15 -70 -17.5 -102t5.5 -62v-2h-90v2q12 21 22 48.5t14 45t15 67.5l63 294h-55l4 18h55l20 92q24 108 69 160t101 52q40 0 73 -24l9 -114l-4 -1q-27 68 -48 93t-48 25
q-31 0 -54 -37t-45 -138l-23 -108h120q47 0 99 20z" />
    <glyph glyph-name="f_k.alt" unicode="&#xe4c5;k" horiz-adv-x="634" 
d="M113 0h-90v2q27 46 51 161l63 294h-56l4 18h55l20 92q45 212 181 212q52 0 78 -30l59 30l-130 -614q-15 -70 -17.5 -101.5t5.5 -61.5v-2h-88v2q5 7 8.5 13.5t7.5 15.5t6.5 14.5t5.5 17t4.5 16.5t5 19.5t4.5 19.5l4.5 22.5l4.5 22.5l93 442q12 65 -3 109t-64 44
q-40 0 -65.5 -36t-46.5 -139l-23 -108h99l-4 -18h-99l-61 -291q-15 -70 -17.5 -102t5.5 -62v-2zM512 0l-131 248l142 143q52 54 28 82v2h120v-2q-40 -14 -63 -31t-73 -67l-107 -106l95 -177q21 -40 37 -58.5t42 -31.5v-2h-90z" />
    <glyph glyph-name="f_l.alt" unicode="&#xe4c5;l" horiz-adv-x="429" 
d="M113 0h-90v2q27 46 51 161l63 294h-56l4 18h55l20 92q45 212 181 212q52 0 78 -30l59 30l-130 -614q-15 -70 -17.5 -101.5t5.5 -61.5v-2h-88v2q5 7 8.5 13.5t7.5 15.5t6.5 14.5t5.5 17t4.5 16.5t5 19.5t4.5 19.5l4.5 22.5l4.5 22.5l93 442q12 65 -3 109t-64 44
q-40 0 -65.5 -36t-46.5 -139l-23 -108h99l-4 -18h-99l-61 -291q-15 -70 -17.5 -102t5.5 -62v-2z" />
    <glyph glyph-name="f_t.alt" unicode="&#xe4c5;t" horiz-adv-x="488" 
d="M438 98q-61 -113 -125 -113q-28 0 -42.5 22.5t-4.5 70.5l82 379h-161l-62 -291q-15 -70 -17.5 -102t5.5 -62v-2h-90v2q12 21 22 48.5t14 45t15 67.5l64 294h-56l4 18h55l22 100q22 104 67 154t104 50q28 0 60 -17l7 -91l-4 -1q-27 46 -46.5 67t-43.5 21q-27 0 -49.5 -36
t-42.5 -131l-25 -116h125l99 74h2l-16 -74h118l-4 -18h-118l-81 -377q-12 -54 22 -54q22 0 47.5 25t44.5 53z" />
    <glyph glyph-name="f_f_k.altfk" unicode="&#xe4c5;&#xe4c5;&#xe4ca;" horiz-adv-x="870" 
d="M764 -5q-52 0 -98 87q-33 61 -69 164l145 145q53 53 28 82v2h120v-2q-42 -15 -78.5 -46t-167.5 -162q31 -87 65 -153q22 -40 38.5 -55.5t35.5 -15.5q23 0 42 19l3 -2q-9 -30 -26.5 -46.5t-37.5 -16.5zM23 0v2q27 46 51 161l63 294h-56l4 18h56l15 72q23 109 69 160.5
t106 51.5q18 0 49 -12l7 -85l-4 -1q-21 39 -39 58t-40 19q-28 0 -51 -37.5t-44 -137.5l-19 -88h170l20 92q45 212 181 212q52 0 78 -30l59 30l-130 -614q-15 -70 -17.5 -101.5t5.5 -61.5v-2h-88v2q5 7 8.5 13.5t7.5 15.5t6.5 14.5t5.5 17t4.5 16.5t5 19.5t4.5 19.5l4.5 22.5
l4.5 22.5l93 442q12 65 -3 109t-64 44q-40 0 -65.5 -36t-46.5 -139l-23 -108h99l-4 -18h-99l-61 -291q-15 -70 -17.5 -102t5.5 -62v-2h-90v2q27 46 51 161l63 294h-170l-62 -291q-15 -70 -17.5 -102t5.5 -62v-2h-90z" />
    <glyph glyph-name="f_k.altfk" unicode="&#xe4c5;&#xe4ca;" horiz-adv-x="650" 
d="M113 0h-90v2q27 46 51 161l63 294h-56l4 18h55l20 92q45 212 181 212q52 0 78 -30l59 30l-130 -614q-15 -70 -17.5 -101.5t5.5 -61.5v-2h-88v2q5 7 8.5 13.5t7.5 15.5t6.5 14.5t5.5 17t4.5 16.5t5 19.5t4.5 19.5l4.5 22.5l4.5 22.5l93 442q12 65 -3 109t-64 44
q-40 0 -65.5 -36t-46.5 -139l-23 -108h99l-4 -18h-99l-61 -291q-15 -70 -17.5 -102t5.5 -62v-2zM544 -5q-52 0 -98 87q-33 61 -69 164l145 145q53 53 28 82v2h120v-2q-42 -15 -78.5 -46t-167.5 -162q31 -87 65 -153q22 -40 38.5 -55.5t35.5 -15.5q23 0 42 19l3 -2
q-9 -30 -26.5 -46.5t-37.5 -16.5z" />
    <glyph glyph-name="f_f_k.altk" unicode="ff&#xe4ca;" horiz-adv-x="870" 
d="M764 -5q-52 0 -98 87q-33 61 -69 164l145 145q53 53 28 82v2h120v-2q-42 -15 -78.5 -46t-167.5 -162q31 -87 65 -153q22 -40 38.5 -55.5t35.5 -15.5q23 0 42 19l3 -2q-9 -30 -26.5 -46.5t-37.5 -16.5zM4 -165l133 622h-56l4 18h56l15 72q23 109 69 160.5t106 51.5
q18 0 49 -12l7 -85l-4 -1q-21 39 -39 58t-40 19q-28 0 -50.5 -37.5t-44.5 -137.5l-19 -88h170l20 92q45 212 181 212q52 0 78 -30l59 30l-130 -614q-15 -70 -17.5 -101.5t5.5 -61.5v-2h-88v2q5 7 8.5 13.5t7.5 15.5t6.5 14.5t5.5 17t4.5 16.5t5 19.5t4.5 19.5l4.5 22.5
l4.5 22.5l93 442q12 65 -3 109t-64 44q-40 0 -65 -36t-47 -139l-23 -108h99l-4 -18h-99l-132 -622h-50l133 622h-171l-132 -622h-50z" />
    <glyph glyph-name="f_k.altk" unicode="f&#xe4ca;" horiz-adv-x="650" 
d="M54 -165h-50l133 622h-56l4 18h55l20 92q45 212 181 212q52 0 78 -30l59 30l-130 -614q-15 -70 -17.5 -101.5t5.5 -61.5v-2h-88v2q5 7 8.5 13.5t7.5 15.5t6.5 14.5t5.5 17t4.5 16.5t5 19.5t4.5 19.5l4.5 22.5l4.5 22.5l93 442q12 65 -3 109t-64 44q-40 0 -65 -36
t-47 -139l-23 -108h99l-4 -18h-99zM544 -5q-52 0 -98 87q-33 61 -69 164l145 145q53 53 28 82v2h120v-2q-42 -15 -78.5 -46t-167.5 -162q31 -87 65 -153q22 -40 38.5 -55.5t35.5 -15.5q23 0 42 19l3 -2q-9 -30 -26.5 -46.5t-37.5 -16.5z" />
    <glyph glyph-name=".notdef" horiz-adv-x="161" 
 />
    <glyph glyph-name=".null" horiz-adv-x="0" 
 />
    <glyph glyph-name="nonmarkingreturn" horiz-adv-x="333" 
 />
    <glyph glyph-name="space" unicode=" " horiz-adv-x="130" 
 />
    <glyph glyph-name="exclam" unicode="!" horiz-adv-x="200" 
d="M231 732v-2l-136 -536h-14l90 536l1 2h59zM59 -3q-19 0 -33 14t-14 33t14 33t33 14t33 -13.5t14 -33.5t-14 -33.5t-33 -13.5z" />
    <glyph glyph-name="quotedbl" unicode="&#x22;" horiz-adv-x="249" 
d="M119 542h-10l12 190h70zM239 542h-10l12 190h70z" />
    <glyph glyph-name="numbersign" unicode="#" horiz-adv-x="551" 
d="M368 249l47 234h-192l-47 -234h192zM317 0l47 231h-192l-47 -231h-23l47 231h-129v18h133l47 234h-129l1 18h132l47 231h23l-47 -231h192l47 231h23l-47 -231h129l-1 -18h-132l-47 -234h128v-18h-132l-47 -231h-23z" />
    <glyph glyph-name="dollar" unicode="$" horiz-adv-x="438" 
d="M154 -114h-22l21 100q-80 6 -142 45l-7 158l8 2q28 -90 64 -132t82 -51l75 356l-3 4q-36 39 -53.5 60t-35.5 61t-18 81q0 86 55 131.5t131 45.5h6l16 75h22l-17 -77q65 -6 107 -34l7 -146l-9 -2q-37 136 -110 158l-65 -306l11 -11q35 -37 54 -61.5t36.5 -66.5t17.5 -87
q0 -96 -59.5 -150t-150.5 -54zM337 171q0 50 -22 90.5t-63 83.5l-73 -340h11q66 0 106.5 48.5t40.5 117.5zM169 595q0 -45 20.5 -82t58.5 -79l62 292q-2 0 -8 0.5t-8 0.5q-56 0 -90.5 -37t-34.5 -95z" />
    <glyph glyph-name="percent" unicode="%" horiz-adv-x="710" 
d="M366 598q0 -100 -54 -176t-121 -76q-48 0 -77 41t-29 108q0 100 54 176t121 76q49 0 77.5 -40.5t28.5 -108.5zM192 357q55 0 88.5 88.5t33.5 192.5q0 98 -54 98q-37 0 -66 -45t-42.5 -108t-13.5 -128q0 -98 54 -98zM127 1l-16 13l521 729l17 -11zM670 244
q0 -100 -54 -176t-121 -76q-48 0 -77 41t-29 108q0 100 54 176t121 76q49 0 77.5 -40.5t28.5 -108.5zM496 3q55 0 88.5 88.5t33.5 192.5q0 98 -54 98q-37 0 -66 -45t-42.5 -108t-13.5 -128q0 -98 54 -98z" />
    <glyph glyph-name="ampersand" unicode="&#x26;" horiz-adv-x="806" 
d="M755 288q0 -43 -12.5 -85t-40 -82t-68 -70t-101.5 -48t-134 -18q-161 0 -255 80t-94 205q0 98 53.5 153t137.5 59q-29 10 -49 41t-20 77q0 63 43 105t119 42q41 0 77.5 -11t48.5 -20l9 -116l-5 -2q-28 59 -60.5 86t-78.5 27q-54 0 -87 -32.5t-33 -87.5q0 -45 21.5 -72
t54.5 -27q25 0 45 18l-2 -70q-39 24 -79 24q-67 0 -113 -48t-46 -134q0 -117 87.5 -182.5t226.5 -65.5q146 0 238 71t92 186q0 158 -183 158q-134 0 -134 -65q0 -38 50 -38q30 0 70 15l-7 -59q-69 -5 -99.5 21t-30.5 63q0 95 147 107q34 4 98 7q79 5 118.5 35t39.5 94
q0 73 -58 73q-31 0 -79 -16l7 60q147 10 147 -122q0 -70 -46 -116.5t-144 -51.5q60 -8 94.5 -52t34.5 -116z" />
    <glyph glyph-name="quotesingle" unicode="'" horiz-adv-x="129" 
d="M119 542h-10l12 190h70z" />
    <glyph glyph-name="parenleft" unicode="(" horiz-adv-x="275" 
d="M192 -121l-9 -9q-43 47 -75.5 137.5t-32.5 204.5q0 327 279 543l8 -10q-243 -227 -243 -554q0 -102 21 -186t52 -126z" />
    <glyph glyph-name="parenright" unicode=")" horiz-adv-x="275" 
d="M112 746l9 9q43 -47 75.5 -137.5t32.5 -204.5q0 -327 -279 -543l-8 10q243 227 243 554q0 102 -21 186t-52 126z" />
    <glyph glyph-name="asterisk" unicode="*" horiz-adv-x="342" 
d="M316 489l-48 -23l-37 117l-75 -97l-38 38l100 72l-115 41l25 48l99 -74l4 123l53 -9l-39 -117l118 35l7 -53l-124 1z" />
    <glyph glyph-name="plus" unicode="+" horiz-adv-x="532" 
d="M507 298h-210v-210h-22v210h-210v20h210v210h22v-210h210v-20z" />
    <glyph glyph-name="comma" unicode="," horiz-adv-x="209" 
d="M-21 -147l-8 10q42 27 70.5 60t28.5 59t-32 66v2l51 42q36 -27 36 -68q0 -88 -146 -171z" />
    <glyph glyph-name="hyphen" unicode="-" horiz-adv-x="287" 
d="M260 263h-215l8 40h214z" />
    <glyph glyph-name="period" unicode="." horiz-adv-x="209" 
d="M82 -3q-19 0 -33 14t-14 33t14 33t33 14q20 0 33.5 -13.5t13.5 -33.5t-13.5 -33.5t-33.5 -13.5z" />
    <glyph glyph-name="slash" unicode="/" horiz-adv-x="358" 
d="M-110 -130l535 911h27l-535 -911h-27z" />
    <glyph glyph-name="zero" unicode="0" horiz-adv-x="581" 
d="M581 461q0 -124 -48.5 -235t-126.5 -176t-161 -65q-91 0 -145.5 78t-54.5 208q0 124 48.5 235t126.5 176t161 65q91 0 145.5 -78t54.5 -208zM246 5q52 0 97.5 33t77.5 86t55 119t34 133.5t11 128.5q0 113 -38 167.5t-103 54.5q-64 0 -118 -49.5t-87 -126t-51.5 -162
t-18.5 -162.5q0 -113 38 -167.5t103 -54.5z" />
    <glyph glyph-name="one" unicode="1" horiz-adv-x="223" 
d="M227 747l-109 -616q-15 -85 2 -129v-2h-101v2q32 47 46 130l87 494h-71v2q84 40 142 119h4z" />
    <glyph glyph-name="two" unicode="2" horiz-adv-x="426" 
d="M333 0h-363v10q235 200 331 332t96 238q0 77 -32 112t-81 35q-15 0 -29 -3.5t-24 -7t-23 -14.5t-19.5 -17t-19.5 -23t-18.5 -24.5t-20.5 -30t-21 -30.5l-8 2l43 136q71 32 142 32q170 0 170 -168q0 -62 -26 -123t-82 -126.5t-128 -130.5t-178 -148h194q34 0 60.5 13
t40.5 27t41 46l6 -4z" />
    <glyph glyph-name="three" unicode="3" horiz-adv-x="449" 
d="M169 -15q-97 0 -145 37l-10 132l8 2q33 -83 68.5 -117t88.5 -34q88 0 137.5 75t49.5 175q0 171 -136 171q-72 0 -125 -46l-8 10l307 280h-274l27 52h327l-2 -10l-305 -276q25 9 61 9q76 0 129.5 -50.5t53.5 -147.5q0 -66 -26.5 -124t-85.5 -98t-140 -40z" />
    <glyph glyph-name="four" unicode="4" horiz-adv-x="456" 
d="M239 0v2q26 42 42 130l10 58h-291l2 10l408 532h65l-442 -520h262l50 278h51l-50 -278h77l-10 -22h-70l-11 -59q-9 -53 -7.5 -78t13.5 -51v-2h-99z" />
    <glyph glyph-name="five" unicode="5" horiz-adv-x="468" 
d="M170 -15q-98 0 -146 37l-10 132l8 2q33 -83 68.5 -117t90.5 -34q63 0 106.5 38.5t61 94.5t17.5 124q0 186 -147 186q-75 0 -124 -46l-9 6l114 324h303l-18 -52h-281l-85 -241q50 29 114 29q91 0 142 -56t51 -153q0 -113 -66.5 -193.5t-189.5 -80.5z" />
    <glyph glyph-name="six" unicode="6" horiz-adv-x="480" 
d="M216 -15q-82 0 -131.5 63t-49.5 166q0 71 24.5 145t73.5 147t134 137t194 104l4 -10q-112 -51 -193.5 -136t-127.5 -187q61 72 156 72q76 0 121 -52t45 -146q0 -124 -74.5 -213.5t-175.5 -89.5zM218 5q85 0 137.5 85.5t52.5 197.5q0 167 -129 167q-103 0 -156 -97
q-30 -88 -30 -170q0 -90 33.5 -136.5t91.5 -46.5z" />
    <glyph glyph-name="seven" unicode="7" horiz-adv-x="414" 
d="M107 0h-67q132 341 397 680h-333l19 52h364l-1 -10q-259 -358 -379 -722z" />
    <glyph glyph-name="eight" unicode="8" horiz-adv-x="440" 
d="M206 -15q-80 0 -136 48.5t-56 125.5q0 73 48.5 133.5t138.5 84.5q-97 89 -97 187q0 83 53 133t129 50q70 0 112.5 -43.5t42.5 -113.5q0 -65 -38.5 -118.5t-120.5 -81.5q124 -111 124 -216q0 -81 -58 -135t-142 -54zM210 5q68 0 109 42t41 107q0 20 -3.5 38.5t-14.5 37
t-16.5 29t-26.5 30.5t-25.5 25t-32 28t-29.5 25q-154 -56 -154 -203q0 -72 42 -115.5t110 -43.5zM266 404l7 -6q124 57 124 194q0 63 -28 99t-85 36q-60 0 -97 -37.5t-37 -99.5q0 -56 28.5 -95.5t87.5 -90.5z" />
    <glyph glyph-name="nine" unicode="9" horiz-adv-x="480" 
d="M69 -15l-4 10q112 51 193.5 136t127.5 187q-61 -72 -156 -72q-76 0 -121 52t-45 146q0 124 74.5 213.5t175.5 89.5q82 0 131.5 -63t49.5 -166q0 -71 -24.5 -145t-73.5 -147t-134 -137t-194 -104zM253 277q101 0 154 97q30 88 30 170q0 90 -33.5 136.5t-91.5 46.5
q-85 0 -137.5 -83.5t-52.5 -195.5q0 -171 131 -171z" />
    <glyph glyph-name="colon" unicode=":" horiz-adv-x="219" 
d="M138 309q-19 0 -33 14t-14 33t14 33t33 14q20 0 33.5 -13.5t13.5 -33.5t-13.5 -33.5t-33.5 -13.5zM82 -3q-19 0 -33 14t-14 33t14 33t33 14q20 0 33.5 -13.5t13.5 -33.5t-13.5 -33.5t-33.5 -13.5z" />
    <glyph glyph-name="semicolon" unicode=";" horiz-adv-x="219" 
d="M-23 -147l-8 10q42 27 70.5 60t28.5 59t-32 66v2l51 42q36 -27 36 -68q0 -88 -146 -171zM138 309q-19 0 -33 14t-14 33t14 33t33 14q20 0 33.5 -13.5t13.5 -33.5t-13.5 -33.5t-33.5 -13.5z" />
    <glyph glyph-name="less" unicode="&#x3c;" horiz-adv-x="530" 
d="M475 85l-430 208v26l430 208v-25l-409 -196l409 -196v-25z" />
    <glyph glyph-name="equal" unicode="=" horiz-adv-x="532" 
d="M507 379h-442v20h442v-20zM507 237h-442v20h442v-20z" />
    <glyph glyph-name="greater" unicode="&#x3e;" horiz-adv-x="530" 
d="M505 293l-430 -208v25l409 196l-409 196v25l430 -208v-26z" />
    <glyph glyph-name="question" unicode="?" horiz-adv-x="370" 
d="M103 194h-16q16 55 51.5 102.5t74 80.5t75.5 67t61 78t24 96q0 111 -99 111q-51 0 -91.5 -32.5t-93.5 -107.5l-7 3l44 123q73 32 152 32q72 0 113 -33.5t41 -98.5q0 -51 -26.5 -94.5t-68 -78t-85.5 -68t-86.5 -80.5t-62.5 -100zM69 -3q-19 0 -33 14t-14 33t14 33t33 14
t33 -13.5t14 -33.5t-14 -33.5t-33 -13.5z" />
    <glyph glyph-name="at" unicode="@" horiz-adv-x="829" 
d="M408 -161q-164 0 -268.5 98t-104.5 262q0 118 54.5 217t156.5 159.5t230 60.5q151 0 239.5 -81.5t88.5 -226.5q0 -122 -61 -209t-158 -87q-50 0 -77.5 26t-28.5 64.5t9 82.5l7 26q-37 -90 -86.5 -149t-99.5 -59q-36 0 -56.5 27t-20.5 80q0 121 81 221.5t183 100.5
q42 0 71 -17l28 17h4l-65 -244q-13 -49 -14 -81t15.5 -54t55.5 -22q80 0 129 79.5t49 193.5q0 140 -80 216t-216 76q-175 0 -284 -121.5t-109 -295.5q0 -157 91 -248.5t241 -91.5q128 0 214 60l8 -16q-91 -64 -226 -64zM331 62q77 0 173 225l29 113q-19 33 -61 33
q-75 0 -132.5 -95t-57.5 -195q0 -81 49 -81z" />
    <glyph glyph-name="A" unicode="A" horiz-adv-x="465" 
d="M330 296l-31 350l-160 -350h191zM68 2v-2h-122v2q35 28 54 55t47 88l276 594h19l56 -617q4 -49 13 -72t29 -48v-2h-129v2q42 38 34 125l-13 149h-202l-57 -124q-20 -45 -20.5 -87.5t15.5 -62.5z" />
    <glyph glyph-name="B" unicode="B" horiz-adv-x="500" 
d="M196 0h-172v2q26 42 42 130l84 469q14 78 -6 129v2q21 0 68 1.5t85 1.5q57 0 97 -15t60 -40.5t28 -51.5t8 -57q0 -75 -43 -126.5t-118 -64.5q54 -8 93 -49t39 -116q0 -91 -64.5 -153t-200.5 -62zM223 709l-57 -318h95q91 0 133 53.5t42 131.5q0 69 -34.5 104.5
t-111.5 35.5q-55 0 -67 -7zM198 20q97 0 150 50.5t53 150.5q0 69 -31 109.5t-114 40.5h-93l-62 -344q33 -7 97 -7z" />
    <glyph glyph-name="C" unicode="C" horiz-adv-x="598" 
d="M565 199l-40 -146q-29 -24 -88 -46t-129 -22q-126 0 -190.5 84.5t-64.5 230.5q0 117 46 219t130.5 165t187.5 63q56 0 106.5 -18.5t72.5 -34.5l11 -139l-8 -2q-36 92 -84 133t-112 41q-88 0 -155 -66t-99 -165.5t-32 -214.5q0 -121 50.5 -198.5t142.5 -77.5
q75 0 132 49.5t113 146.5z" />
    <glyph glyph-name="D" unicode="D" horiz-adv-x="583" 
d="M24 0v2q26 42 42 130l84 469q14 78 -6 129v2q55 0 88.5 1.5t84.5 1.5q259 0 259 -291q0 -188 -108.5 -316t-280.5 -128h-163zM301 716h-77l-126 -699l86 2q83 2 147.5 40.5t103 101.5t58 137.5t19.5 155.5q0 262 -211 262z" />
    <glyph glyph-name="E" unicode="E" horiz-adv-x="496" 
d="M460 162l-60 -162h-376v2q25 39 42 130l84 469q14 78 -6 129v2h326l11 -145l-8 -2q-33 70 -56 96t-61 27l-132 4l-60 -334h97q8 0 15 2.5t14.5 8t13 10.5t13 15t12 15.5t12.5 17t11 16.5h8l-29 -185h-8q-12 31 -17.5 43.5t-18 24.5t-29.5 12h-98l-61 -340l162 5
q14 0 26 2t24 7t20 8t20 13.5t17.5 15t19.5 20t19 21.5t22 26.5t23 28.5z" />
    <glyph glyph-name="F" unicode="F" horiz-adv-x="446" 
d="M125 2v-2h-101v2q26 42 42 130l84 469q14 78 -6 129v2h336l11 -145l-8 -2q-33 70 -56 96t-61 27l-144 4l-58 -324h104q8 0 15 2.5t14.5 8t13 10.5t13 15t12 15.5t12.5 17t11 16.5h8l-29 -185h-8q-22 56 -34.5 68t-30.5 12h-105l-42 -237q-14 -81 7 -129z" />
    <glyph glyph-name="G" unicode="G" horiz-adv-x="616" 
d="M594 322q-26 -42 -42 -130l-19 -105q-4 -3 -26.5 -22.5t-36.5 -29t-40 -23.5t-56 -20.5t-66 -6.5q-124 0 -189.5 85t-65.5 231q0 116 45.5 218t130 165t188.5 63q56 0 106.5 -18.5t72.5 -34.5l11 -139l-8 -2q-36 92 -84 133t-112 41q-88 0 -155 -66t-99 -165.5
t-32 -213.5q0 -126 46 -201.5t149 -75.5q163 0 190 208q9 63 -9 109v2h101v-2z" />
    <glyph glyph-name="H" unicode="H" horiz-adv-x="583" 
d="M24 0v2q26 42 42 130l84 469q14 78 -6 129v2h101v-2q-26 -42 -42 -130l-38 -212h307l38 213q14 78 -6 129v2h101v-2q-26 -42 -42 -130l-84 -469q-14 -78 6 -129v-2h-101v2q26 42 42 130l42 236h-307l-42 -237q-14 -78 6 -129v-2h-101z" />
    <glyph glyph-name="I" unicode="I" horiz-adv-x="224" 
d="M125 0h-101v2q26 42 42 130l84 469q14 78 -6 129v2h101v-2q-26 -42 -42 -130l-84 -469q-14 -78 6 -129v-2z" />
    <glyph glyph-name="J" unicode="J" horiz-adv-x="312" 
d="M211 123q-25 -138 -124 -138q-42 0 -79 23l9 125l8 2q20 -69 35.5 -99.5t37.5 -30.5q39 0 55 88l91 508q14 78 -6 129v2h101v-2q-26 -42 -42 -130z" />
    <glyph glyph-name="K" unicode="K" horiz-adv-x="498" 
d="M24 0v2q26 42 42 130l84 469q14 78 -6 129v2h101v-2q-26 -42 -42 -130l-84 -469q-14 -78 6 -129v-2h-101zM467 0h-90l-200 361l213 248q20 24 29.5 36.5t17.5 28t6.5 28.5t-9.5 28v2h126v-2q-45 -25 -74.5 -50.5t-65.5 -68.5l-198 -228l160 -287q20 -38 37 -57t48 -37v-2
z" />
    <glyph glyph-name="L" unicode="L" horiz-adv-x="475" 
d="M381 0h-357v2q26 42 42 130l84 469q14 78 -6 129v2h101v-2q-26 -42 -42 -130l-104 -585l161 9q38 2 72 23t53.5 43t60.5 75l5 -3z" />
    <glyph glyph-name="M" unicode="M" horiz-adv-x="704" 
d="M108 0h-102v2q32 45 43.5 76.5t22.5 89.5l72 403q12 57 9 89t-31 70v2h93l110 -632l335 632h94v-2q-28 -24 -42.5 -47.5t-19 -41.5t-14.5 -73l-78 -437q-14 -78 6 -129v-2h-101v2q26 42 42 130l92 515l-332 -626h-20l-109 620l-84 -473q-11 -52 -9 -86.5t23 -79.5v-2z
" />
    <glyph glyph-name="N" unicode="N" horiz-adv-x="597" 
d="M456 -3l-276 650l-87 -483q-11 -51 -9 -84t23 -78v-2h-101v2q32 45 43 75t22 87l73 404v-1q12 58 9.5 92t-30.5 71v2h80l267 -630l84 466q11 51 9 84t-23 78v2h101v-2q-32 -46 -43.5 -76.5t-21.5 -85.5l-102 -568z" />
    <glyph glyph-name="O" unicode="O" horiz-adv-x="662" 
d="M655 437q0 -118 -49.5 -222.5t-133 -167t-178.5 -62.5q-106 0 -173.5 87.5t-67.5 222.5q0 118 49.5 222.5t133 167t178.5 62.5q106 0 173.5 -87.5t67.5 -222.5zM117 276q0 -122 47 -196.5t137 -74.5q88 0 155.5 65t101 166.5t33.5 219.5q0 122 -47 196.5t-137 74.5
q-88 0 -155.5 -65t-101 -166.5t-33.5 -219.5z" />
    <glyph glyph-name="P" unicode="P" horiz-adv-x="476" 
d="M24 0v2q26 42 42 130l84 469q14 78 -6 129v2h160q57 0 97 -14t61 -39.5t29.5 -55t8.5 -66.5q0 -116 -75 -186.5t-193 -70.5h-83l-30 -169q-14 -78 6 -129v-2h-101zM305 712q-46 0 -82 -2l-70 -390h87q55 0 95 21t61.5 57t31.5 76.5t10 87.5q0 78 -28 114t-105 36z" />
    <glyph glyph-name="Q" unicode="Q" horiz-adv-x="662" 
d="M655 437q0 -116 -47.5 -218.5t-128 -165.5t-173.5 -67q68 -75 178 -75q57 0 91 19l-19 -58q-31 -19 -80 -19q-64 0 -116 34.5t-82 98.5q-100 7 -162.5 93t-62.5 216q0 118 49.5 222.5t133 167t178.5 62.5q106 0 173.5 -87.5t67.5 -222.5zM117 276q0 -122 47 -196.5
t137 -74.5q88 0 155.5 65t101 166.5t33.5 219.5q0 122 -47 196.5t-137 74.5q-88 0 -155.5 -65t-101 -166.5t-33.5 -219.5z" />
    <glyph glyph-name="R" unicode="R" horiz-adv-x="494" 
d="M293 711q-49 0 -70 -1l-61 -337h94q83 0 124.5 58t41.5 144q0 71 -31.5 103.5t-97.5 32.5zM24 0v2q26 42 42 130l84 469q14 78 -6 129v2h158q182 0 182 -159q0 -83 -49 -140t-116 -72l68 -257q12 -47 28 -68t47 -34v-2h-104l-92 353h-107l-40 -222q-14 -78 6 -129v-2
h-101z" />
    <glyph glyph-name="S" unicode="S" horiz-adv-x="438" 
d="M443 711l7 -146l-9 -2q-24 93 -61 128.5t-86 35.5q-56 0 -90.5 -37t-34.5 -95q0 -29 7.5 -54t27.5 -52t32 -40.5t41 -44.5q35 -37 54 -61.5t36.5 -66.5t17.5 -87q0 -96 -59.5 -150t-150.5 -54q-89 0 -164 46l-7 158l8 2q32 -104 76 -145t102 -41q66 0 106.5 48.5
t40.5 117.5q0 40 -17.5 78.5t-35.5 60t-54 58.5q-36 39 -53.5 60t-35.5 61t-18 81q0 86 55 131.5t131 45.5q79 0 134 -36z" />
    <glyph glyph-name="T" unicode="T" horiz-adv-x="556" 
d="M286 0h-101v2q26 42 42 130l104 582l-93 -4q-42 -1 -70.5 -29t-93.5 -128l-8 4l60 175h470v-177l-8 -2q-28 93 -46.5 123.5t-47.5 32.5l-110 4l-104 -582q-14 -78 6 -129v-2z" />
    <glyph glyph-name="U" unicode="U" horiz-adv-x="542" 
d="M252 -15q-42 0 -78.5 14t-65 41.5t-40 75.5t-0.5 110l68 375q14 78 -6 129v2h101v-2q-26 -42 -42 -130l-67 -371q-20 -111 21 -166.5t116 -55.5q54 0 93.5 30t57.5 69.5t28 90.5l70 371q11 52 9 84.5t-23 77.5v2h102v-2q-32 -45 -43 -75t-22 -87l-70 -371q-8 -42 -22 -77
t-38 -67t-62 -50t-87 -18z" />
    <glyph glyph-name="V" unicode="V" horiz-adv-x="461" 
d="M176 -8h-20l-34 584q-4 66 -11.5 97t-22.5 57v2h116v-2q-36 -53 -30 -155l27 -485l231 487q46 96 15 153v2h107v-2q-29 -22 -44.5 -47t-51.5 -100z" />
    <glyph glyph-name="W" unicode="W" horiz-adv-x="730" 
d="M173 -8h-20l-33 584q-3 67 -10.5 98t-21.5 56v2h113v-2q-35 -52 -29 -155l26 -476l213 476v1q-5 104 -34 154v2h116v-2q-36 -53 -30 -155l26 -477l212 479q44 100 15 153v2h107v-2q-30 -23 -47 -49t-49 -98l-263 -591h-20l-30 536z" />
    <glyph glyph-name="X" unicode="X" horiz-adv-x="494" 
d="M107 2v-2h-119v2q31 25 50 49.5t57 82.5l151 232l-73 236q-19 60 -30.5 85.5t-32.5 42.5v2h127v-2q-33 -41 -8 -121l63 -203l109 173q62 98 26 151v2h119v-2q-32 -25 -52 -50.5t-55 -81.5l-139 -217l77 -251q29 -96 68 -128v-2h-130v2q31 39 6 121l-67 218l-121 -188
q-62 -98 -26 -151z" />
    <glyph glyph-name="Y" unicode="Y" horiz-adv-x="466" 
d="M128 0v2q26 39 38 68.5t21 79.5l34 188l-66 266q-23 92 -58 126v2h123v-2q-30 -35 -10 -119l58 -249l138 228q52 86 15 140v2h114v-2q-59 -63 -96 -124l-166 -273l-32 -183q-9 -51 -7.5 -80t15.5 -68l-1 -2h-120z" />
    <glyph glyph-name="Z" unicode="Z" horiz-adv-x="476" 
d="M372 0h-389v11l483 703l-160 -5q-62 -2 -91.5 -25.5t-90.5 -108.5l-9 -12l-8 3l61 166h364v-11l-482 -705l179 8q68 4 104 35t101 132l8 -3z" />
    <glyph glyph-name="bracketleft" unicode="[" horiz-adv-x="295" 
d="M25 -130l173 885h184l-4 -18h-144l-165 -849h145l-5 -18h-184z" />
    <glyph glyph-name="backslash" unicode="\" horiz-adv-x="358" 
d="M64 781h24l286 -911h-24z" />
    <glyph glyph-name="bracketright" unicode="]" horiz-adv-x="295" 
d="M294 755l-173 -885h-184l4 18h144l165 849h-145l5 18h184z" />
    <glyph glyph-name="asciicircum" unicode="^" horiz-adv-x="412" 
d="M403 484l-123 176l-191 -176l-9 8l209 253h6l117 -253z" />
    <glyph glyph-name="underscore" unicode="_" horiz-adv-x="490" 
d="M420 -100h-430l3 18h430z" />
    <glyph glyph-name="grave" unicode="`" horiz-adv-x="298" 
d="M305 539l-8 -6l-146 178l55 38z" />
    <glyph glyph-name="a" unicode="a" horiz-adv-x="437" 
d="M130 29q29 0 59 24t57 68.5t46 82t41 88.5l37 140q-23 35 -72 35q-59 0 -112 -54.5t-82 -133t-29 -153.5q0 -97 55 -97zM254 -9l58 211q-98 -217 -208 -217q-39 0 -61.5 32t-22.5 94q0 93 42.5 181t114.5 143t150 55q46 0 79 -18l24 18h4l-100 -382q-13 -39 -9.5 -61
t34.5 -36v-1z" />
    <glyph glyph-name="b" unicode="b" horiz-adv-x="446" 
d="M172 -15q-67 0 -107.5 48.5t-18.5 150.5l95 441q10 49 6 72.5t-24 46.5v2l100 33l-105 -482q83 193 202 193q106 0 106 -149q0 -140 -75 -248t-179 -108zM178 3q56 0 101 54t67 129.5t22 151.5q0 118 -70 118q-43 0 -93.5 -52.5t-100.5 -177.5l-11 -51q-19 -90 8.5 -131
t76.5 -41z" />
    <glyph glyph-name="c" unicode="c" horiz-adv-x="374" 
d="M319 136l10 -4q-22 -68 -64.5 -107.5t-101.5 -39.5q-68 0 -105.5 51.5t-37.5 134.5q0 123 75 221t176 98q51 0 87 -26l8 -98l-10 -2q-23 51 -46.5 79.5t-57.5 28.5q-60 0 -117 -77t-57 -202q0 -165 110 -165q78 0 131 108z" />
    <glyph glyph-name="d" unicode="d" horiz-adv-x="447" 
d="M135 29q30 0 59.5 23t56.5 66t45.5 79t41.5 87l26 122q-3 22 -26.5 41.5t-65.5 19.5q-51 0 -97 -54.5t-71.5 -133.5t-25.5 -155q0 -95 57 -95zM271 -9l58 232q-46 -106 -102 -172t-118 -66q-89 0 -89 129q0 91 39 178.5t105 142.5t137 55q45 0 78 -14l32 149
q10 49 6 72.5t-24 46.5v2l100 33l-144 -671q-12 -39 -8.5 -61t33.5 -36v-1z" />
    <glyph glyph-name="e" unicode="e" horiz-adv-x="364" 
d="M276 472q-52 0 -100 -44t-75 -116q225 21 225 112q0 48 -50 48zM310 105q-26 -54 -68 -87t-92 -33q-60 0 -95 47t-35 125q0 126 80.5 229.5t185.5 103.5q39 0 63.5 -17t24.5 -50q0 -55 -66 -89.5t-211 -33.5q-19 -59 -19 -124q0 -151 97 -151q67 0 125 85z" />
    <glyph glyph-name="f" unicode="f" horiz-adv-x="257" 
d="M4 -165l133 622h-56l4 18h55l20 92q23 109 69 160.5t105 51.5q28 0 60 -17l7 -91l-4 -1q-27 46 -46.5 67t-43.5 21q-27 0 -49.5 -37.5t-44.5 -137.5l-23 -108h99l-4 -18h-99l-132 -622h-50z" />
    <glyph glyph-name="g" unicode="g" horiz-adv-x="393" 
d="M102 268q0 -50 14 -74.5t48 -24.5q54 0 92 57t38 147q0 51 -14 75t-48 24q-54 0 -92 -57.5t-38 -146.5zM327 -71q0 -61 -59.5 -107.5t-156.5 -46.5q-75 0 -123.5 29t-48.5 80t47 84.5t113 42.5q-43 22 -43 67q0 31 17.5 52t44.5 30q-34 14 -53 48t-19 74q0 78 60.5 143
t125.5 65q33 0 60 -16l140 24h1l-13 -59h-4l-108 23q42 -38 42 -103q0 -78 -60.5 -143t-125.5 -65q-18 0 -30 4q-44 -15 -44 -52q0 -52 104 -70q26 -5 43.5 -10.5t41 -16.5t36 -30.5t12.5 -46.5zM125 -200q76 0 121.5 32t45.5 78q0 17 -8.5 30t-17 20t-29.5 14t-29 8.5
t-33 6.5q-46 9 -63 16q-60 -11 -91.5 -41t-31.5 -71q0 -42 33.5 -67.5t102.5 -25.5z" />
    <glyph glyph-name="h" unicode="h" horiz-adv-x="462" 
d="M288 -9l78 367q9 40 -0.5 66.5t-38.5 26.5q-42 0 -100 -70t-123 -217l-8 -41q-15 -79 -3 -121v-2h-88v2q5 7 8.5 13.5t7.5 15.5t6.5 14.5t5.5 17t4.5 16.5t5 19.5t4.5 19.5l4.5 22.5l4.5 22.5l99 462q10 49 6 72.5t-24 46.5v2l100 33l-121 -551q51 118 113.5 190
t123.5 72q42 0 58.5 -36t2.5 -99l-51 -240q-14 -56 -6.5 -79.5t46.5 -27.5v-2z" />
    <glyph glyph-name="i" unicode="i" 
d="M216 659q0 -17 -12 -29t-29 -12t-29 12t-12 29t12 29t29 12t29 -12t12 -29zM7 0v2q28 40 51 161l35 178q15 75 -18 119v2l96 33l-73 -372q-15 -79 -3 -121v-2h-88z" />
    <glyph glyph-name="j" unicode="j" horiz-adv-x="182" 
d="M211 659q0 -17 -12 -29t-29 -12t-29 12t-12 29t12 29t29 12t29 -12t12 -29zM-60 -210q44 33 63 128l85 423q15 75 -18 119v2l96 33l-108 -547q-13 -69 -44.5 -112t-71.5 -51z" />
    <glyph glyph-name="k" unicode="k" horiz-adv-x="392" 
d="M93 0h-88v2q5 7 8.5 13.5t7.5 15.5t6.5 14.5t5.5 17t4.5 16.5t5 19.5t4.5 19.5l4.5 22.5l4.5 22.5l99 462q10 49 6 72.5t-24 46.5v2l100 33l-132 -614q-15 -70 -17.5 -101.5t5.5 -61.5v-2zM270 0l-131 248l142 143q52 54 28 82v2h120v-2q-40 -14 -63 -31t-73 -67
l-107 -106l95 -177q21 -40 37 -58.5t42 -31.5v-2h-90z" />
    <glyph glyph-name="l" unicode="l" 
d="M93 0h-88v2q5 7 8.5 13.5t7.5 15.5t6.5 14.5t5.5 17t4.5 16.5t5 19.5t4.5 19.5l4.5 22.5l4.5 22.5l99 462q10 49 6 72.5t-24 46.5v2l100 33l-132 -614q-15 -70 -17.5 -101.5t5.5 -61.5v-2z" />
    <glyph glyph-name="m" unicode="m" horiz-adv-x="689" 
d="M513 -9l81 367q10 37 0.5 65t-36.5 28q-41 0 -93.5 -70t-112.5 -218l-9 -40q-16 -76 -3 -121v-2h-87v2q8 12 14 23.5t11 29.5l7.5 27t8.5 36.5t8 38.5l45 201q10 39 1 66t-35 27q-40 0 -92 -69.5t-110 -214.5l-10 -44q-16 -76 -3 -121v-2h-88v2q5 7 8.5 13.5t7.5 15.5
t6.5 14.5t5.5 17t4.5 16.5t5 19.5t4.5 19.5l4.5 22.5l4.5 22.5l38 178q16 74 -18 119v2l100 33l-54 -244q45 109 99.5 174t110.5 65q39 0 54.5 -35.5t0.5 -99.5l-26 -116q47 115 102.5 183t113.5 68q41 0 57.5 -36t2.5 -99l-54 -240q-14 -56 -6.5 -79.5t46.5 -27.5v-2z" />
    <glyph glyph-name="n" unicode="n" horiz-adv-x="466" 
d="M290 -9l81 367q9 40 -0.5 66.5t-38.5 26.5q-42 0 -99.5 -70t-121.5 -214l-10 -44q-16 -76 -3 -121v-2h-88v2q5 7 8.5 13.5t7.5 15.5t6.5 14.5t5.5 17t4.5 16.5t5 19.5t4.5 19.5l4.5 22.5l4.5 22.5l38 178q16 74 -18 119v2l100 33l-58 -262q51 116 113 186.5t122 70.5
q42 0 58.5 -36t2.5 -99l-54 -240q-14 -56 -6.5 -79.5t46.5 -27.5v-2z" />
    <glyph glyph-name="o" unicode="o" horiz-adv-x="410" 
d="M390 316q0 -81 -32.5 -158t-87.5 -125t-114 -48q-61 0 -98.5 46.5t-37.5 127.5t32.5 158t87.5 125t114 48q61 0 98.5 -46.5t37.5 -127.5zM78 151q0 -148 82 -148q68 0 120 91t52 230q0 148 -82 148q-68 0 -120 -91t-52 -230z" />
    <glyph glyph-name="p" unicode="p" horiz-adv-x="447" 
d="M43 -225h-88v2q5 7 8.5 13.5t7.5 15.5t6.5 14.5t5.5 17t4.5 16.5t5 19.5t4.5 19.5l4.5 22.5l4.5 22.5l83 403q15 75 -18 119v2l100 33l-46 -207q80 202 196 202q106 0 106 -154q0 -140 -71.5 -245.5t-176.5 -105.5q-71 0 -104 55l-21 -100q-25 -117 -11 -163v-2zM183 3
q57 0 101 54t64.5 127.5t20.5 148.5q0 123 -70 123q-96 0 -184 -233l-10 -47q-18 -93 7 -133t71 -40z" />
    <glyph glyph-name="q" unicode="q" horiz-adv-x="444" 
d="M214 -225v2q14 19 24 47t14.5 46.5t14.5 67.5l64 302q-45 -118 -103.5 -186.5t-115.5 -68.5q-44 0 -68 33.5t-24 96.5q0 91 41 178t110.5 142t147.5 55q53 0 86 -23l28 24h2l-118 -552q-15 -70 -17.5 -100.5t4.5 -61.5v-2h-90zM137 29q98 0 213 298l11 52q9 41 -9.5 64.5
t-58.5 23.5q-57 0 -108 -54.5t-79 -133t-28 -153.5q0 -97 59 -97z" />
    <glyph glyph-name="r" unicode="r" horiz-adv-x="298" 
d="M10 0v2q5 7 8.5 13.5t7.5 15.5t6.5 14.5t5.5 17t4.5 16.5t5 19.5t4.5 19.5l4.5 22.5l4.5 22.5l38 178q16 74 -18 119v2l100 33l-53 -242q47 119 97.5 178t112.5 59l-31 -75h-2q-8 5 -21 5q-43 0 -80.5 -54.5t-92.5 -197.5l-10 -45q-16 -76 -3 -121v-2h-88z" />
    <glyph glyph-name="s" unicode="s" horiz-adv-x="313" 
d="M290 470l3 -95l-8 -2q-44 99 -104 99q-31 0 -49.5 -22t-18.5 -55q0 -28 15.5 -54t37.5 -48t44 -46t37.5 -57t15.5 -71q0 -63 -38.5 -98.5t-97.5 -35.5q-72 0 -116 38l-3 113l8 2q23 -66 55 -100.5t69 -34.5q35 0 59 26t24 67q0 30 -15 57.5t-37 49.5t-44 45t-37 54
t-15 66q0 59 36.5 90.5t90.5 31.5q52 0 88 -20z" />
    <glyph glyph-name="t" unicode="t" horiz-adv-x="264" 
d="M89 -15q-27 0 -42 22.5t-5 70.5l82 379h-55v2l121 90h2l-16 -74h118l-4 -18h-118l-81 -377q-12 -54 22 -54q22 0 47.5 25t44.5 53l9 -6q-61 -113 -125 -113z" />
    <glyph glyph-name="u" unicode="u" horiz-adv-x="444" 
d="M260 -9l57 213q-44 -97 -99 -158t-111 -61q-44 0 -66.5 36t-4.5 106l66 253q20 73 -32 93v2h103l-89 -349q-13 -48 -0.5 -72.5t42.5 -24.5q53 0 112.5 79t108.5 210l16 61q20 74 -31 94v2h105l-96 -367q-13 -39 -9.5 -61t34.5 -36v-1z" />
    <glyph glyph-name="v" unicode="v" horiz-adv-x="351" 
d="M105 -5h-10l-12 358q-2 54 -9.5 76t-33.5 44v2h89l12 -384l133 223q27 45 37 72.5t4.5 49t-30.5 37.5v2h106v-2z" />
    <glyph glyph-name="w" unicode="w" horiz-adv-x="526" 
d="M105 -5h-10l-12 358q-2 54 -9.5 76t-33.5 44v2h90l12 -380l138 235v23q-1 54 -9 75.5t-34 44.5v2h90l5 -378l122 217q26 45 35.5 72.5t4 49t-30.5 37.5v2h103v-2l-271 -478h-10l-4 298z" />
    <glyph glyph-name="x" unicode="x" horiz-adv-x="399" 
d="M89 2v-2h-114v2q35 24 56.5 46t48.5 59l98 133l-49 134q-27 76 -58 99v2h116v-2q-12 -8 -15.5 -28.5t8.5 -63.5l40 -109l67 87q32 40 37 71.5t-14 42.5v2h114v-2q-51 -34 -105 -105l-92 -117l55 -150q27 -76 58 -99v-2h-116v2q12 8 15.5 28.5t-8.5 63.5l-45 125l-75 -103
q-62 -85 -22 -114z" />
    <glyph glyph-name="y" unicode="y" horiz-adv-x="362" 
d="M-103 -225l14 68q60 1 105 30t100 127l-30 353q-5 63 -11.5 81.5t-31.5 38.5v2h85l32 -394l121 233q25 48 34 73.5t4 47.5t-29 38v2h102v-2l-254 -473q-37 -70 -70 -116t-64 -67.5t-53.5 -29.5t-53.5 -12z" />
    <glyph glyph-name="z" unicode="z" horiz-adv-x="370" 
d="M283 0h-298v7l329 451l-94 -3q-39 -1 -71.5 -20t-79.5 -64l-4 2l49 102h266v-9l-329 -451l130 4q45 1 77.5 22t82.5 70l4 -2z" />
    <glyph glyph-name="braceleft" unicode="{" horiz-adv-x="280" 
d="M193 -130h-35q-58 0 -88.5 25.5t-30.5 68.5q0 39 25.5 84.5t51 92t25.5 89.5q0 73 -90 73h-12l4 19h12q105 0 123 92q7 38 -4.5 112.5t-3.5 112.5q10 54 51.5 85t109.5 31h35l-3 -18h-35q-41 0 -72.5 -24.5t-41.5 -76.5q-8 -36 -3.5 -111t-2.5 -110q-17 -89 -114 -103
l-1 -3q78 -10 78 -79q0 -40 -42.5 -129.5t-42.5 -136.5q0 -40 21.5 -58t54.5 -18h35z" />
    <glyph glyph-name="bar" unicode="|" horiz-adv-x="203" 
d="M138 -130h-23v911h23v-911z" />
    <glyph glyph-name="braceright" unicode="}" horiz-adv-x="280" 
d="M114 755h35q58 0 88.5 -25.5t30.5 -68.5q0 -39 -25.5 -84.5t-51 -92t-25.5 -89.5q0 -73 90 -73h12l-4 -19h-12q-105 0 -123 -92q-7 -38 4.5 -112.5t3.5 -112.5q-10 -54 -51.5 -85t-109.5 -31h-35l3 18h35q41 0 72.5 24.5t41.5 76.5q8 36 3.5 111t2.5 110q17 89 114 103
l1 3q-78 10 -78 79q0 41 42.5 130t42.5 136q0 40 -21.5 58t-54.5 18h-35z" />
    <glyph glyph-name="asciitilde" unicode="~" horiz-adv-x="452" 
d="M144 328q23 0 96 -29t109 -29q29 0 44.5 14.5t23.5 46.5l8 -2q-1 -17 -5.5 -32.5t-14 -33.5t-29 -28.5t-45.5 -10.5q-31 0 -106 29t-100 29q-55 0 -69 -63l-9 2q3 39 26 73t71 34z" />
    <glyph glyph-name="uni00A0" unicode="&#xa0;" horiz-adv-x="130" 
 />
    <glyph glyph-name="exclamdown" unicode="&#xa1;" horiz-adv-x="200" 
d="M-28 -245v2l136 536h14l-90 -536l-1 -2h-59zM144 490q19 0 33 -14t14 -33t-14 -33t-33 -14q-20 0 -33.5 14t-13.5 33t13.5 33t33.5 14z" />
    <glyph glyph-name="cent" unicode="&#xa2;" horiz-adv-x="374" 
d="M142 -114h-22l21 101q-58 8 -89.5 58t-31.5 126q0 115 67 209.5t160 107.5l15 69h22l-14 -67h1q51 0 87 -26l8 -98l-10 -2q-21 46 -41.5 73.5t-48.5 32.5l-94 -441q5 -1 16 -1q78 0 131 108l10 -4q-22 -68 -64.5 -107.5t-101.5 -39.5zM78 193q0 -134 73 -160l93 438
q-60 -6 -113 -82t-53 -196z" />
    <glyph glyph-name="sterling" unicode="&#xa3;" horiz-adv-x="506" 
d="M486 162l-72 -162h-439v8q50 35 75.5 60.5t47 71.5t37.5 121l21 97h-81l4 18h81l20 96q29 135 83 205t127 70q28 0 57.5 -9.5t41.5 -21.5l10 -129l-9 -2q-58 142 -112 142q-20 0 -40.5 -17t-47.5 -73t-49 -147l-29 -114h127l-3 -18h-128l-18 -71q-26 -102 -65 -162.5
t-76 -79.5h264q61 0 92.5 23.5t73.5 96.5z" />
    <glyph glyph-name="yen" unicode="&#xa5;" horiz-adv-x="464" 
d="M127 0v2q26 39 38 68.5t21 79.5l7 41h-160l3 18h160l21 113l-1 1h-160l4 18h152l-58 263q-20 89 -58 126v2h123v-2q-28 -33 -10 -119l54 -267l142 246q51 88 15 140v2h114v-2q-25 -26 -34 -36.5t-27.5 -34.5t-34.5 -53l-155 -265h151l-4 -18h-157l-5 -8l-18 -106h160
l-3 -18h-160l-7 -41q-9 -51 -7.5 -80t15.5 -68l-1 -2h-120z" />
    <glyph glyph-name="brokenbar" unicode="&#xa6;" horiz-adv-x="203" 
d="M138 365h-23v416h23v-416zM138 -130h-23v415h23v-415z" />
    <glyph glyph-name="section" unicode="&#xa7;" horiz-adv-x="468" 
d="M213 177q36 -29 56 -50q45 9 72.5 42t27.5 80q0 25 -7 45.5t-26.5 41.5t-28.5 28.5t-39 30.5q-7 5 -10 8q-39 30 -60 53q-43 -11 -70 -44.5t-27 -78.5q0 -32 17 -61.5t34 -45t52 -42.5q6 -5 9 -7zM149 -164q-37 0 -71 9t-46 18l-12 122l7 1q24 -74 58.5 -102t78.5 -28
q55 0 86 34t31 88q0 38 -18.5 71.5t-36.5 50t-55 46.5q-36 28 -55 46t-37 52t-18 73q0 61 35 100t90 53q-38 48 -38 110q0 79 53 123t126 44q34 0 67 -9t45 -18l9 -112l-7 -1q-40 120 -128 120q-53 0 -86 -36t-33 -93q0 -29 8 -52.5t26.5 -45.5t32.5 -34.5t41 -33.5
q35 -28 53.5 -45t36.5 -50.5t18 -72.5q0 -61 -35.5 -99.5t-91.5 -52.5q40 -48 40 -113q0 -77 -48 -120t-126 -43z" />
    <glyph glyph-name="dieresis" unicode="&#xa8;" horiz-adv-x="428" 
d="M249 659q0 -17 -12 -29t-29 -12t-29 12t-12 29t12 29t29 12t29 -12t12 -29zM421 659q0 -17 -12 -29t-29 -12t-29 12t-12 29t12 29t29 12t29 -12t12 -29z" />
    <glyph glyph-name="copyright" unicode="&#xa9;" horiz-adv-x="848" 
d="M55 367q0 159 111.5 269.5t269.5 110.5q159 0 270.5 -110.5t111.5 -269.5q0 -160 -112 -270.5t-270 -110.5t-269.5 110.5t-111.5 270.5zM80 367q0 -150 104 -255.5t252 -105.5t252 105.5t104 255.5t-104 255t-252 105t-252 -105t-104 -255zM579 199q-59 -42 -143 -42
q-91 0 -143.5 60t-52.5 151q0 89 56.5 148.5t149.5 59.5q67 0 131 -27l11 -91l-5 -2q-28 51 -62 77t-82 26q-71 0 -110 -53.5t-39 -137.5q0 -87 37.5 -140.5t108.5 -53.5q100 0 148 125l6 -2z" />
    <glyph glyph-name="ordfeminine" unicode="&#xaa;" horiz-adv-x="358" 
d="M164 391q66 0 151 201l29 111q-16 26 -52 26q-45 0 -85.5 -43t-62.5 -103.5t-22 -117.5q0 -74 42 -74zM254 355l44 163q-76 -168 -160 -168q-31 0 -49.5 26.5t-18.5 76.5q0 110 73 202t169 92q40 0 65 -14l22 14h4l-77 -294q-11 -34 -8 -52.5t29 -29.5v-1z" />
    <glyph glyph-name="guillemotleft" unicode="&#xab;" horiz-adv-x="357" 
d="M291 58l-9 -6l-101 175l5 20l175 175l6 -6l-129 -182zM151 58l-9 -6l-101 175l5 20l175 175l6 -6l-129 -182z" />
    <glyph glyph-name="registered" unicode="&#xae;" horiz-adv-x="490" 
d="M50 541q0 86 62 146t150 60q87 0 147.5 -59.5t60.5 -146.5q0 -86 -62 -145.5t-149 -59.5q-88 0 -148.5 59t-60.5 146zM73 541q0 -78 54.5 -132t132.5 -54t132.5 54t54.5 132q0 79 -54.5 133t-132.5 54q-79 0 -133 -54t-54 -133zM186 432v2q12 14 12 35v146q0 20 -12 36v2
h81q71 0 71 -57q0 -42 -44 -56l39 -71q10 -18 16 -25t16 -10v-2h-44l-54 99h-39v-62q0 -21 12 -35v-2h-54zM259 635h-31v-84h33q46 0 46 45q0 39 -48 39z" />
    <glyph glyph-name="macron" unicode="&#xaf;" horiz-adv-x="427" 
d="M168 610l7 35h241l-8 -35h-240z" />
    <glyph glyph-name="degree" unicode="&#xb0;" horiz-adv-x="355" 
d="M70 615q0 55 39.5 93.5t95.5 38.5t93 -38.5t37 -93.5t-39.5 -94t-94.5 -39q-56 0 -93.5 38.5t-37.5 94.5zM96 615q0 -48 30 -79.5t77 -31.5q46 0 76 31.5t30 79.5q0 47 -30 78.5t-76 31.5q-47 0 -77 -31.5t-30 -78.5z" />
    <glyph glyph-name="acute" unicode="&#xb4;" horiz-adv-x="427" 
d="M201 539l158 210l42 -44l-195 -172z" />
    <glyph glyph-name="paragraph" unicode="&#xb6;" horiz-adv-x="460" 
d="M238 0h-58v1q25 54 37 122l48 272h-30q-78 0 -123 40t-45 115q0 88 59.5 135t144.5 47h96v-1q-25 -54 -37 -122l-85 -486q-13 -71 -7 -122v-1zM333 0h-58v1q25 54 37 122l85 486q13 71 7 122v1h58v-1q-25 -54 -37 -122l-85 -486q-13 -71 -7 -122v-1z" />
    <glyph glyph-name="periodcentered" unicode="&#xb7;" horiz-adv-x="174" 
d="M93 227q-19 0 -33 14t-14 33t14 33t33 14t33 -13.5t14 -33.5t-14 -33.5t-33 -13.5z" />
    <glyph glyph-name="cedilla" unicode="&#xb8;" horiz-adv-x="427" 
d="M70 -255v8q56 13 89.5 39.5t33.5 60.5q0 50 -72 56v2l72 91h27l-49 -60q65 -17 65 -73q0 -50 -46.5 -82.5t-119.5 -41.5z" />
    <glyph glyph-name="ordmasculine" unicode="&#xba;" horiz-adv-x="329" 
d="M369 609q0 -97 -58.5 -178t-130.5 -81q-50 0 -80 37t-30 101q0 97 58.5 178t130.5 81q50 0 80 -36.5t30 -101.5zM123 474q0 -110 60 -110q52 0 92.5 75t40.5 184q0 110 -60 110q-53 0 -93 -74.5t-40 -184.5z" />
    <glyph glyph-name="guillemotright" unicode="&#xbb;" horiz-adv-x="357" 
d="M212 416l9 6l101 -175l-5 -20l-175 -175l-6 6l129 182zM72 416l9 6l101 -175l-5 -20l-175 -175l-6 6l129 182z" />
    <glyph glyph-name="onequarter" unicode="&#xbc;" horiz-adv-x="627" 
d="M245 744l-54 -311q-9 -46 5 -78v-1h-89v1q27 35 34 78l40 228h-38l1 5q51 29 96 78h5zM80 1l-16 13l521 729l17 -11zM401 0l1 1q22 33 29 78l4 21h-141l1 7l190 278h57l-233 -273h128l23 129h49l-22 -129h37l-5 -12h-34l-4 -21q-9 -47 2 -78v-1h-82z" />
    <glyph glyph-name="onehalf" unicode="&#xbd;" horiz-adv-x="647" 
d="M80 1l-16 13l521 729l17 -11zM541 0h-196l2 7q118 107 162.5 175t44.5 133q0 33 -13 50t-34 17q-22 0 -43 -22.5t-48 -66.5l-5 2l25 83q36 15 75 15q46 0 70.5 -22t24.5 -63q0 -62 -47.5 -119.5t-157.5 -141.5h90q26 0 43.5 11.5t38.5 34.5l3 -2zM255 744l-54 -311
q-9 -46 5 -78v-1h-89v1q27 35 34 78l40 228h-38l1 5q51 29 96 78h5z" />
    <glyph glyph-name="threequarters" unicode="&#xbe;" horiz-adv-x="635" 
d="M140 346q-50 0 -72 18l-7 83l5 1q31 -91 80 -91q38 0 62.5 44t24.5 95q0 41 -17 61t-44 20q-29 0 -59 -23l-4 6l141 131h-134l25 47h173l-1 -5l-163 -150q16 7 35 7q40 0 69 -26.5t29 -75.5q0 -58 -39 -100t-104 -42zM88 1l-16 13l521 729l17 -11zM409 0l1 1q22 33 29 78
l4 21h-141l1 7l190 278h57l-233 -273h128l23 129h49l-22 -129h37l-5 -12h-34l-4 -21q-9 -47 2 -78v-1h-82z" />
    <glyph glyph-name="questiondown" unicode="&#xbf;" horiz-adv-x="370" 
d="M289 293h16q-16 -55 -51.5 -102.5t-74 -80.5t-75.5 -67t-61 -78t-24 -96q0 -111 99 -111q51 0 91.5 32.5t93.5 107.5l7 -3l-44 -123q-73 -32 -152 -32q-72 0 -113 33.5t-41 98.5q0 51 26.5 94.5t68 78t85.5 68t86.5 80.5t62.5 100zM323 490q19 0 33 -14t14 -33t-14 -33
t-33 -14t-33 14t-14 33t14 33t33 14z" />
    <glyph glyph-name="Agrave" unicode="&#xc0;" horiz-adv-x="465" 
d="M330 296l-31 350l-160 -350h191zM68 2v-2h-122v2q35 28 54 55t47 88l276 594h19l56 -617q4 -49 13 -72t29 -48v-2h-129v2q42 38 34 125l-13 149h-202l-57 -124q-20 -45 -20.5 -87.5t15.5 -62.5zM429 789l-5 -7l-228 121l41 56z" />
    <glyph glyph-name="Aacute" unicode="&#xc1;" horiz-adv-x="465" 
d="M330 296l-31 350l-160 -350h191zM68 2v-2h-122v2q35 28 54 55t47 88l276 594h19l56 -617q4 -49 13 -72t29 -48v-2h-129v2q42 38 34 125l-13 149h-202l-57 -124q-20 -45 -20.5 -87.5t15.5 -62.5zM224 789l224 170l31 -57l-251 -120z" />
    <glyph glyph-name="Acircumflex" unicode="&#xc2;" horiz-adv-x="465" 
d="M330 296l-31 350l-160 -350h191zM68 2v-2h-122v2q35 28 54 55t47 88l276 594h19l56 -617q4 -49 13 -72t29 -48v-2h-129v2q42 38 34 125l-13 149h-202l-57 -124q-20 -45 -20.5 -87.5t15.5 -62.5zM467 782l-114 93l-166 -93l-4 7l177 156h4l110 -156z" />
    <glyph glyph-name="Atilde" unicode="&#xc3;" horiz-adv-x="465" 
d="M330 296l-31 350l-160 -350h191zM68 2v-2h-122v2q35 28 54 55t47 88l276 594h19l56 -617q4 -49 13 -72t29 -48v-2h-129v2q42 38 34 125l-13 149h-202l-57 -124q-20 -45 -20.5 -87.5t15.5 -62.5zM288 896q27 0 67 -25.5t65 -25.5t41 15.5t32 51.5l7 -1q-29 -109 -107 -109
q-28 0 -68.5 25.5t-64.5 25.5q-47 0 -76 -67l-8 1q11 40 38 74.5t74 34.5z" />
    <glyph glyph-name="Adieresis" unicode="&#xc4;" horiz-adv-x="465" 
d="M330 296l-31 350l-160 -350h191zM68 2v-2h-122v2q35 28 54 55t47 88l276 594h19l56 -617q4 -49 13 -72t29 -48v-2h-129v2q42 38 34 125l-13 149h-202l-57 -124q-20 -45 -20.5 -87.5t15.5 -62.5zM485 868q0 -17 -12 -29t-29 -12t-29 12t-12 29t12 29t29 12t29 -12t12 -29z
M293 868q0 -17 -12 -29t-29 -12t-29 12t-12 29t12 29t29 12t29 -12t12 -29z" />
    <glyph glyph-name="Aring" unicode="&#xc5;" horiz-adv-x="465" 
d="M330 296l-31 350l-160 -350h191zM68 2v-2h-122v2q35 28 54 55t47 88l276 594h19l56 -617q4 -49 13 -72t29 -48v-2h-129v2q42 38 34 125l-13 149h-202l-57 -124q-20 -45 -20.5 -87.5t15.5 -62.5zM255 865q0 37 23.5 61t60.5 24t60.5 -24t23.5 -61t-23.5 -60t-60.5 -23
t-60.5 23t-23.5 60zM283 865q0 -31 14.5 -48.5t41.5 -17.5t41.5 17.5t14.5 48.5t-14 49.5t-42 18.5t-42 -18.5t-14 -49.5z" />
    <glyph glyph-name="AE" unicode="&#xc6;" horiz-adv-x="806" 
d="M465 630q3 14 5 38l-233 -372h168zM108 2v-2h-118v2q42 29 66 56t62 87l348 555q-5 16 -22 30v2h336l11 -145l-8 -2q-33 70 -56 96t-61 27l-132 4l-60 -334h97q8 0 15 2.5t14.5 8t13 10.5t13 15t12 15.5t12.5 17t11 16.5h8l-29 -185h-8q-12 31 -17.5 43.5t-18 24.5
t-29.5 12h-98l-61 -340l162 5q14 0 26 2t24 7t20 8t20 13.5t17.5 15t19.5 20t19 21.5t22 26.5t23 28.5l8 -3l-60 -162h-376v2q25 39 42 130l26 144h-177l-84 -134q-56 -92 -33 -140z" />
    <glyph glyph-name="Ccedilla" unicode="&#xc7;" horiz-adv-x="598" 
d="M152 -255v8q56 13 89.5 39.5t33.5 60.5q0 50 -72 56v2l61 77q-104 15 -157.5 97.5t-53.5 214.5q0 117 46 219t130.5 165t187.5 63q56 0 106.5 -18.5t72.5 -34.5l11 -139l-8 -2q-36 92 -84 133t-112 41q-88 0 -155 -66t-99 -165.5t-32 -214.5q0 -121 50.5 -198.5
t142.5 -77.5q75 0 132 49.5t113 146.5l10 -2l-40 -146q-29 -24 -88 -46t-129 -22q-13 0 -20 1l-35 -44q65 -17 65 -73q0 -50 -46.5 -82.5t-119.5 -41.5z" />
    <glyph glyph-name="Egrave" unicode="&#xc8;" horiz-adv-x="496" 
d="M460 162l-60 -162h-376v2q25 39 42 130l84 469q14 78 -6 129v2h326l11 -145l-8 -2q-33 70 -56 96t-61 27l-132 4l-60 -334h97q8 0 15 2.5t14.5 8t13 10.5t13 15t12 15.5t12.5 17t11 16.5h8l-29 -185h-8q-12 31 -17.5 43.5t-18 24.5t-29.5 12h-98l-61 -340l162 5
q14 0 26 2t24 7t20 8t20 13.5t17.5 15t19.5 20t19 21.5t22 26.5t23 28.5zM441 789l-5 -7l-228 121l41 56z" />
    <glyph glyph-name="Eacute" unicode="&#xc9;" horiz-adv-x="496" 
d="M460 162l-60 -162h-376v2q25 39 42 130l84 469q14 78 -6 129v2h326l11 -145l-8 -2q-33 70 -56 96t-61 27l-132 4l-60 -334h97q8 0 15 2.5t14.5 8t13 10.5t13 15t12 15.5t12.5 17t11 16.5h8l-29 -185h-8q-12 31 -17.5 43.5t-18 24.5t-29.5 12h-98l-61 -340l162 5
q14 0 26 2t24 7t20 8t20 13.5t17.5 15t19.5 20t19 21.5t22 26.5t23 28.5zM226 789l224 170l31 -57l-251 -120z" />
    <glyph glyph-name="Ecircumflex" unicode="&#xca;" horiz-adv-x="496" 
d="M460 162l-60 -162h-376v2q25 39 42 130l84 469q14 78 -6 129v2h326l11 -145l-8 -2q-33 70 -56 96t-61 27l-132 4l-60 -334h97q8 0 15 2.5t14.5 8t13 10.5t13 15t12 15.5t12.5 17t11 16.5h8l-29 -185h-8q-12 31 -17.5 43.5t-18 24.5t-29.5 12h-98l-61 -340l162 5
q14 0 26 2t24 7t20 8t20 13.5t17.5 15t19.5 20t19 21.5t22 26.5t23 28.5zM469 782l-114 93l-166 -93l-4 7l177 156h4l110 -156z" />
    <glyph glyph-name="Edieresis" unicode="&#xcb;" horiz-adv-x="496" 
d="M460 162l-60 -162h-376v2q25 39 42 130l84 469q14 78 -6 129v2h326l11 -145l-8 -2q-33 70 -56 96t-61 27l-132 4l-60 -334h97q8 0 15 2.5t14.5 8t13 10.5t13 15t12 15.5t12.5 17t11 16.5h8l-29 -185h-8q-12 31 -17.5 43.5t-18 24.5t-29.5 12h-98l-61 -340l162 5
q14 0 26 2t24 7t20 8t20 13.5t17.5 15t19.5 20t19 21.5t22 26.5t23 28.5zM479 868q0 -17 -12 -29t-29 -12t-29 12t-12 29t12 29t29 12t29 -12t12 -29zM287 868q0 -17 -12 -29t-29 -12t-29 12t-12 29t12 29t29 12t29 -12t12 -29z" />
    <glyph glyph-name="Igrave" unicode="&#xcc;" horiz-adv-x="224" 
d="M125 0h-101v2q26 42 42 130l84 469q14 78 -6 129v2h101v-2q-26 -42 -42 -130l-84 -469q-14 -78 6 -129v-2zM302 789l-5 -7l-228 121l41 56z" />
    <glyph glyph-name="Iacute" unicode="&#xcd;" horiz-adv-x="224" 
d="M125 0h-101v2q26 42 42 130l84 469q14 78 -6 129v2h101v-2q-26 -42 -42 -130l-84 -469q-14 -78 6 -129v-2zM107 789l224 170l31 -57l-251 -120z" />
    <glyph glyph-name="Icircumflex" unicode="&#xce;" horiz-adv-x="224" 
d="M125 0h-101v2q26 42 42 130l84 469q14 78 -6 129v2h101v-2q-26 -42 -42 -130l-84 -469q-14 -78 6 -129v-2zM340 782l-114 93l-166 -93l-4 7l177 156h4l110 -156z" />
    <glyph glyph-name="Idieresis" unicode="&#xcf;" horiz-adv-x="224" 
d="M339 868q0 -17 -12 -29t-29 -12t-29 12t-12 29t12 29t29 12t29 -12t12 -29zM169 868q0 -17 -12 -29t-29 -12t-29 12t-12 29t12 29t29 12t29 -12t12 -29zM125 0h-101v2q26 42 42 130l84 469q14 78 -6 129v2h101v-2q-26 -42 -42 -130l-84 -469q-14 -78 6 -129v-2z" />
    <glyph glyph-name="Eth" unicode="&#xd0;" horiz-adv-x="593" 
d="M32 358l4 18h83l41 225q14 78 -6 129v2q55 0 88.5 1.5t84.5 1.5q259 0 259 -291q0 -188 -108.5 -316t-280.5 -128h-163v2q26 42 42 130l40 226h-84zM311 716h-77l-62 -340h168l-4 -18h-167l-61 -341l86 2q83 2 147.5 40.5t103 101.5t58 137.5t19.5 155.5q0 262 -211 262z
" />
    <glyph glyph-name="Ntilde" unicode="&#xd1;" horiz-adv-x="597" 
d="M456 -3l-276 650l-87 -483q-11 -51 -9 -84t23 -78v-2h-101v2q32 45 43 75t22 87l73 404v-1q12 58 9.5 92t-30.5 71v2h80l267 -630l84 466q11 51 9 84t-23 78v2h101v-2q-32 -46 -43.5 -76.5t-21.5 -85.5l-102 -568zM352 896q27 0 67 -25.5t65 -25.5t41 15.5t32 51.5l7 -1
q-29 -109 -107 -109q-28 0 -68.5 25.5t-64.5 25.5q-47 0 -76 -67l-8 1q11 40 38 74.5t74 34.5z" />
    <glyph glyph-name="Ograve" unicode="&#xd2;" horiz-adv-x="662" 
d="M655 437q0 -118 -49.5 -222.5t-133 -167t-178.5 -62.5q-106 0 -173.5 87.5t-67.5 222.5q0 118 49.5 222.5t133 167t178.5 62.5q106 0 173.5 -87.5t67.5 -222.5zM117 276q0 -122 47 -196.5t137 -74.5q88 0 155.5 65t101 166.5t33.5 219.5q0 122 -47 196.5t-137 74.5
q-88 0 -155.5 -65t-101 -166.5t-33.5 -219.5zM522 789l-5 -7l-228 121l41 56z" />
    <glyph glyph-name="Oacute" unicode="&#xd3;" horiz-adv-x="662" 
d="M655 437q0 -118 -49.5 -222.5t-133 -167t-178.5 -62.5q-106 0 -173.5 87.5t-67.5 222.5q0 118 49.5 222.5t133 167t178.5 62.5q106 0 173.5 -87.5t67.5 -222.5zM117 276q0 -122 47 -196.5t137 -74.5q88 0 155.5 65t101 166.5t33.5 219.5q0 122 -47 196.5t-137 74.5
q-88 0 -155.5 -65t-101 -166.5t-33.5 -219.5zM327 789l224 170l31 -57l-251 -120z" />
    <glyph glyph-name="Ocircumflex" unicode="&#xd4;" horiz-adv-x="662" 
d="M655 437q0 -118 -49.5 -222.5t-133 -167t-178.5 -62.5q-106 0 -173.5 87.5t-67.5 222.5q0 118 49.5 222.5t133 167t178.5 62.5q106 0 173.5 -87.5t67.5 -222.5zM117 276q0 -122 47 -196.5t137 -74.5q88 0 155.5 65t101 166.5t33.5 219.5q0 122 -47 196.5t-137 74.5
q-88 0 -155.5 -65t-101 -166.5t-33.5 -219.5zM560 782l-114 93l-166 -93l-4 7l177 156h4l110 -156z" />
    <glyph glyph-name="Otilde" unicode="&#xd5;" horiz-adv-x="662" 
d="M655 437q0 -118 -49.5 -222.5t-133 -167t-178.5 -62.5q-106 0 -173.5 87.5t-67.5 222.5q0 118 49.5 222.5t133 167t178.5 62.5q106 0 173.5 -87.5t67.5 -222.5zM117 276q0 -122 47 -196.5t137 -74.5q88 0 155.5 65t101 166.5t33.5 219.5q0 122 -47 196.5t-137 74.5
q-88 0 -155.5 -65t-101 -166.5t-33.5 -219.5zM381 896q27 0 67 -25.5t65 -25.5t41 15.5t32 51.5l7 -1q-29 -109 -107 -109q-28 0 -68.5 25.5t-64.5 25.5q-47 0 -76 -67l-8 1q11 40 38 74.5t74 34.5z" />
    <glyph glyph-name="Odieresis" unicode="&#xd6;" horiz-adv-x="662" 
d="M655 437q0 -118 -49.5 -222.5t-133 -167t-178.5 -62.5q-106 0 -173.5 87.5t-67.5 222.5q0 118 49.5 222.5t133 167t178.5 62.5q106 0 173.5 -87.5t67.5 -222.5zM117 276q0 -122 47 -196.5t137 -74.5q88 0 155.5 65t101 166.5t33.5 219.5q0 122 -47 196.5t-137 74.5
q-88 0 -155.5 -65t-101 -166.5t-33.5 -219.5zM570 868q0 -17 -12 -29t-29 -12t-29 12t-12 29t12 29t29 12t29 -12t12 -29zM378 868q0 -17 -12 -29t-29 -12t-29 12t-12 29t12 29t29 12t29 -12t12 -29z" />
    <glyph glyph-name="multiply" unicode="&#xd7;" horiz-adv-x="472" 
d="M416 122l-170 170l-170 -170l-15 15l170 170l-170 170l15 15l170 -170l170 170l15 -15l-170 -170l170 -170z" />
    <glyph glyph-name="Oslash" unicode="&#xd8;" horiz-adv-x="662" 
d="M117 276q0 -108 35 -175l391 553q-48 73 -136 73t-155.5 -65t-101 -166.5t-33.5 -219.5zM301 5q88 0 155.5 65t101 166.5t33.5 219.5q0 109 -35 176l-392 -553q49 -74 137 -74zM294 -15q-87 0 -152 63l-54 -77h-28l66 94q-73 87 -73 230q0 118 49.5 222.5t133 167
t178.5 62.5q87 0 151 -62l55 77h28l-67 -94q74 -88 74 -231q0 -118 -49.5 -222.5t-133 -167t-178.5 -62.5z" />
    <glyph glyph-name="Ugrave" unicode="&#xd9;" horiz-adv-x="542" 
d="M252 -15q-42 0 -78.5 14t-65 41.5t-40 75.5t-0.5 110l68 375q14 78 -6 129v2h101v-2q-26 -42 -42 -130l-67 -371q-20 -111 21 -166.5t116 -55.5q54 0 93.5 30t57.5 69.5t28 90.5l70 371q11 52 9 84.5t-23 77.5v2h102v-2q-32 -45 -43 -75t-22 -87l-70 -371q-8 -42 -22 -77
t-38 -67t-62 -50t-87 -18zM470 789l-5 -7l-228 121l41 56z" />
    <glyph glyph-name="Uacute" unicode="&#xda;" horiz-adv-x="542" 
d="M252 -15q-42 0 -78.5 14t-65 41.5t-40 75.5t-0.5 110l68 375q14 78 -6 129v2h101v-2q-26 -42 -42 -130l-67 -371q-20 -111 21 -166.5t116 -55.5q54 0 93.5 30t57.5 69.5t28 90.5l70 371q11 52 9 84.5t-23 77.5v2h102v-2q-32 -45 -43 -75t-22 -87l-70 -371q-8 -42 -22 -77
t-38 -67t-62 -50t-87 -18zM275 789l224 170l31 -57l-251 -120z" />
    <glyph glyph-name="Ucircumflex" unicode="&#xdb;" horiz-adv-x="542" 
d="M252 -15q-42 0 -78.5 14t-65 41.5t-40 75.5t-0.5 110l68 375q14 78 -6 129v2h101v-2q-26 -42 -42 -130l-67 -371q-20 -111 21 -166.5t116 -55.5q54 0 93.5 30t57.5 69.5t28 90.5l70 371q11 52 9 84.5t-23 77.5v2h102v-2q-32 -45 -43 -75t-22 -87l-70 -371q-8 -42 -22 -77
t-38 -67t-62 -50t-87 -18zM508 782l-114 93l-166 -93l-4 7l177 156h4l110 -156z" />
    <glyph glyph-name="Udieresis" unicode="&#xdc;" horiz-adv-x="542" 
d="M252 -15q-42 0 -78.5 14t-65 41.5t-40 75.5t-0.5 110l68 375q14 78 -6 129v2h101v-2q-26 -42 -42 -130l-67 -371q-20 -111 21 -166.5t116 -55.5q54 0 93.5 30t57.5 69.5t28 90.5l70 371q11 52 9 84.5t-23 77.5v2h102v-2q-32 -45 -43 -75t-22 -87l-70 -371q-8 -42 -22 -77
t-38 -67t-62 -50t-87 -18zM517 868q0 -17 -12 -29t-29 -12t-29 12t-12 29t12 29t29 12t29 -12t12 -29zM325 868q0 -17 -12 -29t-29 -12t-29 12t-12 29t12 29t29 12t29 -12t12 -29z" />
    <glyph glyph-name="Yacute" unicode="&#xdd;" horiz-adv-x="466" 
d="M128 0v2q26 39 38 68.5t21 79.5l34 188l-66 266q-23 92 -58 126v2h123v-2q-30 -35 -10 -119l58 -249l138 228q52 86 15 140v2h114v-2q-59 -63 -96 -124l-166 -273l-32 -183q-9 -51 -7.5 -80t15.5 -68l-1 -2h-120zM232 789l224 170l31 -57l-251 -120z" />
    <glyph glyph-name="Thorn" unicode="&#xde;" horiz-adv-x="496" 
d="M24 0v2q26 42 42 130l84 469q14 78 -6 129v2h101v-2q-26 -42 -42 -130l-7 -38h104q196 0 196 -155q0 -101 -74.5 -159t-193.5 -58h-98l-11 -59q-14 -78 6 -129v-2h-101zM285 542q-61 0 -93 -3l-59 -329h103q106 0 152 57t46 147q0 66 -31.5 97t-117.5 31z" />
    <glyph glyph-name="germandbls" unicode="&#xdf;" horiz-adv-x="476" 
d="M53 -165h-50l133 622h-55l4 18h55l14 64q25 120 83 184.5t135 64.5q57 0 89.5 -33t32.5 -86q0 -41 -20.5 -74.5t-50 -56.5t-59.5 -44t-50.5 -47t-20.5 -56q0 -25 15 -50t37 -47.5t43.5 -46.5t36.5 -57.5t15 -70.5q0 -63 -38.5 -98.5t-99.5 -35.5q-70 0 -114 38l-3 113
l8 2q47 -135 125 -135q35 0 58.5 26t23.5 67q0 29 -15 56.5t-36 49.5t-42.5 45t-36.5 53t-15 64q0 39 20 69t48 51.5t56 43.5t48 56.5t20 78.5q0 45 -19.5 76t-63.5 31q-50 0 -91 -45.5t-60 -141.5z" />
    <glyph glyph-name="agrave" unicode="&#xe0;" horiz-adv-x="437" 
d="M130 29q29 0 59 24t57 68.5t46 82t41 88.5l37 140q-23 35 -72 35q-59 0 -112 -54.5t-82 -133t-29 -153.5q0 -97 55 -97zM254 -9l58 211q-98 -217 -208 -217q-39 0 -61.5 32t-22.5 94q0 93 42.5 181t114.5 143t150 55q46 0 79 -18l24 18h4l-100 -382q-13 -39 -9.5 -61
t34.5 -36v-1zM379 539l-8 -6l-146 178l55 38z" />
    <glyph glyph-name="aacute" unicode="&#xe1;" horiz-adv-x="437" 
d="M130 29q29 0 59 24t57 68.5t46 82t41 88.5l37 140q-23 35 -72 35q-59 0 -112 -54.5t-82 -133t-29 -153.5q0 -97 55 -97zM254 -9l58 211q-98 -217 -208 -217q-39 0 -61.5 32t-22.5 94q0 93 42.5 181t114.5 143t150 55q46 0 79 -18l24 18h4l-100 -382q-13 -39 -9.5 -61
t34.5 -36v-1zM230 539l158 210l42 -44l-195 -172z" />
    <glyph glyph-name="acircumflex" unicode="&#xe2;" horiz-adv-x="437" 
d="M130 29q29 0 59 24t57 68.5t46 82t41 88.5l37 140q-23 35 -72 35q-59 0 -112 -54.5t-82 -133t-29 -153.5q0 -97 55 -97zM254 -9l58 211q-98 -217 -208 -217q-39 0 -61.5 32t-22.5 94q0 93 42.5 181t114.5 143t150 55q46 0 79 -18l24 18h4l-100 -382q-13 -39 -9.5 -61
t34.5 -36v-1zM412 540l-91 106l-144 -106l-5 6l157 173h3l88 -173z" />
    <glyph glyph-name="atilde" unicode="&#xe3;" horiz-adv-x="437" 
d="M130 29q29 0 59 24t57 68.5t46 82t41 88.5l37 140q-23 35 -72 35q-59 0 -112 -54.5t-82 -133t-29 -153.5q0 -97 55 -97zM254 -9l58 211q-98 -217 -208 -217q-39 0 -61.5 32t-22.5 94q0 93 42.5 181t114.5 143t150 55q46 0 79 -18l24 18h4l-100 -382q-13 -39 -9.5 -61
t34.5 -36v-1zM271 678q24 0 60.5 -16.5t58.5 -16.5q39 0 63 47l7 -1q-26 -95 -95 -95q-24 0 -60.5 16.5t-58.5 16.5q-39 0 -63 -47l-7 1q26 95 95 95z" />
    <glyph glyph-name="adieresis" unicode="&#xe4;" horiz-adv-x="437" 
d="M130 29q29 0 59 24t57 68.5t46 82t41 88.5l37 140q-23 35 -72 35q-59 0 -112 -54.5t-82 -133t-29 -153.5q0 -97 55 -97zM254 -9l58 211q-98 -217 -208 -217q-39 0 -61.5 32t-22.5 94q0 93 42.5 181t114.5 143t150 55q46 0 79 -18l24 18h4l-100 -382q-13 -39 -9.5 -61
t34.5 -36v-1zM276 659q0 -17 -12 -29t-29 -12t-29 12t-12 29t12 29t29 12t29 -12t12 -29zM448 659q0 -17 -12 -29t-29 -12t-29 12t-12 29t12 29t29 12t29 -12t12 -29z" />
    <glyph glyph-name="aring" unicode="&#xe5;" horiz-adv-x="437" 
d="M130 29q29 0 59 24t57 68.5t46 82t41 88.5l37 140q-23 35 -72 35q-59 0 -112 -54.5t-82 -133t-29 -153.5q0 -97 55 -97zM254 -9l58 211q-98 -217 -208 -217q-39 0 -61.5 32t-22.5 94q0 93 42.5 181t114.5 143t150 55q46 0 79 -18l24 18h4l-100 -382q-13 -39 -9.5 -61
t34.5 -36v-1zM224 631q0 37 23.5 61t60.5 24t60.5 -24t23.5 -61t-23.5 -60t-60.5 -23t-60.5 23t-23.5 60zM252 631q0 -31 14.5 -48.5t41.5 -17.5t41.5 17.5t14.5 48.5t-14 49.5t-42 18.5t-42 -18.5t-14 -49.5z" />
    <glyph glyph-name="ae" unicode="&#xe6;" horiz-adv-x="640" 
d="M549 472q-51 0 -98.5 -44t-73.5 -116q225 21 225 112q0 48 -53 48zM126 29q84 0 191 249q24 66 65 115q-9 30 -31 52t-57 22q-54 0 -106 -54.5t-82.5 -133.5t-30.5 -153q0 -97 51 -97zM586 105q-26 -54 -68 -87t-92 -33q-60 0 -95 47t-35 125q0 11 2 35
q-43 -92 -94.5 -149.5t-102.5 -57.5q-37 0 -59 32t-22 94q0 92 43.5 180.5t113.5 143.5t142 55q68 0 105 -55q65 55 138 55q39 0 63.5 -16.5t24.5 -50.5q0 -54 -66 -89t-211 -34q-19 -59 -19 -124q0 -151 97 -151q67 0 125 85z" />
    <glyph glyph-name="ccedilla" unicode="&#xe7;" horiz-adv-x="374" 
d="M6 -255v8q56 13 89.5 39.5t33.5 60.5q0 50 -72 56v2l63 80q-48 15 -74 63.5t-26 116.5q0 123 75 221t176 98q51 0 87 -26l8 -98l-10 -2q-23 51 -46.5 79.5t-57.5 28.5q-60 0 -117 -77t-57 -202q0 -165 110 -165q78 0 131 108l10 -4q-22 -68 -64.5 -107.5t-101.5 -39.5
q-8 0 -20 2l-36 -45q65 -17 65 -73q0 -50 -46.5 -82.5t-119.5 -41.5z" />
    <glyph glyph-name="egrave" unicode="&#xe8;" horiz-adv-x="364" 
d="M276 472q-52 0 -100 -44t-75 -116q225 21 225 112q0 48 -50 48zM310 105q-26 -54 -68 -87t-92 -33q-60 0 -95 47t-35 125q0 126 80.5 229.5t185.5 103.5q39 0 63.5 -17t24.5 -50q0 -55 -66 -89.5t-211 -33.5q-19 -59 -19 -124q0 -151 97 -151q67 0 125 85zM306 539l-8 -6
l-146 178l55 38z" />
    <glyph glyph-name="eacute" unicode="&#xe9;" horiz-adv-x="364" 
d="M276 472q-52 0 -100 -44t-75 -116q225 21 225 112q0 48 -50 48zM310 105q-26 -54 -68 -87t-92 -33q-60 0 -95 47t-35 125q0 126 80.5 229.5t185.5 103.5q39 0 63.5 -17t24.5 -50q0 -55 -66 -89.5t-211 -33.5q-19 -59 -19 -124q0 -151 97 -151q67 0 125 85zM218 539
l158 210l42 -44l-195 -172z" />
    <glyph glyph-name="ecircumflex" unicode="&#xea;" horiz-adv-x="364" 
d="M276 472q-52 0 -100 -44t-75 -116q225 21 225 112q0 48 -50 48zM310 105q-26 -54 -68 -87t-92 -33q-60 0 -95 47t-35 125q0 126 80.5 229.5t185.5 103.5q39 0 63.5 -17t24.5 -50q0 -55 -66 -89.5t-211 -33.5q-19 -59 -19 -124q0 -151 97 -151q67 0 125 85zM377 540
l-91 106l-144 -106l-5 6l157 173h3l88 -173z" />
    <glyph glyph-name="edieresis" unicode="&#xeb;" horiz-adv-x="364" 
d="M276 472q-52 0 -100 -44t-75 -116q225 21 225 112q0 48 -50 48zM310 105q-26 -54 -68 -87t-92 -33q-60 0 -95 47t-35 125q0 126 80.5 229.5t185.5 103.5q39 0 63.5 -17t24.5 -50q0 -55 -66 -89.5t-211 -33.5q-19 -59 -19 -124q0 -151 97 -151q67 0 125 85zM224 659
q0 -17 -12 -29t-29 -12t-29 12t-12 29t12 29t29 12t29 -12t12 -29zM396 659q0 -17 -12 -29t-29 -12t-29 12t-12 29t12 29t29 12t29 -12t12 -29z" />
    <glyph glyph-name="igrave" unicode="&#xec;" 
d="M7 0v2q27 46 51 161l35 178q16 74 -18 119v2l104 33l-70 -329q-15 -70 -17.5 -102t5.5 -62v-2h-90zM192 539l-8 -6l-146 178l55 38z" />
    <glyph glyph-name="iacute" unicode="&#xed;" 
d="M7 0v2q27 46 51 161l35 178q16 74 -18 119v2l104 33l-70 -329q-15 -70 -17.5 -102t5.5 -62v-2h-90zM94 539l158 210l42 -44l-195 -172z" />
    <glyph glyph-name="icircumflex" unicode="&#xee;" 
d="M7 0v2q27 46 51 161l35 178q16 74 -18 119v2l104 33l-70 -329q-15 -70 -17.5 -102t5.5 -62v-2h-90zM266 540l-91 106l-144 -106l-5 6l157 173h3l88 -173z" />
    <glyph glyph-name="idieresis" unicode="&#xef;" 
d="M141 659q0 -17 -12 -29t-29 -12t-29 12t-12 29t12 29t29 12t29 -12t12 -29zM271 659q0 -17 -12 -29t-29 -12t-29 12t-12 29t12 29t29 12t29 -12t12 -29zM7 0v2q27 46 51 161l35 178q16 74 -18 119v2l104 33l-70 -329q-15 -70 -17.5 -102t5.5 -62v-2h-90z" />
    <glyph glyph-name="eth" unicode="&#xf0;" horiz-adv-x="407" 
d="M156 -15q-61 0 -98.5 47.5t-37.5 128.5q0 125 71.5 227t165.5 102q34 0 65 -11q-14 95 -60 166l-133 -62l-6 16l130 60q-49 71 -122 110l5 9q86 -39 144 -106l111 52l6 -16l-105 -49q98 -125 98 -310q0 -158 -70 -261t-164 -103zM78 151q0 -148 82 -148q68 0 120 90
t52 225q0 154 -82 154q-68 0 -120 -91.5t-52 -229.5z" />
    <glyph glyph-name="ntilde" unicode="&#xf1;" horiz-adv-x="466" 
d="M290 -9l81 367q9 40 -0.5 66.5t-38.5 26.5q-42 0 -99.5 -70t-121.5 -214l-10 -44q-16 -76 -3 -121v-2h-88v2q5 7 8.5 13.5t7.5 15.5t6.5 14.5t5.5 17t4.5 16.5t5 19.5t4.5 19.5l4.5 22.5l4.5 22.5l38 178q16 74 -18 119v2l100 33l-58 -262q51 116 113 186.5t122 70.5
q42 0 58.5 -36t2.5 -99l-54 -240q-14 -56 -6.5 -79.5t46.5 -27.5v-2zM250 678q24 0 60.5 -16.5t58.5 -16.5q39 0 63 47l7 -1q-26 -95 -95 -95q-24 0 -60.5 16.5t-58.5 16.5q-39 0 -63 -47l-7 1q26 95 95 95z" />
    <glyph glyph-name="ograve" unicode="&#xf2;" horiz-adv-x="410" 
d="M390 316q0 -81 -32.5 -158t-87.5 -125t-114 -48q-61 0 -98.5 46.5t-37.5 127.5t32.5 158t87.5 125t114 48q61 0 98.5 -46.5t37.5 -127.5zM78 151q0 -148 82 -148q68 0 120 91t52 230q0 148 -82 148q-68 0 -120 -91t-52 -230zM298 539l-8 -6l-146 178l55 38z" />
    <glyph glyph-name="oacute" unicode="&#xf3;" horiz-adv-x="410" 
d="M390 316q0 -81 -32.5 -158t-87.5 -125t-114 -48q-61 0 -98.5 46.5t-37.5 127.5t32.5 158t87.5 125t114 48q61 0 98.5 -46.5t37.5 -127.5zM78 151q0 -148 82 -148q68 0 120 91t52 230q0 148 -82 148q-68 0 -120 -91t-52 -230zM200 539l158 210l42 -44l-195 -172z" />
    <glyph glyph-name="ocircumflex" unicode="&#xf4;" horiz-adv-x="410" 
d="M390 316q0 -81 -32.5 -158t-87.5 -125t-114 -48q-61 0 -98.5 46.5t-37.5 127.5t32.5 158t87.5 125t114 48q61 0 98.5 -46.5t37.5 -127.5zM78 151q0 -148 82 -148q68 0 120 91t52 230q0 148 -82 148q-68 0 -120 -91t-52 -230zM372 540l-91 106l-144 -106l-5 6l157 173h3
l88 -173z" />
    <glyph glyph-name="otilde" unicode="&#xf5;" horiz-adv-x="410" 
d="M390 316q0 -81 -32.5 -158t-87.5 -125t-114 -48q-61 0 -98.5 46.5t-37.5 127.5t32.5 158t87.5 125t114 48q61 0 98.5 -46.5t37.5 -127.5zM78 151q0 -148 82 -148q68 0 120 91t52 230q0 148 -82 148q-68 0 -120 -91t-52 -230zM233 678q24 0 60.5 -16.5t58.5 -16.5
q39 0 63 47l7 -1q-26 -95 -95 -95q-24 0 -60.5 16.5t-58.5 16.5q-39 0 -63 -47l-7 1q26 95 95 95z" />
    <glyph glyph-name="odieresis" unicode="&#xf6;" horiz-adv-x="410" 
d="M390 316q0 -81 -32.5 -158t-87.5 -125t-114 -48q-61 0 -98.5 46.5t-37.5 127.5t32.5 158t87.5 125t114 48q61 0 98.5 -46.5t37.5 -127.5zM78 151q0 -148 82 -148q68 0 120 91t52 230q0 148 -82 148q-68 0 -120 -91t-52 -230zM226 659q0 -17 -12 -29t-29 -12t-29 12
t-12 29t12 29t29 12t29 -12t12 -29zM398 659q0 -17 -12 -29t-29 -12t-29 12t-12 29t12 29t29 12t29 -12t12 -29z" />
    <glyph glyph-name="divide" unicode="&#xf7;" horiz-adv-x="532" 
d="M507 298h-442v20h442v-20zM269 94q-19 0 -33 14t-14 33t14 33t33 14t33 -14t14 -33t-14 -33t-33 -14zM269 428q-19 0 -33 14t-14 33t14 33t33 14t33 -14t14 -33t-14 -33t-33 -14z" />
    <glyph glyph-name="oslash" unicode="&#xf8;" horiz-adv-x="410" 
d="M390 316q0 -81 -32.5 -158t-87.5 -125t-114 -48q-53 0 -88 35l-60 -87h-27l72 105q-33 46 -33 121q0 81 32.5 158t87.5 125t114 48q52 0 87 -35l61 89h27l-73 -106q34 -49 34 -122zM332 324q0 40 -6 70l-235 -340q20 -51 69 -51q68 0 120 91t52 230zM78 151q0 -44 5 -69
l235 340q-20 50 -68 50q-68 0 -120 -91t-52 -230z" />
    <glyph glyph-name="ugrave" unicode="&#xf9;" horiz-adv-x="444" 
d="M260 -9l57 213q-44 -97 -99 -158t-111 -61q-44 0 -66.5 36t-4.5 106l66 253q20 73 -32 93v2h103l-89 -349q-13 -48 -0.5 -72.5t42.5 -24.5q53 0 112.5 79t108.5 210l16 61q20 74 -31 94v2h105l-96 -367q-13 -39 -9.5 -61t34.5 -36v-1zM307 539l-8 -6l-146 178l55 38z" />
    <glyph glyph-name="uacute" unicode="&#xfa;" horiz-adv-x="444" 
d="M260 -9l57 213q-44 -97 -99 -158t-111 -61q-44 0 -66.5 36t-4.5 106l66 253q20 73 -32 93v2h103l-89 -349q-13 -48 -0.5 -72.5t42.5 -24.5q53 0 112.5 79t108.5 210l16 61q20 74 -31 94v2h105l-96 -367q-13 -39 -9.5 -61t34.5 -36v-1zM229 539l158 210l42 -44l-195 -172z
" />
    <glyph glyph-name="ucircumflex" unicode="&#xfb;" horiz-adv-x="444" 
d="M260 -9l57 213q-44 -97 -99 -158t-111 -61q-44 0 -66.5 36t-4.5 106l66 253q20 73 -32 93v2h103l-89 -349q-13 -48 -0.5 -72.5t42.5 -24.5q53 0 112.5 79t108.5 210l16 61q20 74 -31 94v2h105l-96 -367q-13 -39 -9.5 -61t34.5 -36v-1zM391 540l-91 106l-144 -106l-5 6
l157 173h3l88 -173z" />
    <glyph glyph-name="udieresis" unicode="&#xfc;" horiz-adv-x="444" 
d="M260 -9l57 213q-44 -97 -99 -158t-111 -61q-44 0 -66.5 36t-4.5 106l66 253q20 73 -32 93v2h103l-89 -349q-13 -48 -0.5 -72.5t42.5 -24.5q53 0 112.5 79t108.5 210l16 61q20 74 -31 94v2h105l-96 -367q-13 -39 -9.5 -61t34.5 -36v-1zM245 659q0 -17 -12 -29t-29 -12
t-29 12t-12 29t12 29t29 12t29 -12t12 -29zM417 659q0 -17 -12 -29t-29 -12t-29 12t-12 29t12 29t29 12t29 -12t12 -29z" />
    <glyph glyph-name="yacute" unicode="&#xfd;" horiz-adv-x="362" 
d="M-103 -225l14 68q60 1 105 30t100 127l-30 353q-5 63 -11.5 81.5t-31.5 38.5v2h85l32 -394l121 233q25 48 34 73.5t4 47.5t-29 38v2h102v-2l-254 -473q-37 -70 -70 -116t-64 -67.5t-53.5 -29.5t-53.5 -12zM201 539l158 210l42 -44l-195 -172z" />
    <glyph glyph-name="thorn" unicode="&#xfe;" horiz-adv-x="447" 
d="M183 3q57 0 101 54t64.5 127.5t20.5 148.5q0 123 -70 123q-96 0 -183 -231l-12 -56q-16 -90 8.5 -128t70.5 -38zM44 -223v-2h-88v2q5 7 8.5 13.5t7.5 15.5t6.5 14.5t5.5 17t4.5 16.5t5 19.5t4.5 19.5l4.5 22.5l4.5 22.5l145 687q10 49 6 72.5t-24 46.5v2l100 33
l-100 -471q77 182 187 182q106 0 106 -154q0 -140 -71.5 -245.5t-176.5 -105.5q-71 0 -103 54l-21 -99q-25 -117 -11 -163z" />
    <glyph glyph-name="ydieresis" unicode="&#xff;" horiz-adv-x="362" 
d="M-103 -225l14 68q60 1 105 30t100 127l-30 353q-5 63 -11.5 81.5t-31.5 38.5v2h85l32 -394l121 233q25 48 34 73.5t4 47.5t-29 38v2h102v-2l-254 -473q-37 -70 -70 -116t-64 -67.5t-53.5 -29.5t-53.5 -12zM188 659q0 -17 -12 -29t-29 -12t-29 12t-12 29t12 29t29 12
t29 -12t12 -29zM360 659q0 -17 -12 -29t-29 -12t-29 12t-12 29t12 29t29 12t29 -12t12 -29z" />
    <glyph glyph-name="Amacron" unicode="&#x100;" horiz-adv-x="465" 
d="M330 296l-31 350l-160 -350h191zM68 2v-2h-122v2q35 28 54 55t47 88l276 594h19l56 -617q4 -49 13 -72t29 -48v-2h-129v2q42 38 34 125l-13 149h-202l-57 -124q-20 -45 -20.5 -87.5t15.5 -62.5zM205 838l7 35h254l-7 -35h-254z" />
    <glyph glyph-name="amacron" unicode="&#x101;" horiz-adv-x="437" 
d="M130 29q29 0 59 24t57 68.5t46 82t41 88.5l37 140q-23 35 -72 35q-59 0 -112 -54.5t-82 -133t-29 -153.5q0 -97 55 -97zM254 -9l58 211q-98 -217 -208 -217q-39 0 -61.5 32t-22.5 94q0 93 42.5 181t114.5 143t150 55q46 0 79 -18l24 18h4l-100 -382q-13 -39 -9.5 -61
t34.5 -36v-1zM174 610l7 35h241l-8 -35h-240z" />
    <glyph glyph-name="Abreve" unicode="&#x102;" horiz-adv-x="465" 
d="M330 296l-31 350l-160 -350h191zM68 2v-2h-122v2q35 28 54 55t47 88l276 594h19l56 -617q4 -49 13 -72t29 -48v-2h-129v2q42 38 34 125l-13 149h-202l-57 -124q-20 -45 -20.5 -87.5t15.5 -62.5zM340 846q95 0 128 81h7q-4 -22 -12.5 -42t-24 -40.5t-42 -33t-60.5 -12.5
t-58 12.5t-35.5 33.5t-16.5 41t-4 41h7q18 -81 111 -81z" />
    <glyph glyph-name="abreve" unicode="&#x103;" horiz-adv-x="437" 
d="M130 29q29 0 59 24t57 68.5t46 82t41 88.5l37 140q-23 35 -72 35q-59 0 -112 -54.5t-82 -133t-29 -153.5q0 -97 55 -97zM254 -9l58 211q-98 -217 -208 -217q-39 0 -61.5 32t-22.5 94q0 93 42.5 181t114.5 143t150 55q46 0 79 -18l24 18h4l-100 -382q-13 -39 -9.5 -61
t34.5 -36v-1zM314 614q83 0 109 79h8q-6 -47 -36.5 -84.5t-87.5 -37.5q-56 0 -79.5 38t-19.5 84h8q5 -38 31 -58.5t67 -20.5z" />
    <glyph glyph-name="Aogonek" unicode="&#x104;" horiz-adv-x="465" 
d="M248 -245q-34 0 -53.5 19t-19.5 54q0 94 118 162q42 24 51 78q5 25 1 59l-13 149h-202l-57 -124q-20 -45 -20.5 -87.5t15.5 -62.5v-2h-122v2q35 28 54 55t47 88l276 594h19l56 -617q4 -49 13 -72t29 -48v-2h-105q-55 -30 -83.5 -70.5t-28.5 -81.5q0 -54 50 -54
q53 0 89 58l6 -4q-50 -93 -120 -93zM330 296l-30 351l-161 -351h191z" />
    <glyph glyph-name="aogonek" unicode="&#x105;" horiz-adv-x="437" 
d="M198 -245q-34 0 -53.5 19t-19.5 54q0 52 36.5 97t93.5 71l57 206q-98 -217 -208 -217q-39 0 -61.5 32t-22.5 94q0 93 42.5 181t114.5 143t150 55q46 0 79 -18l24 18h4l-100 -382q-13 -39 -9.5 -61t34.5 -36v-1q-46 -5 -74 -15q-47 -18 -79.5 -61t-32.5 -89q0 -51 50 -51
q52 0 89 58l6 -4q-50 -93 -120 -93zM130 29q29 0 59 24t57 68.5t46 82t41 88.5l37 140q-23 35 -72 35q-59 0 -112 -54.5t-82 -133t-29 -153.5q0 -97 55 -97z" />
    <glyph glyph-name="Cacute" unicode="&#x106;" horiz-adv-x="598" 
d="M565 199l-40 -146q-29 -24 -88 -46t-129 -22q-126 0 -190.5 84.5t-64.5 230.5q0 117 46 219t130.5 165t187.5 63q56 0 106.5 -18.5t72.5 -34.5l11 -139l-8 -2q-36 92 -84 133t-112 41q-88 0 -155 -66t-99 -165.5t-32 -214.5q0 -121 50.5 -198.5t142.5 -77.5
q75 0 132 49.5t113 146.5zM302 789l224 170l31 -57l-251 -120z" />
    <glyph glyph-name="cacute" unicode="&#x107;" horiz-adv-x="374" 
d="M319 136l10 -4q-22 -68 -64.5 -107.5t-101.5 -39.5q-68 0 -105.5 51.5t-37.5 134.5q0 123 75 221t176 98q51 0 87 -26l8 -98l-10 -2q-23 51 -46.5 79.5t-57.5 28.5q-60 0 -117 -77t-57 -202q0 -165 110 -165q78 0 131 108zM195 539l158 210l42 -44l-195 -172z" />
    <glyph glyph-name="Ccircumflex" unicode="&#x108;" horiz-adv-x="598" 
d="M565 199l-40 -146q-29 -24 -88 -46t-129 -22q-126 0 -190.5 84.5t-64.5 230.5q0 117 46 219t130.5 165t187.5 63q56 0 106.5 -18.5t72.5 -34.5l11 -139l-8 -2q-36 92 -84 133t-112 41q-88 0 -155 -66t-99 -165.5t-32 -214.5q0 -121 50.5 -198.5t142.5 -77.5
q75 0 132 49.5t113 146.5zM555 782l-114 93l-166 -93l-4 7l177 156h4l110 -156z" />
    <glyph glyph-name="ccircumflex" unicode="&#x109;" horiz-adv-x="374" 
d="M319 136l10 -4q-22 -68 -64.5 -107.5t-101.5 -39.5q-68 0 -105.5 51.5t-37.5 134.5q0 123 75 221t176 98q51 0 87 -26l8 -98l-10 -2q-23 51 -46.5 79.5t-57.5 28.5q-60 0 -117 -77t-57 -202q0 -165 110 -165q78 0 131 108zM377 540l-91 106l-144 -106l-5 6l157 173h3
l88 -173z" />
    <glyph glyph-name="Cdotaccent" unicode="&#x10a;" horiz-adv-x="598" 
d="M565 199l-40 -146q-29 -24 -88 -46t-129 -22q-126 0 -190.5 84.5t-64.5 230.5q0 117 46 219t130.5 165t187.5 63q56 0 106.5 -18.5t72.5 -34.5l11 -139l-8 -2q-36 92 -84 133t-112 41q-88 0 -155 -66t-99 -165.5t-32 -214.5q0 -121 50.5 -198.5t142.5 -77.5
q75 0 132 49.5t113 146.5zM454 868q0 -17 -12 -29t-29 -12t-29 12t-12 29t12 29t29 12t29 -12t12 -29z" />
    <glyph glyph-name="cdotaccent" unicode="&#x10b;" horiz-adv-x="374" 
d="M319 136l10 -4q-22 -68 -64.5 -107.5t-101.5 -39.5q-68 0 -105.5 51.5t-37.5 134.5q0 123 75 221t176 98q51 0 87 -26l8 -98l-10 -2q-23 51 -46.5 79.5t-57.5 28.5q-60 0 -117 -77t-57 -202q0 -165 110 -165q78 0 131 108zM303 659q0 -17 -12 -29t-29 -12t-29 12t-12 29
t12 29t29 12t29 -12t12 -29z" />
    <glyph glyph-name="Ccaron" unicode="&#x10c;" horiz-adv-x="598" 
d="M565 199l-40 -146q-29 -24 -88 -46t-129 -22q-126 0 -190.5 84.5t-64.5 230.5q0 117 46 219t130.5 165t187.5 63q56 0 106.5 -18.5t72.5 -34.5l11 -139l-8 -2q-36 92 -84 133t-112 41q-88 0 -155 -66t-99 -165.5t-32 -214.5q0 -121 50.5 -198.5t142.5 -77.5
q75 0 132 49.5t113 146.5zM405 782h-4l-110 156l7 7l114 -93l166 93l4 -7z" />
    <glyph glyph-name="ccaron" unicode="&#x10d;" horiz-adv-x="374" 
d="M319 136l10 -4q-22 -68 -64.5 -107.5t-101.5 -39.5q-68 0 -105.5 51.5t-37.5 134.5q0 123 75 221t176 98q51 0 87 -26l8 -98l-10 -2q-23 51 -46.5 79.5t-57.5 28.5q-60 0 -117 -77t-57 -202q0 -165 110 -165q78 0 131 108zM248 540h-3l-88 173l8 6l91 -106l144 106l5 -6z
" />
    <glyph glyph-name="Dcaron" unicode="&#x10e;" horiz-adv-x="583" 
d="M24 0v2q26 42 42 130l84 469q14 78 -6 129v2q55 0 88.5 1.5t84.5 1.5q259 0 259 -291q0 -188 -108.5 -316t-280.5 -128h-163zM301 716h-77l-126 -699l86 2q83 2 147.5 40.5t103 101.5t58 137.5t19.5 155.5q0 262 -211 262zM360 782h-4l-110 156l7 7l114 -93l166 93l4 -7z
" />
    <glyph glyph-name="dcaron" unicode="&#x10f;" horiz-adv-x="447" 
d="M135 29q30 0 59.5 23t56.5 66t45.5 79t41.5 87l26 122q-3 22 -26.5 41.5t-65.5 19.5q-51 0 -97 -54.5t-71.5 -133.5t-25.5 -155q0 -95 57 -95zM271 -9l58 232q-46 -106 -102 -172t-118 -66q-89 0 -89 129q0 91 39 178.5t105 142.5t137 55q45 0 78 -14l32 149
q10 49 6 72.5t-24 46.5v2l100 33l-144 -671q-12 -39 -8.5 -61t33.5 -36v-1zM499 574l67 201h66l-127 -203z" />
    <glyph glyph-name="Dcroat" unicode="&#x110;" horiz-adv-x="593" 
d="M32 358l4 18h83l41 225q14 78 -6 129v2q55 0 88.5 1.5t84.5 1.5q259 0 259 -291q0 -188 -108.5 -316t-280.5 -128h-163v2q26 42 42 130l40 226h-84zM311 716h-77l-62 -340h168l-4 -18h-167l-61 -341l86 2q83 2 147.5 40.5t103 101.5t58 137.5t19.5 155.5q0 262 -211 262z
" />
    <glyph glyph-name="dcroat" unicode="&#x111;" horiz-adv-x="447" 
d="M271 -9l58 232q-46 -106 -102 -172t-118 -66q-89 0 -89 129q0 91 39 178.5t105 142.5t137 55q45 0 78 -14l22 103h-154l4 18h154l6 28q10 49 6 72.5t-24 46.5v2l100 33l-39 -182h76l-4 -18h-76l-101 -471q-12 -39 -8.5 -61t33.5 -36v-1zM135 29q30 0 59.5 23t56.5 66
t45.5 79t41.5 87l26 122q-3 22 -26.5 41.5t-65.5 19.5q-51 0 -97 -54.5t-71.5 -133.5t-25.5 -155q0 -95 57 -95z" />
    <glyph glyph-name="Emacron" unicode="&#x112;" horiz-adv-x="496" 
d="M460 162l-60 -162h-376v2q25 39 42 130l84 469q14 78 -6 129v2h326l11 -145l-8 -2q-33 70 -56 96t-61 27l-132 4l-60 -334h97q8 0 15 2.5t14.5 8t13 10.5t13 15t12 15.5t12.5 17t11 16.5h8l-29 -185h-8q-12 31 -17.5 43.5t-18 24.5t-29.5 12h-98l-61 -340l162 5
q14 0 26 2t24 7t20 8t20 13.5t17.5 15t19.5 20t19 21.5t22 26.5t23 28.5zM208 838l7 35h254l-7 -35h-254z" />
    <glyph glyph-name="emacron" unicode="&#x113;" horiz-adv-x="364" 
d="M276 472q-52 0 -100 -44t-75 -116q225 21 225 112q0 48 -50 48zM310 105q-26 -54 -68 -87t-92 -33q-60 0 -95 47t-35 125q0 126 80.5 229.5t185.5 103.5q39 0 63.5 -17t24.5 -50q0 -55 -66 -89.5t-211 -33.5q-19 -59 -19 -124q0 -151 97 -151q67 0 125 85zM154 610l7 35
h241l-8 -35h-240z" />
    <glyph glyph-name="Ebreve" unicode="&#x114;" horiz-adv-x="496" 
d="M460 162l-60 -162h-376v2q25 39 42 130l84 469q14 78 -6 129v2h326l11 -145l-8 -2q-33 70 -56 96t-61 27l-132 4l-60 -334h97q8 0 15 2.5t14.5 8t13 10.5t13 15t12 15.5t12.5 17t11 16.5h8l-29 -185h-8q-12 31 -17.5 43.5t-18 24.5t-29.5 12h-98l-61 -340l162 5
q14 0 26 2t24 7t20 8t20 13.5t17.5 15t19.5 20t19 21.5t22 26.5t23 28.5zM332 846q95 0 128 81h7q-4 -22 -12.5 -42t-24 -40.5t-42 -33t-60.5 -12.5t-58 12.5t-35.5 33.5t-16.5 41t-4 41h7q18 -81 111 -81z" />
    <glyph glyph-name="ebreve" unicode="&#x115;" horiz-adv-x="364" 
d="M276 472q-52 0 -100 -44t-75 -116q225 21 225 112q0 48 -50 48zM310 105q-26 -54 -68 -87t-92 -33q-60 0 -95 47t-35 125q0 126 80.5 229.5t185.5 103.5q39 0 63.5 -17t24.5 -50q0 -55 -66 -89.5t-211 -33.5q-19 -59 -19 -124q0 -151 97 -151q67 0 125 85zM262 614
q83 0 109 79h8q-6 -47 -36.5 -84.5t-87.5 -37.5q-56 0 -79.5 38t-19.5 84h8q5 -38 31 -58.5t67 -20.5z" />
    <glyph glyph-name="Edotaccent" unicode="&#x116;" horiz-adv-x="496" 
d="M460 162l-60 -162h-376v2q25 39 42 130l84 469q14 78 -6 129v2h326l11 -145l-8 -2q-33 70 -56 96t-61 27l-132 4l-60 -334h97q8 0 15 2.5t14.5 8t13 10.5t13 15t12 15.5t12.5 17t11 16.5h8l-29 -185h-8q-12 31 -17.5 43.5t-18 24.5t-29.5 12h-98l-61 -340l162 5
q14 0 26 2t24 7t20 8t20 13.5t17.5 15t19.5 20t19 21.5t22 26.5t23 28.5zM378 868q0 -17 -12 -29t-29 -12t-29 12t-12 29t12 29t29 12t29 -12t12 -29z" />
    <glyph glyph-name="edotaccent" unicode="&#x117;" horiz-adv-x="364" 
d="M276 472q-52 0 -100 -44t-75 -116q225 21 225 112q0 48 -50 48zM310 105q-26 -54 -68 -87t-92 -33q-60 0 -95 47t-35 125q0 126 80.5 229.5t185.5 103.5q39 0 63.5 -17t24.5 -50q0 -55 -66 -89.5t-211 -33.5q-19 -59 -19 -124q0 -151 97 -151q67 0 125 85zM306 659
q0 -17 -12 -29t-29 -12t-29 12t-12 29t12 29t29 12t29 -12t12 -29z" />
    <glyph glyph-name="Eogonek" unicode="&#x118;" horiz-adv-x="496" 
d="M460 162l-60 -162h-98q-54 -29 -83 -72t-29 -82q0 -52 50 -52q52 0 89 58l6 -4q-23 -42 -50.5 -67.5t-69.5 -25.5q-34 0 -53.5 19t-19.5 54q0 49 38 96t99 76h-255v2q25 39 42 130l84 469q14 78 -6 129v2h326l11 -145l-8 -2q-33 70 -56 96t-61 27l-132 4l-60 -334h97
q8 0 15 2.5t14.5 8t13 10.5t13 15t12 15.5t12.5 17t11 16.5h8l-29 -185h-8q-12 31 -17.5 43.5t-18 24.5t-29.5 12h-98l-61 -340l162 5q14 0 26 2t24 7t20 8t20 13.5t17.5 15t19.5 20t19 21.5t22 26.5t23 28.5z" />
    <glyph glyph-name="eogonek" unicode="&#x119;" horiz-adv-x="364" 
d="M276 472q-52 0 -100 -44t-75 -116q225 21 225 112q0 48 -50 48zM246 -152q-23 -42 -50.5 -67.5t-69.5 -25.5q-34 0 -53.5 19t-19.5 54q0 50 32.5 91.5t80.5 66.5q-4 -1 -16 -1q-60 0 -95 47t-35 125q0 126 80.5 229.5t185.5 103.5q39 0 63.5 -17t24.5 -50
q0 -55 -66 -89.5t-211 -33.5q-19 -59 -19 -124q0 -151 97 -151q67 0 125 85l10 -5q-18 -41 -52 -73q-14 -14 -45.5 -33.5t-35.5 -21.5q-76 -57 -76 -131q0 -52 50 -52q52 0 89 58z" />
    <glyph glyph-name="Ecaron" unicode="&#x11a;" horiz-adv-x="496" 
d="M460 162l-60 -162h-376v2q25 39 42 130l84 469q14 78 -6 129v2h326l11 -145l-8 -2q-33 70 -56 96t-61 27l-132 4l-60 -334h97q8 0 15 2.5t14.5 8t13 10.5t13 15t12 15.5t12.5 17t11 16.5h8l-29 -185h-8q-12 31 -17.5 43.5t-18 24.5t-29.5 12h-98l-61 -340l162 5
q14 0 26 2t24 7t20 8t20 13.5t17.5 15t19.5 20t19 21.5t22 26.5t23 28.5zM326 782h-4l-110 156l7 7l114 -93l166 93l4 -7z" />
    <glyph glyph-name="ecaron" unicode="&#x11b;" horiz-adv-x="364" 
d="M276 472q-52 0 -100 -44t-75 -116q225 21 225 112q0 48 -50 48zM310 105q-26 -54 -68 -87t-92 -33q-60 0 -95 47t-35 125q0 126 80.5 229.5t185.5 103.5q39 0 63.5 -17t24.5 -50q0 -55 -66 -89.5t-211 -33.5q-19 -59 -19 -124q0 -151 97 -151q67 0 125 85zM251 540h-3
l-88 173l8 6l91 -106l144 106l5 -6z" />
    <glyph glyph-name="Gcircumflex" unicode="&#x11c;" horiz-adv-x="616" 
d="M594 322q-26 -42 -42 -130l-19 -105q-4 -3 -26.5 -22.5t-36.5 -29t-40 -23.5t-56 -20.5t-66 -6.5q-124 0 -189.5 85t-65.5 231q0 116 45.5 218t130 165t188.5 63q56 0 106.5 -18.5t72.5 -34.5l11 -139l-8 -2q-36 92 -84 133t-112 41q-88 0 -155 -66t-99 -165.5
t-32 -213.5q0 -126 46 -201.5t149 -75.5q163 0 190 208q9 63 -9 109v2h101v-2zM555 782l-114 93l-166 -93l-4 7l177 156h4l110 -156z" />
    <glyph glyph-name="gcircumflex" unicode="&#x11d;" horiz-adv-x="393" 
d="M102 268q0 -50 14 -74.5t48 -24.5q54 0 92 57t38 147q0 51 -14 75t-48 24q-54 0 -92 -57.5t-38 -146.5zM327 -71q0 -61 -59.5 -107.5t-156.5 -46.5q-75 0 -123.5 29t-48.5 80t47 84.5t113 42.5q-43 22 -43 67q0 31 17.5 52t44.5 30q-34 14 -53 48t-19 74q0 78 60.5 143
t125.5 65q33 0 60 -16l140 24h1l-13 -59h-4l-108 23q42 -38 42 -103q0 -78 -60.5 -143t-125.5 -65q-18 0 -30 4q-44 -15 -44 -52q0 -52 104 -70q26 -5 43.5 -10.5t41 -16.5t36 -30.5t12.5 -46.5zM125 -200q76 0 121.5 32t45.5 78q0 17 -8.5 30t-17 20t-29.5 14t-29 8.5
t-33 6.5q-46 9 -63 16q-60 -11 -91.5 -41t-31.5 -71q0 -42 33.5 -67.5t102.5 -25.5zM356 540l-91 106l-144 -106l-5 6l157 173h3l88 -173z" />
    <glyph glyph-name="Gbreve" unicode="&#x11e;" horiz-adv-x="616" 
d="M594 322q-26 -42 -42 -130l-19 -105q-4 -3 -26.5 -22.5t-36.5 -29t-40 -23.5t-56 -20.5t-66 -6.5q-124 0 -189.5 85t-65.5 231q0 116 45.5 218t130 165t188.5 63q56 0 106.5 -18.5t72.5 -34.5l11 -139l-8 -2q-36 92 -84 133t-112 41q-88 0 -155 -66t-99 -165.5
t-32 -213.5q0 -126 46 -201.5t149 -75.5q163 0 190 208q9 63 -9 109v2h101v-2zM408 846q95 0 128 81h7q-4 -22 -12.5 -42t-24 -40.5t-42 -33t-60.5 -12.5t-58 12.5t-35.5 33.5t-16.5 41t-4 41h7q18 -81 111 -81z" />
    <glyph glyph-name="gbreve" unicode="&#x11f;" horiz-adv-x="393" 
d="M102 268q0 -50 14 -74.5t48 -24.5q54 0 92 57t38 147q0 51 -14 75t-48 24q-54 0 -92 -57.5t-38 -146.5zM327 -71q0 -61 -59.5 -107.5t-156.5 -46.5q-75 0 -123.5 29t-48.5 80t47 84.5t113 42.5q-43 22 -43 67q0 31 17.5 52t44.5 30q-34 14 -53 48t-19 74q0 78 60.5 143
t125.5 65q33 0 60 -16l140 24h1l-13 -59h-4l-108 23q42 -38 42 -103q0 -78 -60.5 -143t-125.5 -65q-18 0 -30 4q-44 -15 -44 -52q0 -52 104 -70q26 -5 43.5 -10.5t41 -16.5t36 -30.5t12.5 -46.5zM125 -200q76 0 121.5 32t45.5 78q0 17 -8.5 30t-17 20t-29.5 14t-29 8.5
t-33 6.5q-46 9 -63 16q-60 -11 -91.5 -41t-31.5 -71q0 -42 33.5 -67.5t102.5 -25.5zM268 614q83 0 109 79h8q-6 -47 -36.5 -84.5t-87.5 -37.5q-56 0 -79.5 38t-19.5 84h8q5 -38 31 -58.5t67 -20.5z" />
    <glyph glyph-name="Gdotaccent" unicode="&#x120;" horiz-adv-x="616" 
d="M594 322q-26 -42 -42 -130l-19 -105q-4 -3 -26.5 -22.5t-36.5 -29t-40 -23.5t-56 -20.5t-66 -6.5q-124 0 -189.5 85t-65.5 231q0 116 45.5 218t130 165t188.5 63q56 0 106.5 -18.5t72.5 -34.5l11 -139l-8 -2q-36 92 -84 133t-112 41q-88 0 -155 -66t-99 -165.5
t-32 -213.5q0 -126 46 -201.5t149 -75.5q163 0 190 208q9 63 -9 109v2h101v-2zM454 868q0 -17 -12 -29t-29 -12t-29 12t-12 29t12 29t29 12t29 -12t12 -29z" />
    <glyph glyph-name="gdotaccent" unicode="&#x121;" horiz-adv-x="393" 
d="M102 268q0 -50 14 -74.5t48 -24.5q54 0 92 57t38 147q0 51 -14 75t-48 24q-54 0 -92 -57.5t-38 -146.5zM327 -71q0 -61 -59.5 -107.5t-156.5 -46.5q-75 0 -123.5 29t-48.5 80t47 84.5t113 42.5q-43 22 -43 67q0 31 17.5 52t44.5 30q-34 14 -53 48t-19 74q0 78 60.5 143
t125.5 65q33 0 60 -16l140 24h1l-13 -59h-4l-108 23q42 -38 42 -103q0 -78 -60.5 -143t-125.5 -65q-18 0 -30 4q-44 -15 -44 -52q0 -52 104 -70q26 -5 43.5 -10.5t41 -16.5t36 -30.5t12.5 -46.5zM125 -200q76 0 121.5 32t45.5 78q0 17 -8.5 30t-17 20t-29.5 14t-29 8.5
t-33 6.5q-46 9 -63 16q-60 -11 -91.5 -41t-31.5 -71q0 -42 33.5 -67.5t102.5 -25.5zM302 659q0 -17 -12 -29t-29 -12t-29 12t-12 29t12 29t29 12t29 -12t12 -29z" />
    <glyph glyph-name="uni0122" unicode="&#x122;" horiz-adv-x="616" 
d="M594 322q-26 -42 -42 -130l-19 -105q-4 -3 -26.5 -22.5t-36.5 -29t-40 -23.5t-56 -20.5t-66 -6.5q-124 0 -189.5 85t-65.5 231q0 116 45.5 218t130 165t188.5 63q56 0 106.5 -18.5t72.5 -34.5l11 -139l-8 -2q-36 92 -84 133t-112 41q-88 0 -155 -66t-99 -165.5
t-32 -213.5q0 -126 46 -201.5t149 -75.5q163 0 190 208q9 63 -9 109v2h101v-2zM192 -224l-4 6q64 38 64 74q0 31 -33 58v2l41 34q36 -30 36 -61q0 -54 -104 -113z" />
    <glyph glyph-name="uni0123" unicode="&#x123;" horiz-adv-x="393" 
d="M102 268q0 -50 14 -74.5t48 -24.5q54 0 92 57t38 147q0 51 -14 75t-48 24q-54 0 -92 -57.5t-38 -146.5zM327 -71q0 -61 -59.5 -107.5t-156.5 -46.5q-75 0 -123.5 29t-48.5 80t47 84.5t113 42.5q-43 22 -43 67q0 31 17.5 52t44.5 30q-34 14 -53 48t-19 74q0 78 60.5 143
t125.5 65q33 0 60 -16l140 24h1l-13 -59h-4l-108 23q42 -38 42 -103q0 -78 -60.5 -143t-125.5 -65q-18 0 -30 4q-44 -15 -44 -52q0 -52 104 -70q26 -5 43.5 -10.5t41 -16.5t36 -30.5t12.5 -46.5zM125 -200q76 0 121.5 32t45.5 78q0 17 -8.5 30t-17 20t-29.5 14t-29 8.5
t-33 6.5q-46 9 -63 16q-60 -11 -91.5 -41t-31.5 -71q0 -42 33.5 -67.5t102.5 -25.5zM318 754l4 -6q-64 -38 -64 -74q0 -31 33 -58v-2l-41 -34q-36 30 -36 61q0 54 104 113z" />
    <glyph glyph-name="Hcircumflex" unicode="&#x124;" horiz-adv-x="583" 
d="M24 0v2q26 42 42 130l84 469q14 78 -6 129v2h101v-2q-26 -42 -42 -130l-38 -212h307l38 213q14 78 -6 129v2h101v-2q-26 -42 -42 -130l-84 -469q-14 -78 6 -129v-2h-101v2q26 42 42 130l42 236h-307l-42 -237q-14 -78 6 -129v-2h-101zM520 782l-114 93l-166 -93l-4 7
l177 156h4l110 -156z" />
    <glyph glyph-name="hcircumflex" unicode="&#x125;" horiz-adv-x="462" 
d="M288 -9l78 367q9 40 -0.5 66.5t-38.5 26.5q-42 0 -100 -70t-123 -217l-8 -41q-15 -79 -3 -121v-2h-88v2q5 7 8.5 13.5t7.5 15.5t6.5 14.5t5.5 17t4.5 16.5t5 19.5t4.5 19.5l4.5 22.5l4.5 22.5l99 462q10 49 6 72.5t-24 46.5v2l100 33l-121 -551q51 118 113.5 190
t123.5 72q42 0 58.5 -36t2.5 -99l-51 -240q-14 -56 -6.5 -79.5t46.5 -27.5v-2zM466 802l-114 93l-166 -93l-4 7l177 156h4l110 -156z" />
    <glyph glyph-name="Hbar" unicode="&#x126;" horiz-adv-x="603" 
d="M34 0v2q26 42 42 130l74 416h-100l4 18h99l7 35q14 78 -6 129v2h101v-2q-26 -42 -42 -130l-6 -34h306l7 35q14 78 -6 129v2h101v-2q-26 -42 -42 -130l-6 -34h101l-4 -18h-100l-75 -417q-14 -78 6 -129v-2h-101v2q26 42 42 130l42 236h-307l-42 -237q-14 -78 6 -129v-2
h-101zM175 388h307l28 160h-307z" />
    <glyph glyph-name="hbar" unicode="&#x127;" horiz-adv-x="462" 
d="M288 -9l78 367q9 40 -0.5 66.5t-38.5 26.5q-42 0 -100 -70t-123 -217l-8 -41q-15 -79 -3 -121v-2h-88v2q5 7 8.5 13.5t7.5 15.5t6.5 14.5t5.5 17t4.5 16.5t5 19.5t4.5 19.5l4.5 22.5l4.5 22.5l89 416h-70l4 18h70l6 28q10 49 6 72.5t-24 46.5v2l100 33l-40 -182h160
l-4 -18h-160l-77 -351q51 118 113.5 190t123.5 72q42 0 58.5 -36t2.5 -99l-51 -240q-14 -56 -6.5 -79.5t46.5 -27.5v-2z" />
    <glyph glyph-name="Itilde" unicode="&#x128;" horiz-adv-x="224" 
d="M125 0h-101v2q26 42 42 130l84 469q14 78 -6 129v2h101v-2q-26 -42 -42 -130l-84 -469q-14 -78 6 -129v-2zM161 896q27 0 67 -25.5t65 -25.5t41 15.5t32 51.5l7 -1q-29 -109 -107 -109q-28 0 -68.5 25.5t-64.5 25.5q-47 0 -76 -67l-8 1q11 40 38 74.5t74 34.5z" />
    <glyph glyph-name="itilde" unicode="&#x129;" 
d="M7 0v2q27 46 51 161l35 178q16 74 -18 119v2l104 33l-70 -329q-15 -70 -17.5 -102t5.5 -62v-2h-90zM120 678q24 0 60.5 -16.5t58.5 -16.5q39 0 63 47l7 -1q-26 -95 -95 -95q-24 0 -60.5 16.5t-58.5 16.5q-39 0 -63 -47l-7 1q26 95 95 95z" />
    <glyph glyph-name="Imacron" unicode="&#x12a;" horiz-adv-x="224" 
d="M125 0h-101v2q26 42 42 130l84 469q14 78 -6 129v2h101v-2q-26 -42 -42 -130l-84 -469q-14 -78 6 -129v-2zM88 838l7 35h254l-7 -35h-254z" />
    <glyph glyph-name="imacron" unicode="&#x12b;" 
d="M78 610l7 35h171l-8 -35h-170zM7 0v2q27 46 51 161l35 178q16 74 -18 119v2l104 33l-70 -329q-15 -70 -17.5 -102t5.5 -62v-2h-90z" />
    <glyph glyph-name="Ibreve" unicode="&#x12c;" horiz-adv-x="224" 
d="M125 0h-101v2q26 42 42 130l84 469q14 78 -6 129v2h101v-2q-26 -42 -42 -130l-84 -469q-14 -78 6 -129v-2zM213 846q95 0 128 81h7q-4 -22 -12.5 -42t-24 -40.5t-42 -33t-60.5 -12.5t-58 12.5t-35.5 33.5t-16.5 41t-4 41h7q18 -81 111 -81z" />
    <glyph glyph-name="ibreve" unicode="&#x12d;" 
d="M7 0v2q27 46 51 161l35 178q16 74 -18 119v2l104 33l-70 -329q-15 -70 -17.5 -102t5.5 -62v-2h-90zM173 614q83 0 109 79h8q-6 -47 -36.5 -84.5t-87.5 -37.5q-56 0 -79.5 38t-19.5 84h8q5 -38 31 -58.5t67 -20.5z" />
    <glyph glyph-name="Iogonek" unicode="&#x12e;" horiz-adv-x="224" 
d="M125 0h-21q-54 -29 -83 -72t-29 -82q0 -52 50 -52q52 0 89 58l6 -4q-23 -42 -50.5 -67.5t-69.5 -25.5q-34 0 -53.5 19t-19.5 54q0 49 38 96t99 76h-57v2q26 42 42 130l84 469q14 78 -6 129v2h101v-2q-26 -42 -42 -130l-84 -469q-14 -78 6 -129v-2z" />
    <glyph glyph-name="iogonek" unicode="&#x12f;" 
d="M7 0v2q28 40 51 161l35 178q15 75 -18 119v2l96 33l-73 -372q-15 -79 -3 -121v-2h-7q-54 -29 -83 -72t-29 -82q0 -52 50 -52q52 0 89 58l6 -4q-23 -42 -50.5 -67.5t-69.5 -25.5q-34 0 -53.5 19t-19.5 54q0 49 38 96t99 76h-58zM216 659q0 -17 -12 -29t-29 -12t-29 12
t-12 29t12 29t29 12t29 -12t12 -29z" />
    <glyph glyph-name="Idotaccent" unicode="&#x130;" horiz-adv-x="224" 
d="M125 0h-101v2q26 42 42 130l84 469q14 78 -6 129v2h101v-2q-26 -42 -42 -130l-84 -469q-14 -78 6 -129v-2zM259 868q0 -17 -12 -29t-29 -12t-29 12t-12 29t12 29t29 12t29 -12t12 -29z" />
    <glyph glyph-name="dotlessi" unicode="&#x131;" horiz-adv-x="192" 
d="M7 0v2q27 46 51 161l35 178q16 74 -18 119v2l104 33l-70 -329q-15 -70 -17.5 -102t5.5 -62v-2h-90z" />
    <glyph glyph-name="IJ" unicode="&#x132;" horiz-adv-x="541" 
d="M125 0h-101v2q26 42 42 130l84 469q14 78 -6 129v2h101v-2q-26 -42 -42 -130l-84 -469q-14 -78 6 -129v-2zM441 123q-25 -138 -124 -138q-42 0 -79 23l9 125l8 2q20 -69 35.5 -99.5t37.5 -30.5q39 0 55 88l91 508q14 78 -6 129v2h101v-2q-26 -42 -42 -130z" />
    <glyph glyph-name="ij" unicode="&#x133;" horiz-adv-x="375" 
d="M216 659q0 -17 -12 -29t-29 -12t-29 12t-12 29t12 29t29 12t29 -12t12 -29zM7 0v2q28 40 51 161l35 178q15 75 -18 119v2l96 33l-73 -372q-15 -79 -3 -121v-2h-88zM405 659q0 -17 -12 -29t-29 -12t-29 12t-12 29t12 29t29 12t29 -12t12 -29zM134 -210q44 33 63 128
l85 423q15 75 -18 119v2l96 33l-108 -547q-13 -69 -44.5 -112t-71.5 -51z" />
    <glyph glyph-name="Jcircumflex" unicode="&#x134;" horiz-adv-x="312" 
d="M211 123q-25 -138 -124 -138q-42 0 -79 23l9 125l8 2q20 -69 35.5 -99.5t37.5 -30.5q39 0 55 88l91 508q14 78 -6 129v2h101v-2q-26 -42 -42 -130zM429 782l-114 93l-166 -93l-4 7l177 156h4l110 -156z" />
    <glyph glyph-name="jcircumflex" unicode="&#x135;" horiz-adv-x="182" 
d="M-59 -210q44 33 63 128l85 423q15 75 -18 119v2l104 33l-118 -547q-32 -147 -114 -163zM262 540l-91 106l-144 -106l-5 6l157 173h3l88 -173z" />
    <glyph glyph-name="uni0136" unicode="&#x136;" horiz-adv-x="498" 
d="M24 0v2q26 42 42 130l84 469q14 78 -6 129v2h101v-2q-26 -42 -42 -130l-84 -469q-14 -78 6 -129v-2h-101zM467 0h-90l-200 361l213 248q20 24 29.5 36.5t17.5 28t6.5 28.5t-9.5 28v2h126v-2q-45 -25 -74.5 -50.5t-65.5 -68.5l-198 -228l160 -287q20 -38 37 -57t48 -37v-2
zM163 -224l-4 6q64 38 64 74q0 31 -33 58v2l41 34q36 -30 36 -61q0 -54 -104 -113z" />
    <glyph glyph-name="uni0137" unicode="&#x137;" horiz-adv-x="392" 
d="M93 0h-88v2q5 7 8.5 13.5t7.5 15.5t6.5 14.5t5.5 17t4.5 16.5t5 19.5t4.5 19.5l4.5 22.5l4.5 22.5l99 462q10 49 6 72.5t-24 46.5v2l100 33l-132 -614q-15 -70 -17.5 -101.5t5.5 -61.5v-2zM270 0l-131 248l142 143q52 54 28 82v2h120v-2q-40 -14 -63 -31t-73 -67
l-107 -106l95 -177q21 -40 37 -58.5t42 -31.5v-2h-90zM100 -224l-4 6q64 38 64 74q0 31 -33 58v2l41 34q36 -30 36 -61q0 -54 -104 -113z" />
    <glyph glyph-name="Lacute" unicode="&#x139;" horiz-adv-x="475" 
d="M381 0h-357v2q26 42 42 130l84 469q14 78 -6 129v2h101v-2q-26 -42 -42 -130l-104 -585l161 9q38 2 72 23t53.5 43t60.5 75l5 -3zM127 789l224 170l31 -57l-251 -120z" />
    <glyph glyph-name="lacute" unicode="&#x13a;" 
d="M93 0h-88v2q5 7 8.5 13.5t7.5 15.5t6.5 14.5t5.5 17t4.5 16.5t5 19.5t4.5 19.5l4.5 22.5l4.5 22.5l99 462q10 49 6 72.5t-24 46.5v2l100 33l-132 -614q-15 -70 -17.5 -101.5t5.5 -61.5v-2zM97 789l224 170l31 -57l-251 -120z" />
    <glyph glyph-name="uni013B" unicode="&#x13b;" horiz-adv-x="475" 
d="M381 0h-357v2q26 42 42 130l84 469q14 78 -6 129v2h101v-2q-26 -42 -42 -130l-104 -585l161 9q38 2 72 23t53.5 43t60.5 75l5 -3zM150 -224l-4 6q64 38 64 74q0 31 -33 58v2l41 34q36 -30 36 -61q0 -54 -104 -113z" />
    <glyph glyph-name="uni013C" unicode="&#x13c;" 
d="M93 0h-88v2q5 7 8.5 13.5t7.5 15.5t6.5 14.5t5.5 17t4.5 16.5t5 19.5t4.5 19.5l4.5 22.5l4.5 22.5l99 462q10 49 6 72.5t-24 46.5v2l100 33l-132 -614q-15 -70 -17.5 -101.5t5.5 -61.5v-2zM-23 -224l-4 6q64 38 64 74q0 31 -33 58v2l41 34q36 -30 36 -61q0 -54 -104 -113
z" />
    <glyph glyph-name="Lcaron" unicode="&#x13d;" horiz-adv-x="475" 
d="M381 0h-357v2q26 42 42 130l84 469q14 78 -6 129v2h101v-2q-26 -42 -42 -130l-104 -585l161 9q38 2 72 23t53.5 43t60.5 75l5 -3zM248 531l67 201h66l-127 -203z" />
    <glyph glyph-name="lcaron" unicode="&#x13e;" 
d="M93 0h-88v2q5 7 8.5 13.5t7.5 15.5t6.5 14.5t5.5 17t4.5 16.5t5 19.5t4.5 19.5l4.5 22.5l4.5 22.5l99 462q10 49 6 72.5t-24 46.5v2l100 33l-132 -614q-15 -70 -17.5 -101.5t5.5 -61.5v-2zM237 574l67 201h66l-127 -203z" />
    <glyph glyph-name="Ldot" unicode="&#x13f;" horiz-adv-x="475" 
d="M381 0h-357v2q26 42 42 130l84 469q14 78 -6 129v2h101v-2q-26 -42 -42 -130l-104 -585l161 9q38 2 72 23t53.5 43t60.5 75l5 -3zM385 317q-19 0 -33 14t-14 33t14 33t33 14t33 -13.5t14 -33.5t-14 -33.5t-33 -13.5z" />
    <glyph glyph-name="ldot" unicode="&#x140;" horiz-adv-x="295" 
d="M93 0h-88v2q5 7 8.5 13.5t7.5 15.5t6.5 14.5t5.5 17t4.5 16.5t5 19.5t4.5 19.5l4.5 22.5l4.5 22.5l99 462q10 49 6 72.5t-24 46.5v2l100 33l-132 -614q-15 -70 -17.5 -101.5t5.5 -61.5v-2zM268 307q-19 0 -33 14t-14 33t14 33t33 14q20 0 33.5 -13.5t13.5 -33.5
t-13.5 -33.5t-33.5 -13.5z" />
    <glyph glyph-name="Lslash" unicode="&#x141;" horiz-adv-x="485" 
d="M18 219l5 25l82 50l55 307q14 78 -6 129v2h101v-2q-26 -42 -42 -130l-48 -270l208 127l-5 -25l-207 -126l-52 -291l161 9q38 2 72 23t53.5 43t60.5 75l5 -3l-70 -162h-357v2q26 42 42 130l24 137z" />
    <glyph glyph-name="lslash" unicode="&#x142;" horiz-adv-x="209" 
d="M17 267v24l93 73l56 261q10 49 6 72.5t-24 46.5v2l100 33l-79 -369l86 67v-24l-93 -73l-46 -215q-15 -70 -17.5 -101.5t5.5 -61.5v-2h-88v2q5 7 8.5 13.5t7.5 15.5t6.5 14.5t5.5 17t4.5 16.5t5 19.5t4.5 19.5l4.5 22.5l4.5 22.5l37 172z" />
    <glyph glyph-name="Nacute" unicode="&#x143;" horiz-adv-x="597" 
d="M456 -3l-276 650l-87 -483q-11 -51 -9 -84t23 -78v-2h-101v2q32 45 43 75t22 87l73 404v-1q12 58 9.5 92t-30.5 71v2h80l267 -630l84 466q11 51 9 84t-23 78v2h101v-2q-32 -46 -43.5 -76.5t-21.5 -85.5l-102 -568zM299 789l224 170l31 -57l-251 -120z" />
    <glyph glyph-name="nacute" unicode="&#x144;" horiz-adv-x="466" 
d="M290 -9l81 367q9 40 -0.5 66.5t-38.5 26.5q-42 0 -99.5 -70t-121.5 -214l-10 -44q-16 -76 -3 -121v-2h-88v2q5 7 8.5 13.5t7.5 15.5t6.5 14.5t5.5 17t4.5 16.5t5 19.5t4.5 19.5l4.5 22.5l4.5 22.5l38 178q16 74 -18 119v2l100 33l-58 -262q51 116 113 186.5t122 70.5
q42 0 58.5 -36t2.5 -99l-54 -240q-14 -56 -6.5 -79.5t46.5 -27.5v-2zM220 539l158 210l42 -44l-195 -172z" />
    <glyph glyph-name="uni0145" unicode="&#x145;" horiz-adv-x="597" 
d="M456 -3l-276 650l-87 -483q-11 -51 -9 -84t23 -78v-2h-101v2q32 45 43 75t22 87l73 404v-1q12 58 9.5 92t-30.5 71v2h80l267 -630l84 466q11 51 9 84t-23 78v2h101v-2q-32 -46 -43.5 -76.5t-21.5 -85.5l-102 -568zM189 -224l-4 6q64 38 64 74q0 31 -33 58v2l41 34
q36 -30 36 -61q0 -54 -104 -113z" />
    <glyph glyph-name="uni0146" unicode="&#x146;" horiz-adv-x="466" 
d="M290 -9l81 367q9 40 -0.5 66.5t-38.5 26.5q-42 0 -99.5 -70t-121.5 -214l-10 -44q-16 -76 -3 -121v-2h-88v2q5 7 8.5 13.5t7.5 15.5t6.5 14.5t5.5 17t4.5 16.5t5 19.5t4.5 19.5l4.5 22.5l4.5 22.5l38 178q16 74 -18 119v2l100 33l-58 -262q51 116 113 186.5t122 70.5
q42 0 58.5 -36t2.5 -99l-54 -240q-14 -56 -6.5 -79.5t46.5 -27.5v-2zM120 -224l-4 6q64 38 64 74q0 31 -33 58v2l41 34q36 -30 36 -61q0 -54 -104 -113z" />
    <glyph glyph-name="Ncaron" unicode="&#x147;" horiz-adv-x="597" 
d="M456 -3l-276 650l-87 -483q-11 -51 -9 -84t23 -78v-2h-101v2q32 45 43 75t22 87l73 404v-1q12 58 9.5 92t-30.5 71v2h80l267 -630l84 466q11 51 9 84t-23 78v2h101v-2q-32 -46 -43.5 -76.5t-21.5 -85.5l-102 -568zM401 782h-4l-110 156l7 7l114 -93l166 93l4 -7z" />
    <glyph glyph-name="ncaron" unicode="&#x148;" horiz-adv-x="466" 
d="M290 -9l81 367q9 40 -0.5 66.5t-38.5 26.5q-42 0 -99.5 -70t-121.5 -214l-10 -44q-16 -76 -3 -121v-2h-88v2q5 7 8.5 13.5t7.5 15.5t6.5 14.5t5.5 17t4.5 16.5t5 19.5t4.5 19.5l4.5 22.5l4.5 22.5l38 178q16 74 -18 119v2l100 33l-58 -262q51 116 113 186.5t122 70.5
q42 0 58.5 -36t2.5 -99l-54 -240q-14 -56 -6.5 -79.5t46.5 -27.5v-2zM292 540h-3l-88 173l8 6l91 -106l144 106l5 -6z" />
    <glyph glyph-name="napostrophe" unicode="&#x149;" horiz-adv-x="466" 
d="M290 -9l81 367q9 40 -0.5 66.5t-38.5 26.5q-42 0 -99.5 -70t-121.5 -214l-10 -44q-16 -76 -3 -121v-2h-88v2q5 7 8.5 13.5t7.5 15.5t6.5 14.5t5.5 17t4.5 16.5t5 19.5t4.5 19.5l4.5 22.5l4.5 22.5l38 178q16 74 -18 119v2l100 33l-58 -262q51 116 113 186.5t122 70.5
q42 0 58.5 -36t2.5 -99l-54 -240q-14 -56 -6.5 -79.5t46.5 -27.5v-2zM-17 544l-5 6q76 55 76 102q0 24 -36 60v2l47 41q35 -27 35 -63q0 -67 -117 -148z" />
    <glyph glyph-name="Eng" unicode="&#x14a;" horiz-adv-x="597" 
d="M320 -225q-48 0 -85 23l9 125l8 2q22 -79 37 -104.5t43 -25.5q32 0 60.5 27t42.5 87l17 96l-272 642l-87 -483q-11 -51 -9 -84t23 -78v-2h-101v2q32 45 43 75t22 87l73 404v-1q12 58 9.5 92t-30.5 71v2h80l267 -629l84 465q11 51 9 84t-23 78v2h101v-2
q-32 -46 -43.5 -76.5t-21.5 -85.5l-118 -655q-28 -138 -138 -138z" />
    <glyph glyph-name="eng" unicode="&#x14b;" horiz-adv-x="455" 
d="M217 -215l-2 5q44 33 63 128l93 440q8 40 -1 66.5t-38 26.5q-42 0 -99.5 -70t-121.5 -214l-10 -44q-16 -76 -3 -121v-2h-88v2q5 7 8.5 13.5t7.5 15.5t6.5 14.5t5.5 17t4.5 16.5t5 19.5t4.5 19.5l4.5 22.5l4.5 22.5l38 178q16 74 -18 119v2l100 33l-58 -262
q51 116 113 186.5t122 70.5q42 0 58.5 -36t2.5 -99l-88 -407q-32 -147 -114 -163z" />
    <glyph glyph-name="Omacron" unicode="&#x14c;" horiz-adv-x="662" 
d="M655 437q0 -118 -49.5 -222.5t-133 -167t-178.5 -62.5q-106 0 -173.5 87.5t-67.5 222.5q0 118 49.5 222.5t133 167t178.5 62.5q106 0 173.5 -87.5t67.5 -222.5zM117 276q0 -122 47 -196.5t137 -74.5q88 0 155.5 65t101 166.5t33.5 219.5q0 122 -47 196.5t-137 74.5
q-88 0 -155.5 -65t-101 -166.5t-33.5 -219.5zM308 838l7 35h254l-7 -35h-254z" />
    <glyph glyph-name="omacron" unicode="&#x14d;" horiz-adv-x="410" 
d="M390 316q0 -81 -32.5 -158t-87.5 -125t-114 -48q-61 0 -98.5 46.5t-37.5 127.5t32.5 158t87.5 125t114 48q61 0 98.5 -46.5t37.5 -127.5zM78 151q0 -148 82 -148q68 0 120 91t52 230q0 148 -82 148q-68 0 -120 -91t-52 -230zM154 610l7 35h241l-8 -35h-240z" />
    <glyph glyph-name="Obreve" unicode="&#x14e;" horiz-adv-x="662" 
d="M655 437q0 -118 -49.5 -222.5t-133 -167t-178.5 -62.5q-106 0 -173.5 87.5t-67.5 222.5q0 118 49.5 222.5t133 167t178.5 62.5q106 0 173.5 -87.5t67.5 -222.5zM117 276q0 -122 47 -196.5t137 -74.5q88 0 155.5 65t101 166.5t33.5 219.5q0 122 -47 196.5t-137 74.5
q-88 0 -155.5 -65t-101 -166.5t-33.5 -219.5zM433 846q95 0 128 81h7q-4 -22 -12.5 -42t-24 -40.5t-42 -33t-60.5 -12.5t-58 12.5t-35.5 33.5t-16.5 41t-4 41h7q18 -81 111 -81z" />
    <glyph glyph-name="obreve" unicode="&#x14f;" horiz-adv-x="410" 
d="M390 316q0 -81 -32.5 -158t-87.5 -125t-114 -48q-61 0 -98.5 46.5t-37.5 127.5t32.5 158t87.5 125t114 48q61 0 98.5 -46.5t37.5 -127.5zM78 151q0 -148 82 -148q68 0 120 91t52 230q0 148 -82 148q-68 0 -120 -91t-52 -230zM274 614q83 0 109 79h8q-6 -47 -36.5 -84.5
t-87.5 -37.5q-56 0 -79.5 38t-19.5 84h8q5 -38 31 -58.5t67 -20.5z" />
    <glyph glyph-name="Ohungarumlaut" unicode="&#x150;" horiz-adv-x="662" 
d="M655 437q0 -118 -49.5 -222.5t-133 -167t-178.5 -62.5q-106 0 -173.5 87.5t-67.5 222.5q0 118 49.5 222.5t133 167t178.5 62.5q106 0 173.5 -87.5t67.5 -222.5zM117 276q0 -122 47 -196.5t137 -74.5q88 0 155.5 65t101 166.5t33.5 219.5q0 122 -47 196.5t-137 74.5
q-88 0 -155.5 -65t-101 -166.5t-33.5 -219.5zM468 786l122 163l44 -50l-162 -117zM305 786l122 163l44 -50l-162 -117z" />
    <glyph glyph-name="ohungarumlaut" unicode="&#x151;" horiz-adv-x="410" 
d="M390 316q0 -81 -32.5 -158t-87.5 -125t-114 -48q-61 0 -98.5 46.5t-37.5 127.5t32.5 158t87.5 125t114 48q61 0 98.5 -46.5t37.5 -127.5zM78 151q0 -148 82 -148q68 0 120 91t52 230q0 148 -82 148q-68 0 -120 -91t-52 -230zM317 546l107 183l41 -31l-141 -157zM178 546
l107 183l41 -31l-141 -157z" />
    <glyph glyph-name="OE" unicode="&#x152;" horiz-adv-x="856" 
d="M420 99l93 521q10 54 -5 97l-63 -1q-83 -2 -147.5 -40.5t-103 -101.5t-58 -137.5t-19.5 -155.5q0 -262 211 -262h66q19 37 26 80zM820 162l-60 -162h-448q-259 0 -259 291q0 187 108.5 314t280.5 127h388l11 -145l-8 -2q-33 70 -56 96t-61 27l-132 4l-60 -334h97
q8 0 15 2.5t14.5 8t13 10.5t13 15t12 15.5t12.5 17t11 16.5h8l-29 -185h-8q-12 31 -17.5 43.5t-18 24.5t-29.5 12h-98l-61 -340l162 5q14 0 26 2t24 7t20 8t20 13.5t17.5 15t19.5 20t19 21.5t22 26.5t23 28.5z" />
    <glyph glyph-name="oe" unicode="&#x153;" horiz-adv-x="662" 
d="M574 472q-52 0 -100 -44t-75 -116q225 21 225 112q0 48 -50 48zM78 151q0 -148 82 -148q68 0 120 91t52 230q0 148 -82 148q-68 0 -120 -91t-52 -230zM608 105q-25 -54 -67.5 -87t-91.5 -33q-48 0 -80 33.5t-41 91.5q-34 -57 -79.5 -91t-94.5 -34q-59 0 -96.5 46.5
t-37.5 127.5t32.5 158t87.5 125t114 48q50 0 84.5 -35.5t42.5 -98.5q38 61 91.5 97.5t111.5 36.5q39 0 63.5 -17t24.5 -50q0 -55 -66 -89.5t-211 -33.5q-19 -59 -19 -124q0 -151 96 -151q68 0 126 85z" />
    <glyph glyph-name="Racute" unicode="&#x154;" horiz-adv-x="494" 
d="M293 711q-49 0 -70 -1l-61 -337h94q83 0 124.5 58t41.5 144q0 71 -31.5 103.5t-97.5 32.5zM24 0v2q26 42 42 130l84 469q14 78 -6 129v2h158q182 0 182 -159q0 -83 -49 -140t-116 -72l68 -257q12 -47 28 -68t47 -34v-2h-104l-92 353h-107l-40 -222q-14 -78 6 -129v-2
h-101zM229 789l224 170l31 -57l-251 -120z" />
    <glyph glyph-name="racute" unicode="&#x155;" horiz-adv-x="298" 
d="M10 0v2q5 7 8.5 13.5t7.5 15.5t6.5 14.5t5.5 17t4.5 16.5t5 19.5t4.5 19.5l4.5 22.5l4.5 22.5l38 178q16 74 -18 119v2l100 33l-53 -242q47 119 97.5 178t112.5 59l-31 -75h-2q-8 5 -21 5q-43 0 -80.5 -54.5t-92.5 -197.5l-10 -45q-16 -76 -3 -121v-2h-88zM157 539
l158 210l42 -44l-195 -172z" />
    <glyph glyph-name="uni0156" unicode="&#x156;" horiz-adv-x="494" 
d="M293 711q-49 0 -70 -1l-61 -337h94q83 0 124.5 58t41.5 144q0 71 -31.5 103.5t-97.5 32.5zM24 0v2q26 42 42 130l84 469q14 78 -6 129v2h158q182 0 182 -159q0 -83 -49 -140t-116 -72l68 -257q12 -47 28 -68t47 -34v-2h-104l-92 353h-107l-40 -222q-14 -78 6 -129v-2
h-101zM169 -224l-4 6q64 38 64 74q0 31 -33 58v2l41 34q36 -30 36 -61q0 -54 -104 -113z" />
    <glyph glyph-name="uni0157" unicode="&#x157;" horiz-adv-x="298" 
d="M10 0v2q5 7 8.5 13.5t7.5 15.5t6.5 14.5t5.5 17t4.5 16.5t5 19.5t4.5 19.5l4.5 22.5l4.5 22.5l38 178q16 74 -18 119v2l100 33l-53 -242q47 119 97.5 178t112.5 59l-31 -75h-2q-8 5 -21 5q-43 0 -80.5 -54.5t-92.5 -197.5l-10 -45q-16 -76 -3 -121v-2h-88zM-13 -224l-4 6
q64 38 64 74q0 31 -33 58v2l41 34q36 -30 36 -61q0 -54 -104 -113z" />
    <glyph glyph-name="Rcaron" unicode="&#x158;" horiz-adv-x="494" 
d="M293 711q-49 0 -70 -1l-61 -337h94q83 0 124.5 58t41.5 144q0 71 -31.5 103.5t-97.5 32.5zM24 0v2q26 42 42 130l84 469q14 78 -6 129v2h158q182 0 182 -159q0 -83 -49 -140t-116 -72l68 -257q12 -47 28 -68t47 -34v-2h-104l-92 353h-107l-40 -222q-14 -78 6 -129v-2
h-101zM316 782h-4l-110 156l7 7l114 -93l166 93l4 -7z" />
    <glyph glyph-name="rcaron" unicode="&#x159;" horiz-adv-x="298" 
d="M10 0v2q5 7 8.5 13.5t7.5 15.5t6.5 14.5t5.5 17t4.5 16.5t5 19.5t4.5 19.5l4.5 22.5l4.5 22.5l38 178q16 74 -18 119v2l100 33l-53 -242q47 119 97.5 178t112.5 59l-31 -75h-2q-8 5 -21 5q-43 0 -80.5 -54.5t-92.5 -197.5l-10 -45q-16 -76 -3 -121v-2h-88zM230 540h-3
l-88 173l8 6l91 -106l144 106l5 -6z" />
    <glyph glyph-name="Sacute" unicode="&#x15a;" horiz-adv-x="438" 
d="M443 711l7 -146l-9 -2q-24 93 -61 128.5t-86 35.5q-56 0 -90.5 -37t-34.5 -95q0 -29 7.5 -54t27.5 -52t32 -40.5t41 -44.5q35 -37 54 -61.5t36.5 -66.5t17.5 -87q0 -96 -59.5 -150t-150.5 -54q-89 0 -164 46l-7 158l8 2q32 -104 76 -145t102 -41q66 0 106.5 48.5
t40.5 117.5q0 40 -17.5 78.5t-35.5 60t-54 58.5q-36 39 -53.5 60t-35.5 61t-18 81q0 86 55 131.5t131 45.5q79 0 134 -36zM237 789l224 170l31 -57l-251 -120z" />
    <glyph glyph-name="sacute" unicode="&#x15b;" horiz-adv-x="313" 
d="M290 470l3 -95l-8 -2q-44 99 -104 99q-31 0 -49.5 -22t-18.5 -55q0 -28 15.5 -54t37.5 -48t44 -46t37.5 -57t15.5 -71q0 -63 -38.5 -98.5t-97.5 -35.5q-72 0 -116 38l-3 113l8 2q23 -66 55 -100.5t69 -34.5q35 0 59 26t24 67q0 30 -15 57.5t-37 49.5t-44 45t-37 54
t-15 66q0 59 36.5 90.5t90.5 31.5q52 0 88 -20zM148 539l158 210l42 -44l-195 -172z" />
    <glyph glyph-name="Scircumflex" unicode="&#x15c;" horiz-adv-x="438" 
d="M443 711l7 -146l-9 -2q-24 93 -61 128.5t-86 35.5q-56 0 -90.5 -37t-34.5 -95q0 -29 7.5 -54t27.5 -52t32 -40.5t41 -44.5q35 -37 54 -61.5t36.5 -66.5t17.5 -87q0 -96 -59.5 -150t-150.5 -54q-89 0 -164 46l-7 158l8 2q32 -104 76 -145t102 -41q66 0 106.5 48.5
t40.5 117.5q0 40 -17.5 78.5t-35.5 60t-54 58.5q-36 39 -53.5 60t-35.5 61t-18 81q0 86 55 131.5t131 45.5q79 0 134 -36zM430 782l-114 93l-166 -93l-4 7l177 156h4l110 -156z" />
    <glyph glyph-name="scircumflex" unicode="&#x15d;" horiz-adv-x="313" 
d="M290 470l3 -95l-8 -2q-44 99 -104 99q-31 0 -49.5 -22t-18.5 -55q0 -28 15.5 -54t37.5 -48t44 -46t37.5 -57t15.5 -71q0 -63 -38.5 -98.5t-97.5 -35.5q-72 0 -116 38l-3 113l8 2q23 -66 55 -100.5t69 -34.5q35 0 59 26t24 67q0 30 -15 57.5t-37 49.5t-44 45t-37 54
t-15 66q0 59 36.5 90.5t90.5 31.5q52 0 88 -20zM311 540l-91 106l-144 -106l-5 6l157 173h3l88 -173z" />
    <glyph glyph-name="uni015E" unicode="&#x15e;" horiz-adv-x="438" 
d="M37 -255v8q56 13 89.5 39.5t33.5 60.5q0 50 -72 56v2l59 75q-76 7 -136 45l-7 158l8 2q32 -104 76 -145t102 -41q66 0 106.5 48.5t40.5 117.5q0 40 -17.5 78.5t-35.5 60t-54 58.5q-36 39 -53.5 60t-35.5 61t-18 81q0 86 55 131.5t131 45.5q79 0 134 -36l7 -146l-9 -2
q-24 93 -61 128.5t-86 35.5q-56 0 -90.5 -37t-34.5 -95q0 -29 7.5 -54t27.5 -52t32 -40.5t41 -44.5q35 -37 54 -61.5t36.5 -66.5t17.5 -87q0 -96 -59.5 -150t-150.5 -54h-2l-35 -43q65 -17 65 -73q0 -50 -46.5 -82.5t-119.5 -41.5z" />
    <glyph glyph-name="uni015F" unicode="&#x15f;" horiz-adv-x="313" 
d="M-8 -255v8q56 13 89.5 39.5t33.5 60.5q0 50 -72 56v2l59 75q-58 7 -91 37l-3 113l8 2q23 -66 55 -100.5t69 -34.5q35 0 59 26t24 67q0 30 -15 57.5t-37 49.5t-44 45t-37 54t-15 66q0 59 36.5 90.5t90.5 31.5q52 0 88 -20l3 -95l-8 -2q-44 99 -104 99q-31 0 -49.5 -22
t-18.5 -55q0 -28 15.5 -54t37.5 -48t44 -46t37.5 -57t15.5 -71q0 -63 -38 -98t-97 -36l-35 -43q65 -17 65 -73q0 -50 -46.5 -82.5t-119.5 -41.5z" />
    <glyph glyph-name="Scaron" unicode="&#x160;" horiz-adv-x="438" 
d="M443 711l7 -146l-9 -2q-24 93 -61 128.5t-86 35.5q-56 0 -90.5 -37t-34.5 -95q0 -29 7.5 -54t27.5 -52t32 -40.5t41 -44.5q35 -37 54 -61.5t36.5 -66.5t17.5 -87q0 -96 -59.5 -150t-150.5 -54q-89 0 -164 46l-7 158l8 2q32 -104 76 -145t102 -41q66 0 106.5 48.5
t40.5 117.5q0 40 -17.5 78.5t-35.5 60t-54 58.5q-36 39 -53.5 60t-35.5 61t-18 81q0 86 55 131.5t131 45.5q79 0 134 -36zM320 782h-4l-110 156l7 7l114 -93l166 93l4 -7z" />
    <glyph glyph-name="scaron" unicode="&#x161;" horiz-adv-x="313" 
d="M290 470l3 -95l-8 -2q-44 99 -104 99q-31 0 -49.5 -22t-18.5 -55q0 -28 15.5 -54t37.5 -48t44 -46t37.5 -57t15.5 -71q0 -63 -38.5 -98.5t-97.5 -35.5q-72 0 -116 38l-3 113l8 2q23 -66 55 -100.5t69 -34.5q35 0 59 26t24 67q0 30 -15 57.5t-37 49.5t-44 45t-37 54
t-15 66q0 59 36.5 90.5t90.5 31.5q52 0 88 -20zM211 540h-3l-88 173l8 6l91 -106l144 106l5 -6z" />
    <glyph glyph-name="Tcommaaccent" unicode="&#x162;" horiz-adv-x="556" 
d="M286 0h-101v2q26 42 42 130l104 582l-93 -4q-42 -1 -70.5 -29t-93.5 -128l-8 4l60 175h470v-177l-8 -2q-28 93 -46.5 123.5t-47.5 32.5l-110 4l-104 -582q-14 -78 6 -129v-2zM162 -224l-4 6q64 38 64 74q0 31 -33 58v2l41 34q36 -30 36 -61q0 -54 -104 -113z" />
    <glyph glyph-name="tcommaaccent" unicode="&#x163;" horiz-adv-x="264" 
d="M89 -15q-27 0 -42 22.5t-5 70.5l82 379h-55v2l121 90h2l-16 -74h118l-4 -18h-118l-81 -377q-12 -54 22 -54q22 0 47.5 25t44.5 53l9 -6q-61 -113 -125 -113zM27 -224l-4 6q64 38 64 74q0 31 -33 58v2l41 34q36 -30 36 -61q0 -54 -104 -113z" />
    <glyph glyph-name="Tcaron" unicode="&#x164;" horiz-adv-x="556" 
d="M286 0h-101v2q26 42 42 130l104 582l-93 -4q-42 -1 -70.5 -29t-93.5 -128l-8 4l60 175h470v-177l-8 -2q-28 93 -46.5 123.5t-47.5 32.5l-110 4l-104 -582q-14 -78 6 -129v-2zM367 782h-4l-110 156l7 7l114 -93l166 93l4 -7z" />
    <glyph glyph-name="tcaron" unicode="&#x165;" horiz-adv-x="264" 
d="M89 -15q-27 0 -42 22.5t-5 70.5l82 379h-55v2l121 90h2l-16 -74h118l-4 -18h-118l-81 -377q-12 -54 22 -54q22 0 47.5 25t44.5 53l9 -6q-61 -113 -125 -113zM253 574l67 201h66l-127 -203z" />
    <glyph glyph-name="Tbar" unicode="&#x166;" horiz-adv-x="556" 
d="M286 0h-101v2q26 42 42 130l40 225h-145l4 20h144l61 337l-93 -4q-42 -1 -70.5 -29t-93.5 -128l-8 4l60 175h470v-177l-8 -2q-28 93 -46.5 123.5t-47.5 32.5l-110 4l-60 -336h156l-4 -20h-156l-40 -226q-14 -78 6 -129v-2z" />
    <glyph glyph-name="tbar" unicode="&#x167;" horiz-adv-x="264" 
d="M89 -15q-27 0 -42 22.5t-5 70.5l50 232h-49l3 16h49l29 131h-55v2l121 90h2l-16 -74h118l-4 -18h-118l-28 -131h122l-3 -16h-123l-49 -230q-12 -54 22 -54q22 0 47.5 25t44.5 53l9 -6q-61 -113 -125 -113z" />
    <glyph glyph-name="Utilde" unicode="&#x168;" horiz-adv-x="542" 
d="M252 -15q-42 0 -78.5 14t-65 41.5t-40 75.5t-0.5 110l68 375q14 78 -6 129v2h101v-2q-26 -42 -42 -130l-67 -371q-20 -111 21 -166.5t116 -55.5q54 0 93.5 30t57.5 69.5t28 90.5l70 371q11 52 9 84.5t-23 77.5v2h102v-2q-32 -45 -43 -75t-22 -87l-70 -371q-8 -42 -22 -77
t-38 -67t-62 -50t-87 -18zM328 896q27 0 67 -25.5t65 -25.5t41 15.5t32 51.5l7 -1q-29 -109 -107 -109q-28 0 -68.5 25.5t-64.5 25.5q-47 0 -76 -67l-8 1q11 40 38 74.5t74 34.5z" />
    <glyph glyph-name="utilde" unicode="&#x169;" horiz-adv-x="444" 
d="M260 -9l57 213q-44 -97 -99 -158t-111 -61q-44 0 -66.5 36t-4.5 106l66 253q20 73 -32 93v2h103l-89 -349q-13 -48 -0.5 -72.5t42.5 -24.5q53 0 112.5 79t108.5 210l16 61q20 74 -31 94v2h105l-96 -367q-13 -39 -9.5 -61t34.5 -36v-1zM240 678q24 0 60.5 -16.5
t58.5 -16.5q39 0 63 47l7 -1q-26 -95 -95 -95q-24 0 -60.5 16.5t-58.5 16.5q-39 0 -63 -47l-7 1q26 95 95 95z" />
    <glyph glyph-name="Umacron" unicode="&#x16a;" horiz-adv-x="542" 
d="M252 -15q-42 0 -78.5 14t-65 41.5t-40 75.5t-0.5 110l68 375q14 78 -6 129v2h101v-2q-26 -42 -42 -130l-67 -371q-20 -111 21 -166.5t116 -55.5q54 0 93.5 30t57.5 69.5t28 90.5l70 371q11 52 9 84.5t-23 77.5v2h102v-2q-32 -45 -43 -75t-22 -87l-70 -371q-8 -42 -22 -77
t-38 -67t-62 -50t-87 -18zM256 838l7 35h254l-7 -35h-254z" />
    <glyph glyph-name="umacron" unicode="&#x16b;" horiz-adv-x="444" 
d="M260 -9l57 213q-44 -97 -99 -158t-111 -61q-44 0 -66.5 36t-4.5 106l66 253q20 73 -32 93v2h103l-89 -349q-13 -48 -0.5 -72.5t42.5 -24.5q53 0 112.5 79t108.5 210l16 61q20 74 -31 94v2h105l-96 -367q-13 -39 -9.5 -61t34.5 -36v-1zM173 610l7 35h241l-8 -35h-240z" />
    <glyph glyph-name="Ubreve" unicode="&#x16c;" horiz-adv-x="542" 
d="M252 -15q-42 0 -78.5 14t-65 41.5t-40 75.5t-0.5 110l68 375q14 78 -6 129v2h101v-2q-26 -42 -42 -130l-67 -371q-20 -111 21 -166.5t116 -55.5q54 0 93.5 30t57.5 69.5t28 90.5l70 371q11 52 9 84.5t-23 77.5v2h102v-2q-32 -45 -43 -75t-22 -87l-70 -371q-8 -42 -22 -77
t-38 -67t-62 -50t-87 -18zM381 846q95 0 128 81h7q-4 -22 -12.5 -42t-24 -40.5t-42 -33t-60.5 -12.5t-58 12.5t-35.5 33.5t-16.5 41t-4 41h7q18 -81 111 -81z" />
    <glyph glyph-name="ubreve" unicode="&#x16d;" horiz-adv-x="444" 
d="M260 -9l57 213q-44 -97 -99 -158t-111 -61q-44 0 -66.5 36t-4.5 106l66 253q20 73 -32 93v2h103l-89 -349q-13 -48 -0.5 -72.5t42.5 -24.5q53 0 112.5 79t108.5 210l16 61q20 74 -31 94v2h105l-96 -367q-13 -39 -9.5 -61t34.5 -36v-1zM293 614q83 0 109 79h8
q-6 -47 -36.5 -84.5t-87.5 -37.5q-56 0 -79.5 38t-19.5 84h8q5 -38 31 -58.5t67 -20.5z" />
    <glyph glyph-name="Uring" unicode="&#x16e;" horiz-adv-x="542" 
d="M252 -15q-42 0 -78.5 14t-65 41.5t-40 75.5t-0.5 110l68 375q14 78 -6 129v2h101v-2q-26 -42 -42 -130l-67 -371q-20 -111 21 -166.5t116 -55.5q54 0 93.5 30t57.5 69.5t28 90.5l70 371q11 52 9 84.5t-23 77.5v2h102v-2q-32 -45 -43 -75t-22 -87l-70 -371q-8 -42 -22 -77
t-38 -67t-62 -50t-87 -18zM295 865q0 37 23.5 61t60.5 24t60.5 -24t23.5 -61t-23.5 -60t-60.5 -23t-60.5 23t-23.5 60zM323 865q0 -31 14.5 -48.5t41.5 -17.5t41.5 17.5t14.5 48.5t-14 49.5t-42 18.5t-42 -18.5t-14 -49.5z" />
    <glyph glyph-name="uring" unicode="&#x16f;" horiz-adv-x="444" 
d="M260 -9l57 213q-44 -97 -99 -158t-111 -61q-44 0 -66.5 36t-4.5 106l66 253q20 73 -32 93v2h103l-89 -349q-13 -48 -0.5 -72.5t42.5 -24.5q53 0 112.5 79t108.5 210l16 61q20 74 -31 94v2h105l-96 -367q-13 -39 -9.5 -61t34.5 -36v-1zM202 631q0 37 23.5 61t60.5 24
t60.5 -24t23.5 -61t-23.5 -60t-60.5 -23t-60.5 23t-23.5 60zM230 631q0 -31 14.5 -48.5t41.5 -17.5t41.5 17.5t14.5 48.5t-14 49.5t-42 18.5t-42 -18.5t-14 -49.5z" />
    <glyph glyph-name="Uhungarumlaut" unicode="&#x170;" horiz-adv-x="542" 
d="M252 -15q-42 0 -78.5 14t-65 41.5t-40 75.5t-0.5 110l68 375q14 78 -6 129v2h101v-2q-26 -42 -42 -130l-67 -371q-20 -111 21 -166.5t116 -55.5q54 0 93.5 30t57.5 69.5t28 90.5l70 371q11 52 9 84.5t-23 77.5v2h102v-2q-32 -45 -43 -75t-22 -87l-70 -371q-8 -42 -22 -77
t-38 -67t-62 -50t-87 -18zM416 786l122 163l44 -50l-162 -117zM253 786l122 163l44 -50l-162 -117z" />
    <glyph glyph-name="uhungarumlaut" unicode="&#x171;" horiz-adv-x="444" 
d="M260 -9l57 213q-44 -97 -99 -158t-111 -61q-44 0 -66.5 36t-4.5 106l66 253q20 73 -32 93v2h103l-89 -349q-13 -48 -0.5 -72.5t42.5 -24.5q53 0 112.5 79t108.5 210l16 61q20 74 -31 94v2h105l-96 -367q-13 -39 -9.5 -61t34.5 -36v-1zM336 546l107 183l41 -31l-141 -157z
M197 546l107 183l41 -31l-141 -157z" />
    <glyph glyph-name="Uogonek" unicode="&#x172;" horiz-adv-x="542" 
d="M214 -245q-34 0 -53.5 19t-19.5 54q0 51 32 91.5t83 65.5h-10q-89 0 -144 61.5t-34 179.5l68 375q14 78 -6 129v2h101v-2q-26 -42 -42 -130l-67 -371q-20 -111 21 -166.5t116 -55.5q54 0 93.5 30t57.5 69.5t28 90.5l70 371q11 52 9 84.5t-23 77.5v2h102v-2
q-32 -45 -43 -75t-22 -87l-70 -371q-27 -143 -116 -191q-10 -5 -33 -13t-34 -13q-45 -23 -67 -58.5t-22 -73.5q0 -54 50 -54q52 0 89 58l6 -4q-50 -93 -120 -93z" />
    <glyph glyph-name="uogonek" unicode="&#x173;" horiz-adv-x="444" 
d="M205 -245q-34 0 -53.5 19t-19.5 54q0 52 36.5 97t93.5 71l55 210q-44 -98 -98.5 -159.5t-111.5 -61.5q-44 0 -66.5 36t-4.5 106l66 253q20 73 -32 93v2h103l-89 -349q-12 -49 0 -73t42 -24q53 0 112.5 79.5t108.5 210.5l16 60q20 74 -31 94v2h105l-96 -367
q-13 -39 -9.5 -61t34.5 -36v-1q-46 -5 -74 -15q-47 -18 -79.5 -61.5t-32.5 -88.5q0 -51 50 -51q52 0 89 58l6 -4q-50 -93 -120 -93z" />
    <glyph glyph-name="Wcircumflex" unicode="&#x174;" horiz-adv-x="730" 
d="M173 -8h-20l-33 584q-3 67 -10.5 98t-21.5 56v2h113v-2q-35 -52 -29 -155l26 -476l213 476v1q-5 104 -34 154v2h116v-2q-36 -53 -30 -155l26 -477l212 479q44 100 15 153v2h107v-2q-30 -23 -47 -49t-49 -98l-263 -591h-20l-30 536zM600 782l-114 93l-166 -93l-4 7
l177 156h4l110 -156z" />
    <glyph glyph-name="wcircumflex" unicode="&#x175;" horiz-adv-x="526" 
d="M105 -5h-10l-12 358q-2 54 -9.5 76t-33.5 44v2h90l12 -380l138 235v23q-1 54 -9 75.5t-34 44.5v2h90l5 -378l122 217q26 45 35.5 72.5t4 49t-30.5 37.5v2h103v-2l-271 -478h-10l-4 298zM431 540l-91 106l-144 -106l-5 6l157 173h3l88 -173z" />
    <glyph glyph-name="Ycircumflex" unicode="&#x176;" horiz-adv-x="466" 
d="M128 0v2q26 39 38 68.5t21 79.5l34 188l-66 266q-23 92 -58 126v2h123v-2q-30 -35 -10 -119l58 -249l138 228q52 86 15 140v2h114v-2q-59 -63 -96 -124l-166 -273l-32 -183q-9 -51 -7.5 -80t15.5 -68l-1 -2h-120zM465 782l-114 93l-166 -93l-4 7l177 156h4l110 -156z" />
    <glyph glyph-name="ycircumflex" unicode="&#x177;" horiz-adv-x="362" 
d="M-103 -225l14 68q60 1 105 30t100 127l-30 353q-5 63 -11.5 81.5t-31.5 38.5v2h85l32 -394l121 233q25 48 34 73.5t4 47.5t-29 38v2h102v-2l-254 -473q-37 -70 -70 -116t-64 -67.5t-53.5 -29.5t-53.5 -12zM354 540l-91 106l-144 -106l-5 6l157 173h3l88 -173z" />
    <glyph glyph-name="Ydieresis" unicode="&#x178;" horiz-adv-x="466" 
d="M128 0v2q26 39 38 68.5t21 79.5l34 188l-66 266q-23 92 -58 126v2h123v-2q-30 -35 -10 -119l58 -249l138 228q52 86 15 140v2h114v-2q-59 -63 -96 -124l-166 -273l-32 -183q-9 -51 -7.5 -80t15.5 -68l-1 -2h-120zM475 868q0 -17 -12 -29t-29 -12t-29 12t-12 29t12 29
t29 12t29 -12t12 -29zM283 868q0 -17 -12 -29t-29 -12t-29 12t-12 29t12 29t29 12t29 -12t12 -29z" />
    <glyph glyph-name="Zacute" unicode="&#x179;" horiz-adv-x="476" 
d="M372 0h-389v11l483 703l-160 -5q-62 -2 -91.5 -25.5t-90.5 -108.5l-9 -12l-8 3l61 166h364v-11l-482 -705l179 8q68 4 104 35t101 132l8 -3zM250 789l224 170l31 -57l-251 -120z" />
    <glyph glyph-name="zacute" unicode="&#x17a;" horiz-adv-x="370" 
d="M283 0h-298v7l329 451l-94 -3q-39 -1 -71.5 -20t-79.5 -64l-4 2l49 102h266v-9l-329 -451l130 4q45 1 77.5 22t82.5 70l4 -2zM194 539l158 210l42 -44l-195 -172z" />
    <glyph glyph-name="Zdotaccent" unicode="&#x17b;" horiz-adv-x="476" 
d="M372 0h-389v11l483 703l-160 -5q-62 -2 -91.5 -25.5t-90.5 -108.5l-9 -12l-8 3l61 166h364v-11l-482 -705l179 8q68 4 104 35t101 132l8 -3zM392 868q0 -17 -12 -29t-29 -12t-29 12t-12 29t12 29t29 12t29 -12t12 -29z" />
    <glyph glyph-name="zdotaccent" unicode="&#x17c;" horiz-adv-x="370" 
d="M283 0h-298v7l329 451l-94 -3q-39 -1 -71.5 -20t-79.5 -64l-4 2l49 102h266v-9l-329 -451l130 4q45 1 77.5 22t82.5 70l4 -2zM292 659q0 -17 -12 -29t-29 -12t-29 12t-12 29t12 29t29 12t29 -12t12 -29z" />
    <glyph glyph-name="Zcaron" unicode="&#x17d;" horiz-adv-x="476" 
d="M372 0h-389v11l483 703l-160 -5q-62 -2 -91.5 -25.5t-90.5 -108.5l-9 -12l-8 3l61 166h364v-11l-482 -705l179 8q68 4 104 35t101 132l8 -3zM353 782h-4l-110 156l7 7l114 -93l166 93l4 -7z" />
    <glyph glyph-name="zcaron" unicode="&#x17e;" horiz-adv-x="370" 
d="M283 0h-298v7l329 451l-94 -3q-39 -1 -71.5 -20t-79.5 -64l-4 2l49 102h266v-9l-329 -451l130 4q45 1 77.5 22t82.5 70l4 -2zM247 540h-3l-88 173l8 6l91 -106l144 106l5 -6z" />
    <glyph glyph-name="uni0192" unicode="&#x192;" horiz-adv-x="436" 
d="M-12 -190q-37 0 -57 10l-9 124l8 2q42 -89 58 -105q11 -11 23 -11q23 0 41 40t47 139l106 358h-80l5 20h81l36 122q36 122 73.5 180t98.5 58q37 0 57 -10l9 -124l-8 -2q-42 89 -58 105q-11 11 -23 11q-23 0 -39.5 -37.5t-47.5 -138.5l-50 -164h99l-4 -20h-101l-98 -319
q-19 -63 -33 -100t-33.5 -72t-44 -50.5t-56.5 -15.5z" />
    <glyph glyph-name="Aringacute" unicode="&#x1fa;" horiz-adv-x="465" 
d="M330 296l-31 350l-160 -350h191zM68 2v-2h-122v2q35 28 54 55t47 88l276 594h19l56 -617q4 -49 13 -72t29 -48v-2h-129v2q42 38 34 125l-13 149h-202l-57 -124q-20 -45 -20.5 -87.5t15.5 -62.5zM255 865q0 37 23.5 61t60.5 24t60.5 -24t23.5 -61t-23.5 -60t-60.5 -23
t-60.5 23t-23.5 60zM283 865q0 -31 14.5 -48.5t41.5 -17.5t41.5 17.5t14.5 48.5t-14 49.5t-42 18.5t-42 -18.5t-14 -49.5zM241 980l224 170l31 -57l-251 -120z" />
    <glyph glyph-name="aringacute" unicode="&#x1fb;" horiz-adv-x="437" 
d="M130 29q29 0 59 24t57 68.5t46 82t41 88.5l37 140q-23 35 -72 35q-59 0 -112 -54.5t-82 -133t-29 -153.5q0 -97 55 -97zM254 -9l58 211q-98 -217 -208 -217q-39 0 -61.5 32t-22.5 94q0 93 42.5 181t114.5 143t150 55q46 0 79 -18l24 18h4l-100 -382q-13 -39 -9.5 -61
t34.5 -36v-1zM203 631q0 37 23.5 61t60.5 24t60.5 -24t23.5 -61t-23.5 -60t-60.5 -23t-60.5 23t-23.5 60zM231 631q0 -31 14.5 -48.5t41.5 -17.5t41.5 17.5t14.5 48.5t-14 49.5t-42 18.5t-42 -18.5t-14 -49.5zM223 759l224 170l31 -57l-251 -120z" />
    <glyph glyph-name="AEacute" unicode="&#x1fc;" horiz-adv-x="806" 
d="M465 630q3 14 5 38l-233 -372h168zM108 2v-2h-118v2q42 29 66 56t62 87l348 555q-5 16 -22 30v2h336l11 -145l-8 -2q-33 70 -56 96t-61 27l-132 4l-60 -334h97q8 0 15 2.5t14.5 8t13 10.5t13 15t12 15.5t12.5 17t11 16.5h8l-29 -185h-8q-12 31 -17.5 43.5t-18 24.5
t-29.5 12h-98l-61 -340l162 5q14 0 26 2t24 7t20 8t20 13.5t17.5 15t19.5 20t19 21.5t22 26.5t23 28.5l8 -3l-60 -162h-376v2q25 39 42 130l26 144h-177l-84 -134q-56 -92 -33 -140zM509 789l224 170l31 -57l-251 -120z" />
    <glyph glyph-name="aeacute" unicode="&#x1fd;" horiz-adv-x="640" 
d="M549 472q-51 0 -98.5 -44t-73.5 -116q225 21 225 112q0 48 -53 48zM126 29q84 0 191 249q24 66 65 115q-9 30 -31 52t-57 22q-54 0 -106 -54.5t-82.5 -133.5t-30.5 -153q0 -97 51 -97zM586 105q-26 -54 -68 -87t-92 -33q-60 0 -95 47t-35 125q0 11 2 35
q-43 -92 -94.5 -149.5t-102.5 -57.5q-37 0 -59 32t-22 94q0 92 43.5 180.5t113.5 143.5t142 55q68 0 105 -55q65 55 138 55q39 0 63.5 -16.5t24.5 -50.5q0 -54 -66 -89t-211 -34q-19 -59 -19 -124q0 -151 97 -151q67 0 125 85zM365 539l158 210l42 -44l-195 -172z" />
    <glyph glyph-name="Oslashacute" unicode="&#x1fe;" horiz-adv-x="662" 
d="M117 276q0 -108 35 -175l391 553q-48 73 -136 73t-155.5 -65t-101 -166.5t-33.5 -219.5zM301 5q88 0 155.5 65t101 166.5t33.5 219.5q0 109 -35 176l-392 -553q49 -74 137 -74zM294 -15q-87 0 -152 63l-54 -77h-28l66 94q-73 87 -73 230q0 118 49.5 222.5t133 167
t178.5 62.5q87 0 151 -62l55 77h28l-67 -94q74 -88 74 -231q0 -118 -49.5 -222.5t-133 -167t-178.5 -62.5zM327 789l224 170l31 -57l-251 -120z" />
    <glyph glyph-name="oslashacute" unicode="&#x1ff;" horiz-adv-x="410" 
d="M390 316q0 -81 -32.5 -158t-87.5 -125t-114 -48q-53 0 -88 35l-60 -87h-27l72 105q-33 46 -33 121q0 81 32.5 158t87.5 125t114 48q52 0 87 -35l61 89h27l-73 -106q34 -49 34 -122zM332 324q0 40 -6 70l-235 -340q20 -51 69 -51q68 0 120 91t52 230zM78 151q0 -44 5 -69
l235 340q-20 50 -68 50q-68 0 -120 -91t-52 -230zM190 539l158 210l42 -44l-195 -172z" />
    <glyph glyph-name="uni0218" unicode="&#x218;" horiz-adv-x="438" 
d="M443 711l7 -146l-9 -2q-24 93 -61 128.5t-86 35.5q-56 0 -90.5 -37t-34.5 -95q0 -29 7.5 -54t27.5 -52t32 -40.5t41 -44.5q35 -37 54 -61.5t36.5 -66.5t17.5 -87q0 -96 -59.5 -150t-150.5 -54q-89 0 -164 46l-7 158l8 2q32 -104 76 -145t102 -41q66 0 106.5 48.5
t40.5 117.5q0 40 -17.5 78.5t-35.5 60t-54 58.5q-36 39 -53.5 60t-35.5 61t-18 81q0 86 55 131.5t131 45.5q79 0 134 -36zM97 -224l-4 6q64 38 64 74q0 31 -33 58v2l41 34q36 -30 36 -61q0 -54 -104 -113z" />
    <glyph glyph-name="uni0219" unicode="&#x219;" horiz-adv-x="313" 
d="M290 470l3 -95l-8 -2q-44 99 -104 99q-31 0 -49.5 -22t-18.5 -55q0 -28 15.5 -54t37.5 -48t44 -46t37.5 -57t15.5 -71q0 -63 -38.5 -98.5t-97.5 -35.5q-72 0 -116 38l-3 113l8 2q23 -66 55 -100.5t69 -34.5q35 0 59 26t24 67q0 30 -15 57.5t-37 49.5t-44 45t-37 54
t-15 66q0 59 36.5 90.5t90.5 31.5q52 0 88 -20zM33 -224l-4 6q64 38 64 74q0 31 -33 58v2l41 34q36 -30 36 -61q0 -54 -104 -113z" />
    <glyph glyph-name="uni021A" unicode="&#x21a;" horiz-adv-x="556" 
d="M286 0h-101v2q26 42 42 130l104 582l-93 -4q-42 -1 -70.5 -29t-93.5 -128l-8 4l60 175h470v-177l-8 -2q-28 93 -46.5 123.5t-47.5 32.5l-110 4l-104 -582q-14 -78 6 -129v-2zM162 -224l-4 6q64 38 64 74q0 31 -33 58v2l41 34q36 -30 36 -61q0 -54 -104 -113z" />
    <glyph glyph-name="uni021B" unicode="&#x21b;" horiz-adv-x="264" 
d="M89 -15q-27 0 -42 22.5t-5 70.5l82 379h-55v2l121 90h2l-16 -74h118l-4 -18h-118l-81 -377q-12 -54 22 -54q22 0 47.5 25t44.5 53l9 -6q-61 -113 -125 -113zM27 -224l-4 6q64 38 64 74q0 31 -33 58v2l41 34q36 -30 36 -61q0 -54 -104 -113z" />
    <glyph glyph-name="uni0237" unicode="&#x237;" horiz-adv-x="187" 
d="M-59 -210q44 33 63 128l85 423q15 75 -18 119v2l104 33l-118 -547q-32 -147 -114 -163z" />
    <glyph glyph-name="circumflex" unicode="&#x2c6;" horiz-adv-x="428" 
d="M388 540l-91 106l-144 -106l-5 6l157 173h3l88 -173z" />
    <glyph glyph-name="caron" unicode="&#x2c7;" horiz-adv-x="299" 
d="M204 540h-3l-88 173l8 6l91 -106l144 106l5 -6z" />
    <glyph glyph-name="breve" unicode="&#x2d8;" horiz-adv-x="428" 
d="M294 614q83 0 109 79h8q-6 -47 -36.5 -84.5t-87.5 -37.5q-56 0 -79.5 38t-19.5 84h8q5 -38 31 -58.5t67 -20.5z" />
    <glyph glyph-name="dotaccent" unicode="&#x2d9;" horiz-adv-x="428" 
d="M335 659q0 -17 -12 -29t-29 -12t-29 12t-12 29t12 29t29 12t29 -12t12 -29z" />
    <glyph glyph-name="ring" unicode="&#x2da;" horiz-adv-x="300" 
d="M146 631q0 37 23.5 61t60.5 24t60.5 -24t23.5 -61t-23.5 -60t-60.5 -23t-60.5 23t-23.5 60zM174 631q0 -31 14.5 -48.5t41.5 -17.5t41.5 17.5t14.5 48.5t-14 49.5t-42 18.5t-42 -18.5t-14 -49.5z" />
    <glyph glyph-name="ogonek" unicode="&#x2db;" horiz-adv-x="300" 
d="M145 1h23q-55 -29 -84.5 -72t-29.5 -83q0 -52 50 -52q52 0 89 58l6 -4q-23 -42 -50.5 -67.5t-69.5 -25.5q-34 0 -53.5 19t-19.5 54q0 49 38.5 96.5t100.5 76.5z" />
    <glyph glyph-name="tilde" unicode="&#x2dc;" horiz-adv-x="428" 
d="M243 678q24 0 60.5 -16.5t58.5 -16.5q39 0 63 47l7 -1q-26 -95 -95 -95q-24 0 -60.5 16.5t-58.5 16.5q-39 0 -63 -47l-7 1q26 95 95 95z" />
    <glyph glyph-name="hungarumlaut" unicode="&#x2dd;" horiz-adv-x="427" 
d="M285 546l107 183l41 -31l-141 -157zM146 546l107 183l41 -31l-141 -157z" />
    <glyph glyph-name="Wgrave" unicode="&#x1e80;" horiz-adv-x="730" 
d="M173 -8h-20l-33 584q-3 67 -10.5 98t-21.5 56v2h113v-2q-35 -52 -29 -155l26 -476l213 476v1q-5 104 -34 154v2h116v-2q-36 -53 -30 -155l26 -477l212 479q44 100 15 153v2h107v-2q-30 -23 -47 -49t-49 -98l-263 -591h-20l-30 536zM558 789l-5 -7l-228 121l41 56z" />
    <glyph glyph-name="wgrave" unicode="&#x1e81;" horiz-adv-x="526" 
d="M105 -5h-10l-12 358q-2 54 -9.5 76t-33.5 44v2h90l12 -380l138 235v23q-1 54 -9 75.5t-34 44.5v2h90l5 -378l122 217q26 45 35.5 72.5t4 49t-30.5 37.5v2h103v-2l-271 -478h-10l-4 298zM357 539l-8 -6l-146 178l55 38z" />
    <glyph glyph-name="Wacute" unicode="&#x1e82;" horiz-adv-x="730" 
d="M173 -8h-20l-33 584q-3 67 -10.5 98t-21.5 56v2h113v-2q-35 -52 -29 -155l26 -476l213 476v1q-5 104 -34 154v2h116v-2q-36 -53 -30 -155l26 -477l212 479q44 100 15 153v2h107v-2q-30 -23 -47 -49t-49 -98l-263 -591h-20l-30 536zM359 789l224 170l31 -57l-251 -120z
" />
    <glyph glyph-name="wacute" unicode="&#x1e83;" horiz-adv-x="526" 
d="M105 -5h-10l-12 358q-2 54 -9.5 76t-33.5 44v2h90l12 -380l138 235v23q-1 54 -9 75.5t-34 44.5v2h90l5 -378l122 217q26 45 35.5 72.5t4 49t-30.5 37.5v2h103v-2l-271 -478h-10l-4 298zM249 539l158 210l42 -44l-195 -172z" />
    <glyph glyph-name="Wdieresis" unicode="&#x1e84;" horiz-adv-x="730" 
d="M173 -8h-20l-33 584q-3 67 -10.5 98t-21.5 56v2h113v-2q-35 -52 -29 -155l26 -476l213 476v1q-5 104 -34 154v2h116v-2q-36 -53 -30 -155l26 -477l212 479q44 100 15 153v2h107v-2q-30 -23 -47 -49t-49 -98l-263 -591h-20l-30 536zM605 868q0 -17 -12 -29t-29 -12t-29 12
t-12 29t12 29t29 12t29 -12t12 -29zM413 868q0 -17 -12 -29t-29 -12t-29 12t-12 29t12 29t29 12t29 -12t12 -29z" />
    <glyph glyph-name="wdieresis" unicode="&#x1e85;" horiz-adv-x="526" 
d="M105 -5h-10l-12 358q-2 54 -9.5 76t-33.5 44v2h90l12 -380l138 235v23q-1 54 -9 75.5t-34 44.5v2h90l5 -378l122 217q26 45 35.5 72.5t4 49t-30.5 37.5v2h103v-2l-271 -478h-10l-4 298zM285 659q0 -17 -12 -29t-29 -12t-29 12t-12 29t12 29t29 12t29 -12t12 -29zM457 659
q0 -17 -12 -29t-29 -12t-29 12t-12 29t12 29t29 12t29 -12t12 -29z" />
    <glyph glyph-name="Ygrave" unicode="&#x1ef2;" horiz-adv-x="466" 
d="M128 0v2q26 39 38 68.5t21 79.5l34 188l-66 266q-23 92 -58 126v2h123v-2q-30 -35 -10 -119l58 -249l138 228q52 86 15 140v2h114v-2q-59 -63 -96 -124l-166 -273l-32 -183q-9 -51 -7.5 -80t15.5 -68l-1 -2h-120zM437 789l-5 -7l-228 121l41 56z" />
    <glyph glyph-name="ygrave" unicode="&#x1ef3;" horiz-adv-x="362" 
d="M-103 -225l14 68q60 1 105 30t100 127l-30 353q-5 63 -11.5 81.5t-31.5 38.5v2h85l32 -394l121 233q25 48 34 73.5t4 47.5t-29 38v2h102v-2l-254 -473q-37 -70 -70 -116t-64 -67.5t-53.5 -29.5t-53.5 -12zM280 539l-8 -6l-146 178l55 38z" />
    <glyph glyph-name="uni2009" unicode="&#x2009;" horiz-adv-x="100" 
 />
    <glyph glyph-name="endash" unicode="&#x2013;" horiz-adv-x="465" 
d="M442 271h-397l2 18h398z" />
    <glyph glyph-name="emdash" unicode="&#x2014;" horiz-adv-x="695" 
d="M672 271h-627l2 18h628z" />
    <glyph glyph-name="quoteleft" unicode="&#x2018;" horiz-adv-x="157" 
d="M217 755l5 -6q-76 -55 -76 -102q0 -24 36 -60v-2l-47 -41q-35 27 -35 63q0 67 117 148z" />
    <glyph glyph-name="quoteright" unicode="&#x2019;" horiz-adv-x="157" 
d="M93 544l-5 6q76 55 76 102q0 24 -36 60v2l47 41q35 -27 35 -63q0 -67 -117 -148z" />
    <glyph glyph-name="quotesinglbase" unicode="&#x201a;" horiz-adv-x="157" 
d="M-22 -86l-5 6q76 55 76 102q0 24 -36 60v2l47 41q35 -27 35 -63q0 -67 -117 -148z" />
    <glyph glyph-name="quotedblleft" unicode="&#x201c;" horiz-adv-x="292" 
d="M352 755l5 -6q-76 -55 -76 -102q0 -24 36 -60v-2l-47 -41q-35 27 -35 63q0 67 117 148zM217 755l5 -6q-76 -55 -76 -102q0 -24 36 -60v-2l-47 -41q-35 27 -35 63q0 67 117 148z" />
    <glyph glyph-name="quotedblright" unicode="&#x201d;" horiz-adv-x="292" 
d="M93 544l-5 6q76 55 76 102q0 24 -36 60v2l47 41q35 -27 35 -63q0 -67 -117 -148zM228 544l-5 6q76 55 76 102q0 24 -36 60v2l47 41q35 -27 35 -63q0 -67 -117 -148z" />
    <glyph glyph-name="quotedblbase" unicode="&#x201e;" horiz-adv-x="292" 
d="M-22 -86l-5 6q76 55 76 102q0 24 -36 60v2l47 41q35 -27 35 -63q0 -67 -117 -148zM113 -86l-5 6q76 55 76 102q0 24 -36 60v2l47 41q35 -27 35 -63q0 -67 -117 -148z" />
    <glyph glyph-name="dagger" unicode="&#x2020;" horiz-adv-x="398" 
d="M221 262l-66 -262h-18l30 272l66 246l-167 -23l11 58l158 -23l10 202h64l-62 -202l166 23l-11 -58l-158 23z" />
    <glyph glyph-name="daggerdbl" unicode="&#x2021;" horiz-adv-x="398" 
d="M346 179l-158 23l-10 -202h-64l62 202l-166 -23l11 58l157 -23l6 154l49 150l-167 -23l11 58l158 -23l10 202h64l-62 -202l166 23l-11 -58l-157 23l-10 -158l-45 -146l167 23z" />
    <glyph glyph-name="bullet" unicode="&#x2022;" horiz-adv-x="228" 
d="M123 211q-30 0 -52 22t-22 52q0 32 21.5 54t52.5 22q30 0 52 -22.5t22 -53.5q0 -29 -22 -51.5t-52 -22.5z" />
    <glyph glyph-name="ellipsis" unicode="&#x2026;" horiz-adv-x="669" 
d="M82 -3q-19 0 -33 14t-14 33t14 33t33 14q20 0 33.5 -13.5t13.5 -33.5t-13.5 -33.5t-33.5 -13.5zM312 -3q-19 0 -33 14t-14 33t14 33t33 14q20 0 33.5 -13.5t13.5 -33.5t-13.5 -33.5t-33.5 -13.5zM542 -3q-19 0 -33 14t-14 33t14 33t33 14q20 0 33.5 -13.5t13.5 -33.5
t-13.5 -33.5t-33.5 -13.5z" />
    <glyph glyph-name="perthousand" unicode="&#x2030;" horiz-adv-x="1033" 
d="M366 598q0 -100 -54 -176t-121 -76q-48 0 -77 41t-29 108q0 100 54 176t121 76q49 0 77.5 -40.5t28.5 -108.5zM192 357q55 0 88.5 88.5t33.5 192.5q0 98 -54 98q-37 0 -66 -45t-42.5 -108t-13.5 -128q0 -98 54 -98zM127 1l-16 13l521 729l17 -11zM670 244
q0 -100 -54 -176t-121 -76q-48 0 -77 41t-29 108q0 100 54 176t121 76q49 0 77.5 -40.5t28.5 -108.5zM496 3q55 0 88.5 88.5t33.5 192.5q0 98 -54 98q-37 0 -66 -45t-42.5 -108t-13.5 -128q0 -98 54 -98zM993 244q0 -100 -54 -176t-121 -76q-48 0 -77 41t-29 108
q0 100 54 176t121 76q49 0 77.5 -40.5t28.5 -108.5zM819 3q55 0 88.5 88.5t33.5 192.5q0 98 -54 98q-37 0 -66 -45t-42.5 -108t-13.5 -128q0 -98 54 -98z" />
    <glyph glyph-name="guilsinglleft" unicode="&#x2039;" horiz-adv-x="217" 
d="M151 58l-9 -6l-101 175l5 20l175 175l6 -6l-129 -182z" />
    <glyph glyph-name="guilsinglright" unicode="&#x203a;" horiz-adv-x="217" 
d="M72 416l9 6l101 -175l-5 -20l-175 -175l-6 6l129 182z" />
    <glyph glyph-name="fraction" unicode="&#x2044;" horiz-adv-x="263" 
d="M-101 1l-16 13l521 729l17 -11z" />
    <glyph glyph-name="Euro" unicode="&#x20ac;" horiz-adv-x="598" 
d="M525 53q-25 -23 -80.5 -45.5t-121.5 -22.5q-116 0 -177 82t-63 224h-85l4 18h81q2 61 13 114h-71l5 18h71q34 133 121 219.5t198 86.5q54 0 104 -18.5t72 -34.5l10 -129l-8 -2q-68 164 -187 164q-90 0 -154.5 -80t-92.5 -206h211l-5 -18h-210q-10 -55 -12 -114h199
l-4 -18h-196v-10q0 -121 45.5 -198.5t130.5 -77.5q66 0 118.5 48.5t113.5 147.5l10 -2z" />
    <glyph glyph-name="trademark" unicode="&#x2122;" horiz-adv-x="651" 
d="M178 403h-66v2q12 18 19 57l47 257l-35 -1q-16 -1 -33 -19.5t-44 -60.5l-6 3l24 91h236v-93l-6 -1q-17 45 -27 62t-24 18l-42 2l-46 -258q-7 -39 3 -57v-2zM356 405v-2h-51v2q22 31 29 73l35 191q4 21 2 33.5t-14 28.5v1h62l42 -249l129 249h61v-1q-13 -11 -19.5 -21.5
t-8.5 -18.5t-6 -33l-35 -196q-6 -34 3 -57v-2h-66v2q12 18 19 57l38 212l-137 -262h-9l-45 265l-36 -199q-8 -41 7 -73z" />
    <glyph glyph-name="onethird" unicode="&#x2153;" horiz-adv-x="634" 
d="M245 744l-54 -311q-9 -46 5 -78v-1h-89v1q27 35 34 78l40 228h-38l1 5q51 29 96 78h5zM80 1l-16 13l521 729l17 -11zM436 -8q-50 0 -72 18l-7 83l5 1q31 -91 80 -91q38 0 62.5 44t24.5 95q0 41 -17 61t-44 20q-29 0 -59 -23l-4 6l141 131h-134l25 47h173l-1 -5l-163 -150
q16 7 35 7q40 0 69 -26.5t29 -75.5q0 -58 -39 -100t-104 -42z" />
    <glyph glyph-name="twothirds" unicode="&#x2154;" horiz-adv-x="652" 
d="M235 354h-196l2 7q118 107 162.5 175t44.5 133q0 33 -13 50t-34 17q-22 0 -43 -22.5t-48 -66.5l-5 2l25 83q36 15 75 15q46 0 70.5 -22t24.5 -63q0 -62 -47.5 -119.5t-157.5 -141.5h90q26 0 43.5 11.5t38.5 34.5l3 -2zM103 1l-16 13l521 729l17 -11zM454 -8q-50 0 -72 18
l-7 83l5 1q31 -91 80 -91q38 0 62.5 44t24.5 95q0 41 -17 61t-44 20q-29 0 -59 -23l-4 6l141 131h-134l25 47h173l-1 -5l-163 -150q16 7 35 7q40 0 69 -26.5t29 -75.5q0 -58 -39 -100t-104 -42z" />
    <glyph glyph-name="oneeighth" unicode="&#x215b;" horiz-adv-x="637" 
d="M456 -8q-43 0 -71.5 23t-28.5 65q0 38 24.5 67.5t73.5 44.5q-24 22 -36 42t-12 50q0 47 31.5 77t76.5 30q38 0 60.5 -21.5t22.5 -56.5q0 -76 -85 -102q23 -21 33 -31t21.5 -31.5t11.5 -45.5q0 -51 -36 -81t-86 -30zM255 744l-54 -311q-9 -46 5 -78v-1h-89v1q27 35 34 78
l40 228h-38l1 5q51 29 96 78h5zM459 3q32 0 54 21.5t22 53.5q0 21 -13 42.5t-24 32.5t-34 31l-5 4q-67 -40 -67 -108q0 -36 18.5 -56.5t48.5 -20.5zM80 1l-16 13l521 729l17 -11zM506 217l1 -1q52 37 52 102q0 62 -50 62q-27 0 -45 -18.5t-18 -47.5q0 -45 60 -97z" />
    <glyph glyph-name="threeeighths" unicode="&#x215c;" horiz-adv-x="645" 
d="M464 -8q-43 0 -71.5 23t-28.5 65q0 38 24.5 67.5t73.5 44.5q-24 22 -36 42t-12 50q0 47 31.5 77t76.5 30q38 0 60.5 -21.5t22.5 -56.5q0 -76 -85 -102q23 -21 33 -31t21.5 -31.5t11.5 -45.5q0 -51 -36 -81t-86 -30zM140 346q-50 0 -72 18l-7 83l5 1q31 -91 80 -91
q38 0 62.5 44t24.5 95q0 41 -17 61t-44 20q-29 0 -59 -23l-4 6l141 131h-134l25 47h173l-1 -5l-163 -150q16 7 35 7q40 0 69 -26.5t29 -75.5q0 -58 -39 -100t-104 -42zM467 3q32 0 54 21.5t22 53.5q0 21 -13 42.5t-24 32.5t-34 31l-5 4q-67 -40 -67 -108q0 -36 18.5 -56.5
t48.5 -20.5zM88 1l-16 13l521 729l17 -11zM514 217l1 -1q52 37 52 102q0 62 -50 62q-27 0 -45 -18.5t-18 -47.5q0 -45 60 -97z" />
    <glyph glyph-name="fiveeighths" unicode="&#x215d;" horiz-adv-x="642" 
d="M461 -8q-43 0 -71.5 23t-28.5 65q0 38 24.5 67.5t73.5 44.5q-24 22 -36 42t-12 50q0 47 31.5 77t76.5 30q38 0 60.5 -21.5t22.5 -56.5q0 -76 -85 -102q23 -21 33 -31t21.5 -31.5t11.5 -45.5q0 -51 -36 -81t-86 -30zM135 346q-49 0 -71 18l-7 83l5 1q31 -91 80 -91
q37 0 60.5 42.5t23.5 99.5q0 89 -65 89q-31 0 -62 -23l-3 3l52 171h157l-15 -47h-144l-35 -109q27 17 65 17q46 0 74 -26.5t28 -78.5q0 -63 -39.5 -106t-103.5 -43zM464 3q32 0 54 21.5t22 53.5q0 21 -13 42.5t-24 32.5t-34 31l-5 4q-67 -40 -67 -108q0 -36 18.5 -56.5
t48.5 -20.5zM85 1l-16 13l521 729l17 -11zM511 217l1 -1q52 37 52 102q0 62 -50 62q-27 0 -45 -18.5t-18 -47.5q0 -45 60 -97z" />
    <glyph glyph-name="seveneighths" unicode="&#x215e;" horiz-adv-x="648" 
d="M467 -8q-43 0 -71.5 23t-28.5 65q0 38 24.5 67.5t73.5 44.5q-24 22 -36 42t-12 50q0 47 31.5 77t76.5 30q38 0 60.5 -21.5t22.5 -56.5q0 -76 -85 -102q23 -21 33 -31t21.5 -31.5t11.5 -45.5q0 -51 -36 -81t-86 -30zM192 354h-53q67 167 202 338h-177l17 47h197v-5
q-129 -194 -186 -380zM470 3q32 0 54 21.5t22 53.5q0 21 -13 42.5t-24 32.5t-34 31l-5 4q-67 -40 -67 -108q0 -36 18.5 -56.5t48.5 -20.5zM91 1l-16 13l521 729l17 -11zM517 217l1 -1q52 37 52 102q0 62 -50 62q-27 0 -45 -18.5t-18 -47.5q0 -45 60 -97z" />
    <glyph glyph-name="minus" unicode="&#x2212;" horiz-adv-x="532" 
d="M507 298h-442v20h442v-20z" />
    <glyph glyph-name="uni24C5" unicode="&#x24c5;" horiz-adv-x="848" 
d="M55 367q0 159 111.5 269.5t269.5 110.5q159 0 270.5 -110.5t111.5 -269.5q0 -160 -112 -270.5t-270 -110.5t-269.5 110.5t-111.5 270.5zM80 367q0 -150 104 -255.5t252 -105.5t252 105.5t104 255.5t-104 255t-252 105t-252 -105t-104 -255zM323 153v2q22 27 22 64v271
q0 37 -22 64v2h130q123 0 123 -112q0 -59 -35 -92.5t-97 -33.5h-64v-99q0 -23 4 -35.5t17 -28.5v-2h-78zM444 539q-25 0 -64 -1v-202h64q48 0 71.5 29.5t23.5 78.5q0 95 -95 95z" />
    <glyph glyph-name="f.alt" unicode="&#xe4c5;" horiz-adv-x="257" 
d="M23 0v2q12 21 22 48.5t14 45t15 67.5l64 294h-56l4 18h55l22 100q22 104 67 154t104 50q28 0 60 -17l7 -91l-4 -1q-27 46 -46.5 67t-43.5 21q-27 0 -49.5 -36t-42.5 -131l-25 -116h100l-4 -18h-99l-62 -291q-15 -70 -17.5 -102t5.5 -62v-2h-90z" />
    <glyph glyph-name="k.alt" unicode="&#xe4ca;" horiz-adv-x="407" 
d="M93 0h-88v2q5 7 8.5 13.5t7.5 15.5t6.5 14.5t5.5 17t4.5 16.5t5 19.5t4.5 19.5l4.5 22.5l4.5 22.5l97 462q10 49 6 72.5t-24 46.5v2l100 33l-130 -614q-15 -70 -17.5 -101.5t5.5 -61.5v-2zM301 -5q-52 0 -98 87q-33 61 -69 164l145 145q53 53 28 82v2h120v-2
q-42 -15 -78.5 -46t-167.5 -162q31 -87 65 -153q22 -40 38.5 -55.5t35.5 -15.5q23 0 42 19l3 -2q-9 -30 -26.5 -46.5t-37.5 -16.5z" />
    <glyph glyph-name="v.alt" unicode="&#xe4d5;" horiz-adv-x="369" 
d="M174 475l-92 -363q-22 -89 35 -89q61 0 121 95q36 55 66 135.5t30 138.5q0 59 -38 81v2h93v-2q-16 -105 -55 -207.5t-84 -169.5q-74 -111 -152 -111q-40 0 -60.5 32.5t-6.5 88.5l70 274q18 74 -32 93v2h105z" />
    <glyph glyph-name="w.alt" unicode="&#xe4d6;" horiz-adv-x="580" 
d="M316 -15q-43 0 -62 32t-4 89l9 34q-18 -36 -31 -56q-61 -99 -133 -99q-42 0 -60.5 32t-3.5 89l70 274q18 74 -32 93v2h105l-92 -363q-22 -89 33 -89t104 84q56 95 94 246l7 27q18 74 -32 93v2h105l-92 -363q-22 -89 34 -89q55 0 111 89q37 61 67 142t30 138q0 59 -38 81
v2h93v-2q-16 -105 -55.5 -208t-85.5 -175q-68 -105 -141 -105z" />
    <glyph glyph-name="x.alt" unicode="&#xe4d7;" horiz-adv-x="379" 
d="M135 124q-37 -71 -70 -100t-90 -29l9 50q86 0 141 102l47 94l-30 117q-13 52 -27 76.5t-40 38.5v2h88l52 -204l50 100q27 58 60.5 83.5t83.5 25.5l-9 -50q-87 0 -125 -82l-53 -105l32 -126q13 -51 27 -76t40 -39v-2h-86l-55 213z" />
    <glyph glyph-name="y.alt" unicode="&#xe4d8;" horiz-adv-x="362" 
d="M-115 -245l22 68q50 -2 105 22.5t102 78.5q-1 228 -20 387q-8 76 -22 110.5t-44 51.5v2h90q18 -49 32 -164q13 -113 15 -316q145 229 145 387q0 61 -44 91v2h106v-2q-33 -217 -158 -435q-29 -50 -57.5 -89.5t-69 -82t-92 -71.5t-110.5 -40z" />
    <glyph glyph-name="z.alt" unicode="&#xe4d9;" horiz-adv-x="360" 
d="M276 0h-296l2 7l343 424l-138 -2q-32 -1 -54 -13.5t-57 -44.5l-4 2l39 102h274l-3 -9l-344 -425l166 4q38 1 63 16t57 50l4 -2z" />
    <glyph glyph-name="idotaccent" 
d="M216 659q0 -17 -12 -29t-29 -12t-29 12t-12 29t12 29t29 12t29 -12t12 -29zM7 0v2q28 40 51 161l35 178q15 75 -18 119v2l96 33l-73 -372q-15 -79 -3 -121v-2h-88z" />
    <glyph glyph-name="space_uni0326" horiz-adv-x="300" 
d="M55 -224l-4 6q64 38 64 74q0 31 -33 58v2l41 34q36 -30 36 -61q0 -54 -104 -113z" />
    <glyph glyph-name="five.num" horiz-adv-x="238" 
d="M125 346q-49 0 -71 18l-7 83l5 1q31 -91 80 -91q37 0 60.5 42.5t23.5 99.5q0 89 -65 89q-31 0 -62 -23l-3 3l52 171h157l-15 -47h-144l-35 -109q27 17 65 17q46 0 74 -26.5t28 -78.5q0 -63 -39.5 -106t-103.5 -43z" />
    <glyph glyph-name="zero.num" horiz-adv-x="321" 
d="M356 598q0 -100 -54 -176t-121 -76q-48 0 -77 41t-29 108q0 100 54 176t121 76q49 0 77.5 -40.5t28.5 -108.5zM182 357q55 0 88.5 88.5t33.5 192.5q0 98 -54 98q-37 0 -66 -45t-42.5 -108t-13.5 -128q0 -98 54 -98z" />
    <glyph glyph-name="one.num" horiz-adv-x="156" 
d="M192 744l-54 -311q-9 -46 5 -78v-1h-89v1q27 35 34 78l40 228h-38l1 5q51 29 96 78h5z" />
    <glyph glyph-name="two.num" horiz-adv-x="256" 
d="M225 354h-196l2 7q118 107 162.5 175t44.5 133q0 33 -13 50t-34 17q-22 0 -43 -22.5t-48 -66.5l-5 2l25 83q36 15 75 15q46 0 70.5 -22t24.5 -63q0 -62 -47.5 -119.5t-157.5 -141.5h90q26 0 43.5 11.5t38.5 34.5l3 -2z" />
    <glyph glyph-name="three.num" horiz-adv-x="253" 
d="M130 346q-50 0 -72 18l-7 83l5 1q31 -91 80 -91q38 0 62.5 44t24.5 95q0 41 -17 61t-44 20q-29 0 -59 -23l-4 6l141 131h-134l25 47h173l-1 -5l-163 -150q16 7 35 7q40 0 69 -26.5t29 -75.5q0 -58 -39 -100t-104 -42z" />
    <glyph glyph-name="four.num" horiz-adv-x="248" 
d="M155 354l1 1q22 33 29 78l4 21h-141l1 7l190 278h57l-233 -273h128l23 129h49l-22 -129h37l-5 -12h-34l-4 -21q-9 -47 2 -78v-1h-82z" />
    <glyph glyph-name="six.num" horiz-adv-x="276" 
d="M163 346q-44 0 -68.5 32.5t-24.5 86.5q0 52 21 103.5t72.5 101.5t125.5 77l1 -5q-100 -51 -147 -176q29 44 74 44q38 0 61 -26t23 -72q0 -68 -42 -117t-96 -49zM164 357q34 0 59 48t25 109q0 75 -46 75q-43 0 -66 -46v1q-16 -52 -16 -104q0 -83 44 -83z" />
    <glyph glyph-name="seven.num" horiz-adv-x="219" 
d="M118 354h-53q67 167 202 338h-177l17 47h197v-5q-129 -194 -186 -380z" />
    <glyph glyph-name="eight.num" horiz-adv-x="271" 
d="M170 346q-43 0 -71.5 23t-28.5 65q0 38 24.5 67.5t73.5 44.5q-24 22 -36 42t-12 50q0 47 31.5 77t76.5 30q38 0 60.5 -21.5t22.5 -56.5q0 -76 -85 -102q23 -21 33 -31t21.5 -31.5t11.5 -45.5q0 -51 -36 -81t-86 -30zM173 357q32 0 54 21.5t22 53.5q0 21 -13 42.5
t-24 32.5t-34 31l-5 4q-67 -40 -67 -108q0 -36 18.5 -56.5t48.5 -20.5zM220 571l1 -1q52 37 52 102q0 62 -50 62q-27 0 -45 -18.5t-18 -47.5q0 -45 60 -97z" />
    <glyph glyph-name="nine.num" horiz-adv-x="276" 
d="M101 351q100 52 146 176q-27 -44 -73 -44q-38 0 -61 26t-23 72q0 68 42 117t96 49q44 0 68.5 -32.5t24.5 -86.5q0 -52 -21 -103.5t-72.5 -101.5t-125.5 -77zM255 550v-1q16 51 16 104q0 83 -44 83q-34 0 -59 -48t-25 -109q0 -75 46 -75q43 0 66 46z" />
    <glyph glyph-name="five.den" horiz-adv-x="238" 
d="M60 -8q-49 0 -71 18l-7 83l5 1q31 -91 80 -91q37 0 60.5 42.5t23.5 99.5q0 89 -65 89q-31 0 -62 -23l-3 3l52 171h157l-15 -47h-144l-35 -109q27 17 65 17q46 0 74 -26.5t28 -78.5q0 -63 -39.5 -106t-103.5 -43z" />
    <glyph glyph-name="zero.den" horiz-adv-x="321" 
d="M291 244q0 -100 -54 -176t-121 -76q-48 0 -77 41t-29 108q0 100 54 176t121 76q49 0 77.5 -40.5t28.5 -108.5zM117 3q55 0 88.5 88.5t33.5 192.5q0 98 -54 98q-37 0 -66 -45t-42.5 -108t-13.5 -128q0 -98 54 -98z" />
    <glyph glyph-name="one.den" horiz-adv-x="156" 
d="M135 390l-54 -311q-9 -46 5 -78v-1h-89v1q27 35 34 78l40 228h-38l1 5q51 29 96 78h5z" />
    <glyph glyph-name="two.den" horiz-adv-x="256" 
d="M160 0h-196l2 7q118 107 162.5 175t44.5 133q0 33 -13 50t-34 17q-22 0 -43 -22.5t-48 -66.5l-5 2l25 83q36 15 75 15q46 0 70.5 -22t24.5 -63q0 -62 -47.5 -119.5t-157.5 -141.5h90q26 0 43.5 11.5t38.5 34.5l3 -2z" />
    <glyph glyph-name="three.den" horiz-adv-x="253" 
d="M65 -8q-50 0 -72 18l-7 83l5 1q31 -91 80 -91q38 0 62.5 44t24.5 95q0 41 -17 61t-44 20q-29 0 -59 -23l-4 6l141 131h-134l25 47h173l-1 -5l-163 -150q16 7 35 7q40 0 69 -26.5t29 -75.5q0 -58 -39 -100t-104 -42z" />
    <glyph glyph-name="four.den" horiz-adv-x="248" 
d="M90 0l1 1q22 33 29 78l4 21h-141l1 7l190 278h57l-233 -273h128l23 129h49l-22 -129h37l-5 -12h-34l-4 -21q-9 -47 2 -78v-1h-82z" />
    <glyph glyph-name="six.den" horiz-adv-x="276" 
d="M98 -8q-44 0 -68.5 32.5t-24.5 86.5q0 52 21 103.5t72.5 101.5t125.5 77l1 -5q-100 -51 -147 -176q29 44 74 44q38 0 61 -26t23 -72q0 -68 -42 -117t-96 -49zM99 3q34 0 59 48t25 109q0 75 -46 75q-43 0 -66 -46v1q-16 -52 -16 -104q0 -83 44 -83z" />
    <glyph glyph-name="seven.den" horiz-adv-x="219" 
d="M53 0h-53q67 167 202 338h-177l17 47h197v-5q-129 -194 -186 -380z" />
    <glyph glyph-name="eight.den" horiz-adv-x="271" 
d="M105 -8q-43 0 -71.5 23t-28.5 65q0 38 24.5 67.5t73.5 44.5q-24 22 -36 42t-12 50q0 47 31.5 77t76.5 30q38 0 60.5 -21.5t22.5 -56.5q0 -76 -85 -102q23 -21 33 -31t21.5 -31.5t11.5 -45.5q0 -51 -36 -81t-86 -30zM108 3q32 0 54 21.5t22 53.5q0 21 -13 42.5t-24 32.5
t-34 31l-5 4q-67 -40 -67 -108q0 -36 18.5 -56.5t48.5 -20.5zM155 217l1 -1q52 37 52 102q0 62 -50 62q-27 0 -45 -18.5t-18 -47.5q0 -45 60 -97z" />
    <glyph glyph-name="nine.den" horiz-adv-x="276" 
d="M36 -3q100 52 146 176q-28 -44 -73 -44q-38 0 -61 26t-23 72q0 68 42 117t96 49q44 0 68.5 -32.5t24.5 -86.5q0 -52 -21 -103.5t-72.5 -101.5t-125.5 -77zM190 196v-1q16 51 16 104q0 83 -44 83q-34 0 -59 -48t-25 -109q0 -75 46 -75q43 0 66 46z" />
    <glyph glyph-name="five.sub" horiz-adv-x="238" 
d="M48 -88q-49 0 -71 18l-7 83l5 1q31 -91 80 -91q37 0 60.5 42.5t23.5 99.5q0 89 -65 89q-31 0 -62 -23l-3 3l52 171h157l-15 -47h-144l-35 -109q27 17 65 17q46 0 74 -26.5t28 -78.5q0 -63 -39.5 -106t-103.5 -43z" />
    <glyph glyph-name="zero.sub" horiz-adv-x="321" 
d="M279 164q0 -100 -54 -176t-121 -76q-48 0 -77 41t-29 108q0 100 54 176t121 76q49 0 77.5 -40.5t28.5 -108.5zM105 -77q55 0 88.5 88.5t33.5 192.5q0 98 -54 98q-37 0 -66 -45t-42.5 -108t-13.5 -128q0 -98 54 -98z" />
    <glyph glyph-name="one.sub" horiz-adv-x="156" 
d="M123 310l-54 -311q-9 -46 5 -78v-1h-89v1q27 35 34 78l40 228h-38l1 5q51 29 96 78h5z" />
    <glyph glyph-name="two.sub" horiz-adv-x="256" 
d="M148 -80h-196l2 7q118 107 162.5 175t44.5 133q0 33 -13 50t-34 17q-22 0 -43 -22.5t-48 -66.5l-5 2l25 83q36 15 75 15q46 0 70.5 -22t24.5 -63q0 -62 -47.5 -119.5t-157.5 -141.5h90q26 0 43.5 11.5t38.5 34.5l3 -2z" />
    <glyph glyph-name="three.sub" horiz-adv-x="253" 
d="M53 -88q-50 0 -72 18l-7 83l5 1q31 -91 80 -91q38 0 62.5 44t24.5 95q0 41 -17 61t-44 20q-29 0 -59 -23l-4 6l141 131h-134l25 47h173l-1 -5l-163 -150q16 7 35 7q40 0 69 -26.5t29 -75.5q0 -58 -39 -100t-104 -42z" />
    <glyph glyph-name="four.sub" horiz-adv-x="248" 
d="M78 -80l1 1q22 33 29 78l4 21h-141l1 7l190 278h57l-233 -273h128l23 129h49l-22 -129h37l-5 -12h-34l-4 -21q-9 -47 2 -78v-1h-82z" />
    <glyph glyph-name="six.sub" horiz-adv-x="276" 
d="M86 -88q-44 0 -68.5 32.5t-24.5 86.5q0 52 21 103.5t72.5 101.5t125.5 77l1 -5q-100 -51 -147 -176q29 44 74 44q38 0 61 -26t23 -72q0 -68 -42 -117t-96 -49zM87 -77q34 0 59 48t25 109q0 75 -46 75q-43 0 -66 -46v1q-16 -52 -16 -104q0 -83 44 -83z" />
    <glyph glyph-name="seven.sub" horiz-adv-x="219" 
d="M41 -80h-53q67 167 202 338h-177l17 47h197v-5q-129 -194 -186 -380z" />
    <glyph glyph-name="eight.sub" horiz-adv-x="271" 
d="M93 -88q-43 0 -71.5 23t-28.5 65q0 38 24.5 67.5t73.5 44.5q-24 22 -36 42t-12 50q0 47 31.5 77t76.5 30q38 0 60.5 -21.5t22.5 -56.5q0 -76 -85 -102q23 -21 33 -31t21.5 -31.5t11.5 -45.5q0 -51 -36 -81t-86 -30zM96 -77q32 0 54 21.5t22 53.5q0 21 -13 42.5t-24 32.5
t-34 31l-5 4q-67 -40 -67 -108q0 -36 18.5 -56.5t48.5 -20.5zM143 137l1 -1q52 37 52 102q0 62 -50 62q-27 0 -45 -18.5t-18 -47.5q0 -45 60 -97z" />
    <glyph glyph-name="nine.sub" horiz-adv-x="276" 
d="M145 313q44 0 68.5 -32.5t24.5 -86.5q0 -52 -21 -103.5t-72.5 -101.5t-125.5 -77l-1 5q100 51 147 176q-29 -44 -74 -44q-38 0 -61 26t-23 72q0 68 42 117t96 49zM144 302q-34 0 -59 -48t-25 -109q0 -75 46 -75q43 0 66 46v-1q16 52 16 104q0 83 -44 83z" />
    <glyph glyph-name="plus.sub" horiz-adv-x="315" 
d="M270 106h-123v-123h-20v123h-122v18h122v123h20v-123h123v-18z" />
    <glyph glyph-name="minus.sub" horiz-adv-x="315" 
d="M270 106h-265v18h265v-18z" />
    <glyph glyph-name="five.sup" horiz-adv-x="238" 
d="M135 426q-49 0 -71 18l-7 83l5 1q31 -91 80 -91q37 0 60.5 42.5t23.5 99.5q0 89 -65 89q-31 0 -62 -23l-3 3l52 171h157l-15 -47h-144l-35 -109q27 17 65 17q46 0 74 -26.5t28 -78.5q0 -63 -39.5 -106t-103.5 -43z" />
    <glyph glyph-name="zero.sup" horiz-adv-x="321" 
d="M366 678q0 -100 -54 -176t-121 -76q-48 0 -77 41t-29 108q0 100 54 176t121 76q49 0 77.5 -40.5t28.5 -108.5zM192 437q55 0 88.5 88.5t33.5 192.5q0 98 -54 98q-37 0 -66 -45t-42.5 -108t-13.5 -128q0 -98 54 -98z" />
    <glyph glyph-name="one.sup" horiz-adv-x="156" 
d="M205 824l-54 -311q-9 -46 5 -78v-1h-89v1q27 35 34 78l40 228h-38l1 5q51 29 96 78h5z" />
    <glyph glyph-name="two.sup" horiz-adv-x="256" 
d="M235 434h-196l2 7q118 107 162.5 175t44.5 133q0 33 -13 50t-34 17q-22 0 -43 -22.5t-48 -66.5l-5 2l25 83q36 15 75 15q46 0 70.5 -22t24.5 -63q0 -62 -47.5 -119.5t-157.5 -141.5h90q26 0 43.5 11.5t38.5 34.5l3 -2z" />
    <glyph glyph-name="three.sup" horiz-adv-x="253" 
d="M140 426q-50 0 -72 18l-7 83l5 1q31 -91 80 -91q38 0 62.5 44t24.5 95q0 41 -17 61t-44 20q-29 0 -59 -23l-4 6l141 131h-134l25 47h173l-1 -5l-163 -150q16 7 35 7q40 0 69 -26.5t29 -75.5q0 -58 -39 -100t-104 -42z" />
    <glyph glyph-name="four.sup" horiz-adv-x="248" 
d="M165 434l1 1q22 33 29 78l4 21h-141l1 7l190 278h57l-233 -273h128l23 129h49l-22 -129h37l-5 -12h-34l-4 -21q-9 -47 2 -78v-1h-82z" />
    <glyph glyph-name="six.sup" horiz-adv-x="276" 
d="M173 426q-44 0 -68.5 32.5t-24.5 86.5q0 52 21 103.5t72.5 101.5t125.5 77l1 -5q-100 -51 -147 -176q29 44 74 44q38 0 61 -26t23 -72q0 -68 -42 -117t-96 -49zM174 437q34 0 59 48t25 109q0 75 -46 75q-43 0 -66 -46v1q-16 -52 -16 -104q0 -83 44 -83z" />
    <glyph glyph-name="seven.sup" horiz-adv-x="219" 
d="M128 434h-53q67 167 202 338h-177l17 47h197v-5q-129 -194 -186 -380z" />
    <glyph glyph-name="eight.sup" horiz-adv-x="271" 
d="M180 426q-43 0 -71.5 23t-28.5 65q0 38 24.5 67.5t73.5 44.5q-24 22 -36 42t-12 50q0 47 31.5 77t76.5 30q38 0 60.5 -21.5t22.5 -56.5q0 -76 -85 -102q23 -21 33 -31t21.5 -31.5t11.5 -45.5q0 -51 -36 -81t-86 -30zM183 437q32 0 54 21.5t22 53.5q0 21 -13 42.5
t-24 32.5t-34 31l-5 4q-67 -40 -67 -108q0 -36 18.5 -56.5t48.5 -20.5zM230 651l1 -1q52 37 52 102q0 62 -50 62q-27 0 -45 -18.5t-18 -47.5q0 -45 60 -97z" />
    <glyph glyph-name="nine.sup" horiz-adv-x="276" 
d="M111 431q100 52 146 176q-27 -44 -73 -44q-38 0 -61 26t-23 72q0 68 42 117t96 49q44 0 68.5 -32.5t24.5 -86.5q0 -52 -21 -103.5t-72.5 -101.5t-125.5 -77zM265 630v-1q16 51 16 104q0 83 -44 83q-34 0 -59 -48t-25 -109q0 -75 46 -75q43 0 66 46z" />
    <glyph glyph-name="plus.sup" horiz-adv-x="315" 
d="M358 616h-123v-123h-20v123h-122v18h122v123h20v-123h123v-18z" />
    <glyph glyph-name="minus.sup" horiz-adv-x="315" 
d="M358 616h-265v18h265v-18z" />
    <glyph glyph-name="space_uni0326.alt" horiz-adv-x="300" 
d="M286 754l4 -6q-64 -38 -64 -74q0 -31 33 -58v-2l-41 -34q-36 30 -36 61q0 54 104 113z" />
    <glyph glyph-name="caron.alt" horiz-adv-x="427" 
d="M161 574l67 201h66l-127 -203z" />
    <glyph glyph-name="space.uc" horiz-adv-x="191" 
 />
    <glyph glyph-name="questiondown.uc" horiz-adv-x="370" 
d="M316 538h16q-16 -55 -51.5 -102.5t-74 -80.5t-75.5 -67t-61 -78t-24 -96q0 -111 99 -111q51 0 91.5 32.5t93.5 107.5l7 -3l-44 -123q-73 -32 -152 -32q-72 0 -113 33.5t-41 98.5q0 51 26.5 94.5t68 78t85.5 68t86.5 80.5t62.5 100zM350 735q19 0 33 -14t14 -33t-14 -33
t-33 -14q-20 0 -33.5 13.5t-13.5 33.5t13.5 33.5t33.5 13.5z" />
    <glyph glyph-name="exclamdown.uc" horiz-adv-x="200" 
d="M17 0v2l136 536h14l-90 -536l-1 -2h-59zM189 735q19 0 33 -14t14 -33t-14 -33t-33 -14t-33 13.5t-14 33.5t14 33.5t33 13.5z" />
    <glyph glyph-name="hyphen.uc" horiz-adv-x="282" 
d="M270 363h-215l8 40h214z" />
    <glyph glyph-name="endash.uc" horiz-adv-x="465" 
d="M455 371h-397l2 18h398z" />
    <glyph glyph-name="emdash.uc" horiz-adv-x="695" 
d="M685 371h-627l2 18h628z" />
    <glyph glyph-name="guilsinglleft.uc" horiz-adv-x="239" 
d="M173 118l-9 -6l-101 175l5 20l175 175l6 -6l-129 -182z" />
    <glyph glyph-name="guilsinglright.uc" horiz-adv-x="239" 
d="M85 476l9 6l101 -175l-5 -20l-175 -175l-6 6l129 182z" />
    <glyph glyph-name="guillemotleft.uc" horiz-adv-x="357" 
d="M303 118l-9 -6l-101 175l5 20l175 175l6 -6l-129 -182zM163 118l-9 -6l-101 175l5 20l175 175l6 -6l-129 -182z" />
    <glyph glyph-name="guillemotright.uc" horiz-adv-x="357" 
d="M222 476l9 6l101 -175l-5 -20l-175 -175l-6 6l129 182zM82 476l9 6l101 -175l-5 -20l-175 -175l-6 6l129 182z" />
    <glyph glyph-name="parenleft.uc" horiz-adv-x="275" 
d="M187 -81l-9 -9q-43 47 -75.5 137.5t-32.5 204.5q0 327 279 543l8 -10q-243 -227 -243 -554q0 -102 21 -186t52 -126z" />
    <glyph glyph-name="parenright.uc" horiz-adv-x="275" 
d="M128 786l9 9q43 -47 75.5 -137.5t32.5 -204.5q0 -327 -279 -543l-8 10q243 227 243 554q0 102 -21 186t-52 126z" />
    <glyph glyph-name="bracketleft.uc" horiz-adv-x="295" 
d="M20 -90l173 885h184l-4 -18h-144l-165 -849h145l-5 -18h-184z" />
    <glyph glyph-name="bracketright.uc" horiz-adv-x="295" 
d="M315 795l-173 -885h-184l4 18h144l165 849h-145l5 18h184z" />
    <glyph glyph-name="braceleft.uc" horiz-adv-x="280" 
d="M188 -90h-35q-58 0 -88.5 25.5t-30.5 68.5q0 39 25.5 84.5t51 92t25.5 89.5q0 73 -90 73h-12l4 19h12q105 0 123 92q7 38 -4.5 112.5t-3.5 112.5q10 54 51.5 85t109.5 31h35l-3 -18h-35q-41 0 -72.5 -24.5t-41.5 -76.5q-8 -36 -3.5 -111t-2.5 -110q-17 -89 -114 -103
l-1 -3q78 -10 78 -79q0 -40 -42.5 -130t-42.5 -136q0 -40 21.5 -58t54.5 -18h35z" />
    <glyph glyph-name="braceright.uc" horiz-adv-x="280" 
d="M132 795h35q58 0 88.5 -25.5t30.5 -68.5q0 -39 -25.5 -84.5t-51 -92t-25.5 -89.5q0 -73 90 -73h12l-4 -19h-12q-105 0 -123 -92q-7 -38 4.5 -112.5t3.5 -112.5q-10 -54 -51.5 -85t-109.5 -31h-35l3 18h35q41 0 72.5 24.5t41.5 76.5q8 36 3.5 111t2.5 110q17 89 114 103
l1 3q-78 10 -78 79q0 41 42.5 130t42.5 136q0 40 -21.5 58t-54.5 18h-35z" />
    <glyph glyph-name="slash.uc" horiz-adv-x="358" 
d="M-86 -90l535 911h27l-535 -911h-27z" />
    <glyph glyph-name="backslash.uc" horiz-adv-x="358" 
d="M51 821h24l286 -911h-24z" />
    <glyph glyph-name="bar.uc" horiz-adv-x="203" 
d="M138 -89h-23v911h23v-911z" />
    <glyph glyph-name="at.uc" horiz-adv-x="829" 
d="M428 -41q-164 0 -268.5 98t-104.5 262q0 118 54.5 217t156.5 159.5t230 60.5q151 0 239.5 -81.5t88.5 -226.5q0 -122 -61 -209t-158 -87q-50 0 -77.5 26t-28.5 64.5t9 82.5l7 26q-37 -90 -86.5 -149t-99.5 -59q-36 0 -56.5 27t-20.5 80q0 121 81 221.5t183 100.5
q42 0 71 -17l28 17h4l-65 -244q-13 -49 -14 -81t15.5 -54t55.5 -22q80 0 129 79.5t49 193.5q0 140 -80 216t-216 76q-175 0 -284 -121.5t-109 -295.5q0 -157 91 -248.5t241 -91.5q128 0 214 60l8 -16q-91 -64 -226 -64zM351 182q77 0 173 225l29 113q-19 33 -61 33
q-75 0 -132.5 -95t-57.5 -195q0 -81 49 -81z" />
    <glyph glyph-name="grave.uc" horiz-adv-x="427" 
d="M409 789l-5 -7l-228 121l41 56z" />
    <glyph glyph-name="dieresis.uc" horiz-adv-x="428" 
d="M460 868q0 -17 -12 -29t-29 -12t-29 12t-12 29t12 29t29 12t29 -12t12 -29zM268 868q0 -17 -12 -29t-29 -12t-29 12t-12 29t12 29t29 12t29 -12t12 -29z" />
    <glyph glyph-name="macron.uc" horiz-adv-x="298" 
d="M127 838l7 35h254l-7 -35h-254z" />
    <glyph glyph-name="acute.uc" horiz-adv-x="427" 
d="M186 789l224 170l31 -57l-251 -120z" />
    <glyph glyph-name="circumflex.uc" horiz-adv-x="428" 
d="M455 782l-114 93l-166 -93l-4 7l177 156h4l110 -156z" />
    <glyph glyph-name="caron.uc" horiz-adv-x="299" 
d="M259 782h-4l-110 156l7 7l114 -93l166 93l4 -7z" />
    <glyph glyph-name="breve.uc" horiz-adv-x="428" 
d="M325 846q95 0 128 81h7q-4 -22 -12.5 -42t-24 -40.5t-42 -33t-60.5 -12.5t-58 12.5t-35.5 33.5t-16.5 41t-4 41h7q18 -81 111 -81z" />
    <glyph glyph-name="dotaccent.uc" horiz-adv-x="428" 
d="M364 868q0 -17 -12 -29t-29 -12t-29 12t-12 29t12 29t29 12t29 -12t12 -29z" />
    <glyph glyph-name="ring.uc" horiz-adv-x="300" 
d="M164 865q0 37 23.5 61t60.5 24t60.5 -24t23.5 -61t-23.5 -60t-60.5 -23t-60.5 23t-23.5 60zM192 865q0 -31 14.5 -48.5t41.5 -17.5t41.5 17.5t14.5 48.5t-14 49.5t-42 18.5t-42 -18.5t-14 -49.5z" />
    <glyph glyph-name="tilde.uc" horiz-adv-x="428" 
d="M269 896q27 0 67 -25.5t65 -25.5t41 15.5t32 51.5l7 -1q-29 -109 -107 -109q-28 0 -68.5 25.5t-64.5 25.5q-47 0 -76 -67l-8 1q11 40 38 74.5t74 34.5z" />
    <glyph glyph-name="hungarumlaut.uc" horiz-adv-x="427" 
d="M334 786l122 163l44 -50l-162 -117zM171 786l122 163l44 -50l-162 -117z" />
    <glyph glyph-name="Cacute.pl" horiz-adv-x="598" 
d="M565 199l-40 -146q-29 -24 -88 -46t-129 -22q-126 0 -190.5 84.5t-64.5 230.5q0 117 46 219t130.5 165t187.5 63q56 0 106.5 -18.5t72.5 -34.5l11 -139l-8 -2q-36 92 -84 133t-112 41q-88 0 -155 -66t-99 -165.5t-32 -214.5q0 -121 50.5 -198.5t142.5 -77.5
q75 0 132 49.5t113 146.5zM396 786l74 175l57 -30l-123 -149z" />
    <glyph glyph-name="Nacute.pl" horiz-adv-x="597" 
d="M456 -3l-276 650l-87 -483q-11 -51 -9 -84t23 -78v-2h-101v2q32 45 43 75t22 87l73 404v-1q12 58 9.5 92t-30.5 71v2h80l267 -630l84 466q11 51 9 84t-23 78v2h101v-2q-32 -46 -43.5 -76.5t-21.5 -85.5l-102 -568zM393 786l74 175l57 -30l-123 -149z" />
    <glyph glyph-name="Oacute.pl" horiz-adv-x="662" 
d="M655 437q0 -118 -49.5 -222.5t-133 -167t-178.5 -62.5q-106 0 -173.5 87.5t-67.5 222.5q0 118 49.5 222.5t133 167t178.5 62.5q106 0 173.5 -87.5t67.5 -222.5zM117 276q0 -122 47 -196.5t137 -74.5q88 0 155.5 65t101 166.5t33.5 219.5q0 122 -47 196.5t-137 74.5
q-88 0 -155.5 -65t-101 -166.5t-33.5 -219.5zM421 786l74 175l57 -30l-123 -149z" />
    <glyph glyph-name="Sacute.pl" horiz-adv-x="438" 
d="M443 711l7 -146l-9 -2q-24 93 -61 128.5t-86 35.5q-56 0 -90.5 -37t-34.5 -95q0 -29 7.5 -54t27.5 -52t32 -40.5t41 -44.5q35 -37 54 -61.5t36.5 -66.5t17.5 -87q0 -96 -59.5 -150t-150.5 -54q-89 0 -164 46l-7 158l8 2q32 -104 76 -145t102 -41q66 0 106.5 48.5
t40.5 117.5q0 40 -17.5 78.5t-35.5 60t-54 58.5q-36 39 -53.5 60t-35.5 61t-18 81q0 86 55 131.5t131 45.5q79 0 134 -36zM311 786l74 175l57 -30l-123 -149z" />
    <glyph glyph-name="Zacute.pl" horiz-adv-x="476" 
d="M372 0h-389v11l483 703l-160 -5q-62 -2 -91.5 -25.5t-90.5 -108.5l-9 -12l-8 3l61 166h364v-11l-482 -705l179 8q68 4 104 35t101 132l8 -3zM329 786l74 175l57 -30l-123 -149z" />
    <glyph glyph-name="acute.pl" horiz-adv-x="300" 
d="M146 546l73 203l55 -22l-122 -184z" />
    <glyph glyph-name="acute.ucpl" horiz-adv-x="300" 
d="M216 786l74 175l57 -30l-123 -149z" />
    <glyph glyph-name="cacute.pl" horiz-adv-x="374" 
d="M319 136l10 -4q-22 -68 -64.5 -107.5t-101.5 -39.5q-68 0 -105.5 51.5t-37.5 134.5q0 123 75 221t176 98q51 0 87 -26l8 -98l-10 -2q-23 51 -46.5 79.5t-57.5 28.5q-60 0 -117 -77t-57 -202q0 -165 110 -165q78 0 131 108zM224 546l73 203l55 -22l-122 -184z" />
    <glyph glyph-name="divide.osf" horiz-adv-x="532" 
d="M487 233h-442v20h442v-20zM249 29q-19 0 -33 14t-14 33t14 33t33 14t33 -13.5t14 -33.5t-14 -33.5t-33 -13.5zM249 363q-19 0 -33 14t-14 33t14 33t33 14t33 -13.5t14 -33.5t-14 -33.5t-33 -13.5z" />
    <glyph glyph-name="eight.osf" horiz-adv-x="426" 
d="M191 -10q-71 0 -121 43t-50 121q0 72 47.5 133t142.5 93q-34 32 -53 54t-36.5 60t-17.5 79q0 78 50 126t120 48q62 0 105 -40t43 -107q0 -58 -34 -113t-112 -89q109 -103 109 -215q0 -89 -57.5 -141t-135.5 -52zM146 596q0 -14 2 -27t7.5 -26t9 -22.5t13.5 -22t14.5 -19
t18 -20l17.5 -17.5t20 -18.5t19 -17.5q106 73 106 185q0 62 -29 99t-80 37q-52 0 -85 -37t-33 -94zM199 10q64 0 100.5 40.5t36.5 108.5q0 63 -30.5 112t-85.5 100l-2 1q-148 -79 -148 -218q0 -69 34 -106.5t95 -37.5z" />
    <glyph glyph-name="equal.osf" horiz-adv-x="532" 
d="M487 314h-442v20h442v-20zM487 172h-442v20h442v-20z" />
    <glyph glyph-name="f.short" horiz-adv-x="257" 
d="M4 -165l133 622h-56l4 18h55l20 92q45 212 140 212q32 0 47 -13l7 -95l-4 -1q-7 12 -14 25t-11.5 20.5t-9 16t-7.5 12.5t-7 7.5t-8 5t-8 1.5q-11 0 -21 -13t-23 -53t-28 -109l-23 -108h99l-4 -18h-99l-132 -622h-50z" />
    <glyph glyph-name="f_f.short" horiz-adv-x="476" 
d="M4 -165l133 622h-56l4 18h56l15 72q23 109 69 160.5t106 51.5q18 0 49 -12l7 -85l-4 -1q-21 39 -39 58t-40 19q-28 0 -50.5 -37.5t-44.5 -137.5l-19 -88h170l20 92q45 212 140 212q32 0 47 -13l7 -95l-4 -1q-7 12 -14 25t-11.5 20.5t-9 16t-7.5 12.5t-7 7.5t-8 5t-8 1.5
q-11 0 -21 -13t-23 -53t-28 -109l-23 -108h99l-4 -18h-99l-132 -622h-50l133 622h-171l-132 -622h-50z" />
    <glyph glyph-name="five.osf" horiz-adv-x="357" 
d="M65 -245q-47 0 -87 16t-56 36l-10 126l5 1q26 -81 63.5 -120.5t92.5 -39.5q72 0 113 60t41 145q0 87 -45.5 149.5t-135.5 91.5l112 277h227l-20 -50h-204l-75 -185q87 -27 137.5 -94t50.5 -165q0 -106 -55.5 -177t-153.5 -71z" />
    <glyph glyph-name="four.osf" horiz-adv-x="402" 
d="M180 -195l35 195h-245v8l378 499h7l-85 -467h96l-14 -40h-89l-36 -195h-47zM222 40l62 351l-266 -351h204z" />
    <glyph glyph-name="four.osfalt" horiz-adv-x="402" 
d="M181 -195l34 195h-245v8l356 469h73l-406 -455h226l28 158h48l-28 -158h92l-7 -22h-89l-34 -195h-48z" />
    <glyph glyph-name="greater.osf" horiz-adv-x="530" 
d="M495 228l-430 -208v25l409 196l-409 196v25l430 -208v-26z" />
    <glyph glyph-name="less.osf" horiz-adv-x="530" 
d="M455 20l-430 208v26l430 208v-25l-409 -196l409 -196v-25z" />
    <glyph glyph-name="minus.osf" horiz-adv-x="532" 
d="M487 233h-442v20h442v-20z" />
    <glyph glyph-name="multiply.osf" horiz-adv-x="472" 
d="M406 57l-170 170l-170 -170l-15 15l170 170l-170 170l15 15l170 -170l170 170l15 -15l-170 -170l170 -170z" />
    <glyph glyph-name="nacute.pl" horiz-adv-x="466" 
d="M290 -9l81 367q9 40 -0.5 66.5t-38.5 26.5q-42 0 -99.5 -70t-121.5 -214l-10 -44q-16 -76 -3 -121v-2h-88v2q5 7 8.5 13.5t7.5 15.5t6.5 14.5t5.5 17t4.5 16.5t5 19.5t4.5 19.5l4.5 22.5l4.5 22.5l38 178q16 74 -18 119v2l100 33l-58 -262q51 116 113 186.5t122 70.5
q42 0 58.5 -36t2.5 -99l-54 -240q-14 -56 -6.5 -79.5t46.5 -27.5v-2zM269 546l73 203l55 -22l-122 -184z" />
    <glyph glyph-name="nine.osf" horiz-adv-x="457" 
d="M266 511q74 0 118 -58.5t44 -156.5q0 -73 -26 -150t-76.5 -152t-135.5 -140t-193 -105l-3 9q106 46 185 128.5t128 183.5q-54 -61 -130 -61q-73 0 -112.5 52t-39.5 137q0 122 72 217.5t169 95.5zM264 491q-45 0 -82 -32t-58 -81.5t-32.5 -103.5t-11.5 -104
q0 -143 101 -143q86 0 145 87q47 113 47 216q0 76 -28.5 118.5t-80.5 42.5z" />
    <glyph glyph-name="oacute.pl" horiz-adv-x="410" 
d="M390 316q0 -81 -32.5 -158t-87.5 -125t-114 -48q-61 0 -98.5 46.5t-37.5 127.5t32.5 158t87.5 125t114 48q61 0 98.5 -46.5t37.5 -127.5zM78 151q0 -148 82 -148q68 0 120 91t52 230q0 148 -82 148q-68 0 -120 -91t-52 -230zM239 546l73 203l55 -22l-122 -184z" />
    <glyph glyph-name="one.osf" horiz-adv-x="244" 
d="M134 124q-8 -51 -5 -74t19 -48v-2h-126v2q29 25 42.5 49.5t21.5 72.5l52 305h-76l2 11l136 67h2z" />
    <glyph glyph-name="plus.osf" horiz-adv-x="532" 
d="M487 233h-210v-210h-22v210h-210v20h210v210h22v-210h210v-20z" />
    <glyph glyph-name="sacute.pl" horiz-adv-x="313" 
d="M290 470l3 -95l-8 -2q-44 99 -104 99q-31 0 -49.5 -22t-18.5 -55q0 -28 15.5 -54t37.5 -48t44 -46t37.5 -57t15.5 -71q0 -63 -38.5 -98.5t-97.5 -35.5q-72 0 -116 38l-3 113l8 2q23 -66 55 -100.5t69 -34.5q35 0 59 26t24 67q0 30 -15 57.5t-37 49.5t-44 45t-37 54
t-15 66q0 59 36.5 90.5t90.5 31.5q52 0 88 -20zM195 546l73 203l55 -22l-122 -184z" />
    <glyph glyph-name="seven.osf" horiz-adv-x="387" 
d="M44 -245h-67q65 182 174.5 375t210.5 317h-307l19 50h338v-10q-97 -124 -200.5 -329t-167.5 -403z" />
    <glyph glyph-name="six.osf" horiz-adv-x="457" 
d="M190 -10q-74 0 -118 58.5t-44 156.5q0 73 26 150t76.5 152t135.5 140t193 105l3 -9q-106 -46 -185 -128.5t-128 -183.5q54 61 130 61q73 0 112.5 -52t39.5 -137q0 -122 -72 -217.5t-169 -95.5zM192 10q45 0 82 32t58 81.5t32.5 103.5t11.5 104q0 143 -101 143
q-86 0 -145 -87q-47 -113 -47 -216q0 -76 28.5 -118.5t80.5 -42.5z" />
    <glyph glyph-name="three.osf" horiz-adv-x="376" 
d="M81 -245q-51 0 -93 16.5t-60 35.5l-10 126l5 1q51 -160 173 -160q76 0 114.5 53.5t38.5 125.5q0 83 -48 135.5t-115 69.5v5q201 66 201 217q0 49 -19.5 78.5t-56.5 29.5q-38 0 -70.5 -31.5t-81.5 -101.5l-5 2l41 118q55 32 122 32q59 0 91.5 -35.5t32.5 -89.5
q0 -66 -46.5 -120.5t-129.5 -78.5q132 -63 132 -205q0 -94 -58.5 -158.5t-157.5 -64.5z" />
    <glyph glyph-name="three.osfalt" horiz-adv-x="376" 
d="M81 -245q-51 0 -93 16.5t-60 35.5l-10 126l5 1q51 -160 173 -160q76 0 114.5 53t38.5 124q0 84 -48 137t-115 70v5q104 33 154 90.5t50 121.5q0 46 -24.5 70.5t-68.5 24.5q-59 0 -110 -38l-4 6q67 69 137 69q53 0 87 -32t34 -87q0 -64 -48 -122t-129 -83q57 -27 95 -77.5
t38 -128.5q0 -93 -58.5 -157.5t-157.5 -64.5z" />
    <glyph glyph-name="two.osf" horiz-adv-x="363" 
d="M273 0h-298v8q153 99 226 200.5t73 181.5q0 45 -21.5 71.5t-53.5 26.5q-34 0 -67.5 -32.5t-77.5 -103.5l-6 2l41 120q59 33 116 33q56 0 89.5 -35.5t33.5 -89.5q0 -78 -72.5 -164t-199.5 -168h156q34 0 52.5 13t39.5 47l5 -3z" />
    <glyph glyph-name="two.osfalt" horiz-adv-x="373" 
d="M283 0h-298v8q151 91 224 190.5t73 175.5q0 49 -24.5 73t-68.5 24q-59 0 -111 -39l-4 6q77 69 144 69q52 0 86 -31t34 -90q0 -86 -73.5 -174.5t-197.5 -161.5h155q34 0 52.5 13t39.5 47l5 -3z" />
    <glyph glyph-name="zacute.pl" horiz-adv-x="370" 
d="M283 0h-298v7l329 451l-94 -3q-39 -1 -71.5 -20t-79.5 -64l-4 2l49 102h266v-9l-329 -451l130 4q45 1 77.5 22t82.5 70l4 -2zM233 546l73 203l55 -22l-122 -184z" />
    <glyph glyph-name="zero.osf" horiz-adv-x="446" 
d="M164 -10q-63 0 -103.5 50t-40.5 130q0 79 38.5 157.5t100 129t123.5 50.5q63 0 103.5 -50t40.5 -130q0 -122 -82.5 -229.5t-179.5 -107.5zM172 9q60 0 107.5 55t70 128.5t22.5 145.5q0 68 -24 109t-74 41q-60 0 -107.5 -54.5t-70 -128.5t-22.5 -145q0 -68 24 -109.5
t74 -41.5z" />
    <glyph glyph-name="kcommaaccent.alt" horiz-adv-x="407" 
d="M93 0h-88v2q5 7 8.5 13.5t7.5 15.5t6.5 14.5t5.5 17t4.5 16.5t5 19.5t4.5 19.5l4.5 22.5l4.5 22.5l97 462q10 49 6 72.5t-24 46.5v2l100 33l-130 -614q-15 -70 -17.5 -101.5t5.5 -61.5v-2zM301 -5q-52 0 -98 87q-33 61 -69 164l145 145q53 53 28 82v2h120v-2
q-42 -15 -78.5 -46t-167.5 -162q31 -87 65 -153q22 -40 38.5 -55.5t35.5 -15.5q23 0 42 19l3 -2q-9 -30 -26.5 -46.5t-37.5 -16.5zM100 -224l-4 6q64 38 64 74q0 31 -33 58v2l41 34q36 -30 36 -61q0 -54 -104 -113z" />
    <glyph glyph-name="yacute.alt" horiz-adv-x="362" 
d="M-115 -245l22 68q50 -2 105 22.5t102 78.5q-1 228 -20 387q-8 76 -22 110.5t-44 51.5v2h90q18 -49 32 -164q13 -113 15 -316q145 229 145 387q0 61 -44 91v2h106v-2q-33 -217 -158 -435q-29 -50 -57.5 -89.5t-69 -82t-92 -71.5t-110.5 -40zM180 539l158 210l42 -44
l-195 -172z" />
    <glyph glyph-name="ydieresis.alt" horiz-adv-x="362" 
d="M-115 -245l22 68q50 -2 105 22.5t102 78.5q-1 228 -20 387q-8 76 -22 110.5t-44 51.5v2h90q18 -49 32 -164q13 -113 15 -316q145 229 145 387q0 61 -44 91v2h106v-2q-33 -217 -158 -435q-29 -50 -57.5 -89.5t-69 -82t-92 -71.5t-110.5 -40zM198 659q0 -17 -12 -29
t-29 -12t-29 12t-12 29t12 29t29 12t29 -12t12 -29zM370 659q0 -17 -12 -29t-29 -12t-29 12t-12 29t12 29t29 12t29 -12t12 -29z" />
    <glyph glyph-name="zacute.alt" horiz-adv-x="360" 
d="M276 0h-296l2 7l343 424l-138 -2q-32 -1 -54 -13.5t-57 -44.5l-4 2l39 102h274l-3 -9l-344 -425l166 4q38 1 63 16t57 50l4 -2zM194 539l158 210l42 -44l-195 -172z" />
    <glyph glyph-name="zdotaccent.alt" horiz-adv-x="360" 
d="M276 0h-296l2 7l343 424l-138 -2q-32 -1 -54 -13.5t-57 -44.5l-4 2l39 102h274l-3 -9l-344 -425l166 4q38 1 63 16t57 50l4 -2zM287 659q0 -17 -12 -29t-29 -12t-29 12t-12 29t12 29t29 12t29 -12t12 -29z" />
    <glyph glyph-name="zcaron.alt" horiz-adv-x="360" 
d="M276 0h-296l2 7l343 424l-138 -2q-32 -1 -54 -13.5t-57 -44.5l-4 2l39 102h274l-3 -9l-344 -425l166 4q38 1 63 16t57 50l4 -2zM249 540h-3l-88 173l8 6l91 -106l144 106l5 -6z" />
    <glyph glyph-name="germandbls.alt" horiz-adv-x="476" 
d="M302 -15q-70 0 -114 38l-3 113l8 2q47 -135 125 -135q35 0 58.5 26t23.5 67q0 29 -15 56.5t-36 49.5t-42.5 45t-36.5 53t-15 64q0 39 20 69t48 51.5t56 43.5t48 56.5t20 78.5q0 45 -19.5 76t-63.5 31q-50 0 -91 -45.5t-60 -141.5l-90 -421q-25 -114 -11 -160v-2h-90v2
q5 7 8.5 13.5t7.5 15.5t6.5 14.5t5.5 17t4.5 16.5t5 19.5t4.5 19.5l4.5 22.5l4.5 22.5l63 294h-55l4 18h55l14 64q25 120 83 184.5t135 64.5q57 0 89.5 -33t32.5 -86q0 -41 -20.5 -74.5t-50 -56.5t-59.5 -44t-50.5 -47t-20.5 -56q0 -25 15 -50t37 -47.5t43.5 -46.5
t36.5 -57.5t15 -70.5q0 -63 -38.5 -98.5t-99.5 -35.5z" />
    <glyph glyph-name="zacute.altpl" horiz-adv-x="360" 
d="M276 0h-296l2 7l343 424l-138 -2q-32 -1 -54 -13.5t-57 -44.5l-4 2l39 102h274l-3 -9l-344 -425l166 4q38 1 63 16t57 50l4 -2zM219 546l73 203l55 -22l-122 -184z" />
    <glyph glyph-name="f.shortalt" horiz-adv-x="257" 
d="M23 0v2q27 46 51 161l63 294h-55l4 18h54l20 92q45 212 140 212q32 0 47 -13l7 -95l-4 -1q-7 12 -14 25t-11.5 20.5t-9 16t-7.5 12.5t-7 7.5t-8 5t-8 1.5q-36 0 -72 -175l-23 -108h100l-4 -18h-100l-61 -291q-15 -70 -17.5 -102t5.5 -62v-2h-90z" />
    <glyph glyph-name="f_f.shortalt" horiz-adv-x="476" 
d="M23 0v2q27 46 51 161l63 294h-56l4 18h56l15 72q23 109 69 160.5t106 51.5q18 0 49 -12l7 -85l-4 -1q-21 39 -39 58t-40 19q-28 0 -51 -37.5t-44 -137.5l-19 -88h169l20 92q45 212 140 212q32 0 47 -13l7 -95l-4 -1q-7 12 -14 25t-11.5 20.5t-9 16t-7.5 12.5t-7 7.5t-8 5
t-8 1.5q-36 0 -72 -175l-23 -108h100l-4 -18h-100l-61 -291q-15 -70 -17.5 -102t5.5 -62v-2h-90v2q27 46 51 161l63 294h-169l-62 -291q-15 -70 -17.5 -102t5.5 -62v-2h-90z" />
    <glyph glyph-name="ampersand.alt" horiz-adv-x="738" 
d="M551 -15q-80 0 -144 44q-62 -44 -147 -44q-104 0 -162 56.5t-58 145.5q0 80 48.5 142.5t138.5 84.5q-1 11 -1 33q0 128 50 214t142 86q57 0 90.5 -32.5t33.5 -85.5q0 -71 -67 -126t-191 -87q12 -102 52 -192t103 -142q5 5 15 17q38 48 61 113.5t23 114.5q0 34 -8.5 50.5
t-36.5 23.5v4h155v-4q-2 -1 -8 -2.5t-8.5 -2.5t-8.5 -3.5t-9 -5t-8.5 -7t-9 -10t-8 -13t-8.5 -16.5t-30 -86q-42 -117 -87 -173l-9 -11q60 -42 129 -42q101 0 152 87l3 -2q-61 -129 -187 -129zM277 9q62 0 114 32q-71 56 -113 154t-50 207q-66 -22 -98.5 -77.5t-32.5 -125.5
q0 -85 47 -137.5t133 -52.5zM280 487q0 -30 3 -60q124 41 171 92t47 111q0 49 -23 73t-61 24q-67 0 -102 -68t-35 -172z" />
    <glyph glyph-name="wacute.alt" horiz-adv-x="580" 
d="M316 -15q-43 0 -62 32t-4 89l9 34q-18 -36 -31 -56q-61 -99 -133 -99q-42 0 -60.5 32t-3.5 89l70 274q18 74 -32 93v2h105l-92 -363q-22 -89 33 -89t104 84q56 95 94 246l7 27q18 74 -32 93v2h105l-92 -363q-22 -89 34 -89q55 0 111 89q37 61 67 142t30 138q0 59 -38 81
v2h93v-2q-16 -105 -55.5 -208t-85.5 -175q-68 -105 -141 -105zM295 539l158 210l42 -44l-195 -172z" />
    <glyph glyph-name="wcircumflex.alt" horiz-adv-x="580" 
d="M316 -15q-43 0 -62 32t-4 89l9 34q-18 -36 -31 -56q-61 -99 -133 -99q-42 0 -60.5 32t-3.5 89l70 274q18 74 -32 93v2h105l-92 -363q-22 -89 33 -89t104 84q56 95 94 246l7 27q18 74 -32 93v2h105l-92 -363q-22 -89 34 -89q55 0 111 89q37 61 67 142t30 138q0 59 -38 81
v2h93v-2q-16 -105 -55.5 -208t-85.5 -175q-68 -105 -141 -105zM491 540l-91 106l-144 -106l-5 6l157 173h3l88 -173z" />
    <glyph glyph-name="wdieresis.alt" horiz-adv-x="580" 
d="M316 -15q-43 0 -62 32t-4 89l9 34q-18 -36 -31 -56q-61 -99 -133 -99q-42 0 -60.5 32t-3.5 89l70 274q18 74 -32 93v2h105l-92 -363q-22 -89 33 -89t104 84q56 95 94 246l7 27q18 74 -32 93v2h105l-92 -363q-22 -89 34 -89q55 0 111 89q37 61 67 142t30 138q0 59 -38 81
v2h93v-2q-16 -105 -55.5 -208t-85.5 -175q-68 -105 -141 -105zM495 659q0 -17 -12 -29t-29 -12t-29 12t-12 29t12 29t29 12t29 -12t12 -29zM323 659q0 -17 -12 -29t-29 -12t-29 12t-12 29t12 29t29 12t29 -12t12 -29z" />
    <glyph glyph-name="wgrave.alt" horiz-adv-x="580" 
d="M316 -15q-43 0 -62 32t-4 89l9 34q-18 -36 -31 -56q-61 -99 -133 -99q-42 0 -60.5 32t-3.5 89l70 274q18 74 -32 93v2h105l-92 -363q-22 -89 33 -89t104 84q56 95 94 246l7 27q18 74 -32 93v2h105l-92 -363q-22 -89 34 -89q55 0 111 89q37 61 67 142t30 138q0 59 -38 81
v2h93v-2q-16 -105 -55.5 -208t-85.5 -175q-68 -105 -141 -105zM432 539l-8 -6l-146 178l55 38z" />
    <glyph glyph-name="ycircumflex.alt" horiz-adv-x="362" 
d="M-115 -245l22 68q50 -2 105 22.5t102 78.5q-1 228 -20 387q-8 76 -22 110.5t-44 51.5v2h90q18 -49 32 -164q13 -113 15 -316q145 229 145 387q0 61 -44 91v2h106v-2q-33 -217 -158 -435q-29 -50 -57.5 -89.5t-69 -82t-92 -71.5t-110.5 -40zM344 540l-91 106l-144 -106
l-5 6l157 173h3l88 -173z" />
    <glyph glyph-name="ygrave.alt" horiz-adv-x="362" 
d="M-115 -245l22 68q50 -2 105 22.5t102 78.5q-1 228 -20 387q-8 76 -22 110.5t-44 51.5v2h90q18 -49 32 -164q13 -113 15 -316q145 229 145 387q0 61 -44 91v2h106v-2q-33 -217 -158 -435q-29 -50 -57.5 -89.5t-69 -82t-92 -71.5t-110.5 -40zM290 539l-8 -6l-146 178l55 38
z" />
    </font>
</defs>
</svg>
